<svg width="100" height="116" viewBox="0 0 100 116" fill="none" xmlns="http://www.w3.org/2000/svg">
<path d="M26.2325 46.1728C26.1344 45.9767 26.2771 45.7458 26.4964 45.7458L29.7069 45.7458L29.7069 54.5968L26.4964 54.5968C26.2771 54.5968 26.1344 54.366 26.2325 54.1698L26.7566 53.1216L26.7566 47.221L26.2325 46.1728Z" fill="#68CB70"/>
<path d="M26.2325 28.427C26.1344 28.2308 26.2771 28 26.4964 28L29.7069 28L29.7069 36.8509L26.4964 36.8509C26.2771 36.8509 26.1344 36.6201 26.2325 36.424L26.7566 35.3758L26.7566 29.4752L26.2325 28.427Z" fill="#68CB70"/>
<path d="M26.2325 63.8755C26.1344 63.6793 26.2771 63.4485 26.4964 63.4485L29.7069 63.4485L29.7069 72.2994L26.4964 72.2994C26.2771 72.2994 26.1344 72.0686 26.2325 71.8725L26.7566 70.8243L26.7566 64.9236L26.2325 63.8755Z" fill="#68CB70"/>
<path d="M26.2325 81.576C26.1344 81.3799 26.2771 81.149 26.4964 81.149L29.7069 81.149L29.7069 90L26.7566 90L26.7566 88.5248L26.7566 82.6242L26.2325 81.576Z" fill="#68CB70"/>
<path d="M29.707 45.7458L32.9176 45.7458C33.1369 45.7458 33.2795 45.9767 33.1814 46.1728L32.6573 47.221L32.6573 53.1216L33.1814 54.1698C33.2795 54.366 33.1369 54.5968 32.9176 54.5968L29.707 54.5968L29.707 45.7458Z" fill="#2DAC6C"/>
<path d="M29.707 28L32.9176 28C33.1369 28 33.2795 28.2308 33.1814 28.427L32.6573 29.4752L32.6573 35.3758L33.1814 36.424C33.2795 36.6201 33.1369 36.8509 32.9176 36.8509L29.707 36.8509L29.707 28Z" fill="#2DAC6C"/>
<path d="M29.707 63.4485L32.9176 63.4485C33.1369 63.4485 33.2795 63.6793 33.1814 63.8755L32.6573 64.9236L32.6573 70.8243L33.1814 71.8725C33.2795 72.0686 33.1369 72.2994 32.9176 72.2994L29.707 72.2994L29.707 63.4485Z" fill="#2DAC6C"/>
<path d="M29.707 81.149L32.9176 81.149C33.1369 81.149 33.2795 81.3799 33.1814 81.576L32.6573 82.6242L32.6573 88.5248L32.6573 90L29.707 90L29.707 81.149Z" fill="#2DAC6C"/>
<path d="M29.707 36.895L32.9176 36.895C33.1369 36.895 33.2795 37.1258 33.1814 37.322L32.6573 38.3702L32.6573 44.2708L33.1814 45.319C33.2795 45.5152 33.1369 45.746 32.9176 45.746L29.707 45.746L29.707 36.895Z" fill="#68CB70"/>
<path d="M29.707 54.5967L32.9176 54.5967C33.1369 54.5967 33.2795 54.8275 33.1814 55.0237L32.6573 56.0718L32.6573 61.9725L33.1814 63.0206C33.2795 63.2168 33.1369 63.4476 32.9176 63.4476L29.707 63.4476L29.707 54.5967Z" fill="#68CB70"/>
<path d="M29.707 72.2982L32.9176 72.2982C33.1369 72.2982 33.2795 72.529 33.1814 72.7252L32.6573 73.7734L32.6573 79.674L33.1814 80.7222C33.2795 80.9184 33.1369 81.1492 32.9176 81.1492L29.707 81.1492L29.707 72.2982Z" fill="#68CB70"/>
<path d="M26.2325 37.322C26.1344 37.1258 26.2771 36.895 26.4964 36.895L29.7069 36.895L29.7069 45.746L26.4964 45.746C26.2771 45.746 26.1344 45.5152 26.2325 45.319L26.7566 44.2708L26.7566 38.3702L26.2325 37.322Z" fill="#AEE280"/>
<path d="M26.2325 55.0237C26.1344 54.8275 26.2771 54.5967 26.4964 54.5967L29.7069 54.5967L29.7069 63.4476L26.4964 63.4476C26.2771 63.4476 26.1344 63.2168 26.2325 63.0206L26.7566 61.9725L26.7566 56.0718L26.2325 55.0237Z" fill="#AEE280"/>
<path d="M26.2325 72.7252C26.1344 72.529 26.2771 72.2982 26.4964 72.2982L29.7069 72.2982L29.7069 81.1492L26.4964 81.1492C26.2771 81.1492 26.1344 80.9184 26.2325 80.7222L26.7566 79.674L26.7566 73.7734L26.2325 72.7252Z" fill="#AEE280"/>
<path d="M34.194 68.2906C32.8802 69.6044 33.6101 72.0861 33.6101 72.0861C33.6101 72.0861 36.0918 72.816 37.4056 71.5021C38.7194 70.1883 38.4274 67.2687 38.4274 67.2687C38.4274 67.2687 35.5078 66.9768 34.194 68.2906Z" fill="#68CB70"/>
<path d="M34.194 75.6846C32.8802 74.3708 33.6101 71.8892 33.6101 71.8892C33.6101 71.8892 36.0918 71.1593 37.4056 72.4731C38.7194 73.7869 38.4274 76.7065 38.4274 76.7065C38.4274 76.7065 35.5078 76.9984 34.194 75.6846Z" fill="#68CB70"/>
<path d="M16.8708 28.3039C16.7725 28.1072 16.9155 27.8757 17.1354 27.8757H20.3546V36.7506H17.1354C16.9155 36.7506 16.7725 36.5192 16.8708 36.3225L17.3963 35.2715V29.3549L16.8708 28.3039Z" fill="#68CB70"/>
<path d="M16.8713 46.0534C16.7729 45.8567 16.916 45.6252 17.1359 45.6252H20.3551V54.5001H17.1359C16.916 54.5001 16.7729 54.2687 16.8713 54.072L17.3968 53.021V47.1044L16.8713 46.0534Z" fill="#68CB70"/>
<path d="M16.8713 63.8037C16.7729 63.607 16.916 63.3756 17.1359 63.3756H20.3551V72.2505H17.1359C16.916 72.2505 16.7729 72.0191 16.8713 71.8224L17.3968 70.7713V64.8548L16.8713 63.8037Z" fill="#68CB70"/>
<path d="M16.8713 81.5523C16.7729 81.3556 16.916 81.1241 17.1359 81.1241H20.3551V89.999H17.3968V88.5199V82.6033L16.8713 81.5523Z" fill="#68CB70"/>
<path d="M20.355 27.8757H23.5742C23.7941 27.8757 23.9371 28.1072 23.8388 28.3039L23.3133 29.3549V35.2715L23.8388 36.3225C23.9371 36.5192 23.7941 36.7506 23.5742 36.7506H20.355V27.8757Z" fill="#2DAC6C"/>
<path d="M20.355 45.6252H23.5742C23.7941 45.6252 23.9371 45.8567 23.8388 46.0534L23.3133 47.1044V53.021L23.8388 54.072C23.9371 54.2687 23.7941 54.5001 23.5742 54.5001H20.355V45.6252Z" fill="#2DAC6C"/>
<path d="M20.355 63.3746H23.5742C23.7941 63.3746 23.9371 63.6061 23.8388 63.8028L23.3133 64.8538V70.7704L23.8388 71.8214C23.9371 72.0181 23.7941 72.2495 23.5742 72.2495H20.355V63.3746Z" fill="#2DAC6C"/>
<path d="M20.3555 81.1251H23.5747C23.7946 81.1251 23.9376 81.3566 23.8393 81.5532L23.3138 82.6043V88.5208V90H20.3555V81.1251Z" fill="#2DAC6C"/>
<path d="M20.355 19H23.5742C23.7941 19 23.9371 19.2314 23.8388 19.4281L23.3133 20.4791V26.3957L23.8388 27.4467C23.9371 27.6434 23.7941 27.8749 23.5742 27.8749H20.355V19Z" fill="#68CB70"/>
<path d="M20.355 36.7505H23.5742C23.7941 36.7505 23.9371 36.9819 23.8388 37.1786L23.3133 38.2296V44.1462L23.8388 45.1972C23.9371 45.3939 23.7941 45.6254 23.5742 45.6254H20.355V36.7505Z" fill="#68CB70"/>
<path d="M20.355 54.501H23.5742C23.7941 54.501 23.9371 54.7324 23.8388 54.9291L23.3133 55.9801V61.8967L23.8388 62.9477C23.9371 63.1444 23.7941 63.3758 23.5742 63.3758H20.355V54.501Z" fill="#68CB70"/>
<path d="M20.355 72.2494H23.5742C23.7941 72.2494 23.9371 72.4808 23.8388 72.6775L23.3133 73.7285V79.6451L23.8388 80.6961C23.9371 80.8928 23.7941 81.1243 23.5742 81.1243H20.355V72.2494Z" fill="#68CB70"/>
<path d="M16.8708 19.4281C16.7725 19.2314 16.9155 19 17.1354 19H20.3546V27.8749H17.1354C16.9155 27.8749 16.7725 27.6434 16.8708 27.4467L17.3963 26.3957V20.4791L16.8708 19.4281Z" fill="#AEE280"/>
<path d="M16.8708 37.1786C16.7725 36.9819 16.9155 36.7505 17.1354 36.7505H20.3546V45.6254H17.1354C16.9155 45.6254 16.7725 45.3939 16.8708 45.1972L17.3963 44.1462V38.2296L16.8708 37.1786Z" fill="#AEE280"/>
<path d="M16.8713 54.9291C16.7729 54.7324 16.916 54.501 17.1359 54.501H20.3551V63.3758H17.1359C16.916 63.3758 16.7729 63.1444 16.8713 62.9477L17.3968 61.8967V55.9801L16.8713 54.9291Z" fill="#AEE280"/>
<path d="M16.8713 72.6775C16.7729 72.4808 16.916 72.2494 17.1359 72.2494H20.3551V81.1243H17.1359C16.916 81.1243 16.7729 80.8928 16.8713 80.6961L17.3968 79.6451V73.7285L16.8713 72.6775Z" fill="#AEE280"/>
<path d="M15.856 68.2305C17.1733 69.5479 16.4414 72.0363 16.4414 72.0363C16.4414 72.0363 13.9531 72.7681 12.6357 71.4508C11.3183 70.1334 11.6111 67.2059 11.6111 67.2059C11.6111 67.2059 14.5386 66.9132 15.856 68.2305Z" fill="#68CB70"/>
<path d="M15.856 75.6436C17.1733 74.3262 16.4414 71.8379 16.4414 71.8379C16.4414 71.8379 13.9531 71.106 12.6357 72.4234C11.3183 73.7407 11.6111 76.6682 11.6111 76.6682C11.6111 76.6682 14.5386 76.961 15.856 75.6436Z" fill="#68CB70"/>
<path d="M15.8555 32.7326C17.1728 34.05 16.441 36.5383 16.441 36.5383C16.441 36.5383 13.9526 37.2702 12.6352 35.9529C11.3179 34.6355 11.6106 31.708 11.6106 31.708C11.6106 31.708 14.5381 31.4152 15.8555 32.7326Z" fill="#68CB70"/>
<path d="M15.8555 40.1458C17.1728 38.8284 16.441 36.3401 16.441 36.3401C16.441 36.3401 13.9526 35.6082 12.6352 36.9256C11.3179 38.2429 11.6106 41.1704 11.6106 41.1704C11.6106 41.1704 14.5381 41.4632 15.8555 40.1458Z" fill="#68CB70"/>
<path d="M75.1818 46.2594C75.0839 46.0636 75.2263 45.8333 75.4452 45.8333L78.6494 45.8333L78.6494 54.6667L75.4452 54.6667C75.2263 54.6667 75.0839 54.4363 75.1818 54.2406L75.7049 53.1945L75.7049 47.3055L75.1818 46.2594Z" fill="#68CB70"/>
<path d="M75.1813 63.927C75.0834 63.7312 75.2258 63.5009 75.4447 63.5009L78.6489 63.5009L78.6489 72.3343L75.4447 72.3343C75.2258 72.3343 75.0834 72.104 75.1813 71.9082L75.7044 70.8621L75.7044 64.9731L75.1813 63.927Z" fill="#68CB70"/>
<path d="M75.1813 81.5926C75.0834 81.3969 75.2258 81.1665 75.4447 81.1665L78.6489 81.1665L78.6489 90L75.7044 90L75.7044 88.5277L75.7044 82.6387L75.1813 81.5926Z" fill="#68CB70"/>
<path d="M78.6487 45.8333L81.8529 45.8333C82.0717 45.8333 82.2141 46.0636 82.1162 46.2594L81.5932 47.3055L81.5932 53.1945L82.1162 54.2406C82.2141 54.4363 82.0717 54.6667 81.8529 54.6667L78.6487 54.6667L78.6487 45.8333Z" fill="#2DAC6C"/>
<path d="M78.6487 63.5009L81.8529 63.5009C82.0717 63.5009 82.2141 63.7312 82.1162 63.927L81.5932 64.9731L81.5932 70.8621L82.1162 71.9082C82.2141 72.104 82.0717 72.3343 81.8529 72.3343L78.6487 72.3343L78.6487 63.5009Z" fill="#2DAC6C"/>
<path d="M78.6482 81.1665L81.8524 81.1665C82.0713 81.1665 82.2136 81.3969 82.1157 81.5926L81.5927 82.6387L81.5927 88.5277L81.5927 90L78.6482 90L78.6482 81.1665Z" fill="#2DAC6C"/>
<path d="M78.6487 37.001L81.8529 37.001C82.0717 37.001 82.2141 37.2313 82.1162 37.4271L81.5932 38.4732L81.5932 44.3622L82.1162 45.4083C82.2141 45.6041 82.0717 45.8344 81.8529 45.8344L78.6487 45.8344L78.6487 37.001Z" fill="#68CB70"/>
<path d="M78.6482 54.6666L81.8524 54.6666C82.0713 54.6666 82.2136 54.897 82.1157 55.0928L81.5927 56.1389L81.5927 62.0278L82.1157 63.0739C82.2136 63.2697 82.0713 63.5001 81.8524 63.5001L78.6482 63.5001L78.6482 54.6666Z" fill="#68CB70"/>
<path d="M78.6487 72.3342L81.8529 72.3342C82.0717 72.3342 82.2141 72.5646 82.1162 72.7604L81.5932 73.8065L81.5932 79.6954L82.1162 80.7415C82.2141 80.9373 82.0717 81.1677 81.8529 81.1677L78.6487 81.1677L78.6487 72.3342Z" fill="#68CB70"/>
<path d="M75.1813 37.4261C75.0834 37.2304 75.2258 37 75.4447 37L78.6489 37L78.6489 45.8334L75.4447 45.8334C75.2258 45.8334 75.0834 45.6031 75.1813 45.4073L75.7044 44.3612L75.7044 38.4722L75.1813 37.4261Z" fill="#AEE280"/>
<path d="M75.1813 55.0928C75.0834 54.897 75.2258 54.6666 75.4447 54.6666L78.6489 54.6666L78.6489 63.5001L75.4447 63.5001C75.2258 63.5001 75.0834 63.2697 75.1813 63.0739L75.7044 62.0278L75.7044 56.1389L75.1813 55.0928Z" fill="#AEE280"/>
<path d="M75.1813 72.7594C75.0834 72.5636 75.2258 72.3333 75.4447 72.3333L78.6489 72.3333L78.6489 81.1667L75.4447 81.1667C75.2258 81.1667 75.0834 80.9363 75.1813 80.7406L75.7044 79.6945L75.7044 73.8055L75.1813 72.7594Z" fill="#AEE280"/>
<path d="M83.1272 68.3318C81.816 69.643 82.5444 72.1198 82.5444 72.1198C82.5444 72.1198 85.0212 72.8482 86.3324 71.537C87.6436 70.2258 87.3522 67.3119 87.3522 67.3119C87.3522 67.3119 84.4384 67.0206 83.1272 68.3318Z" fill="#68CB70"/>
<path d="M83.1272 75.7112C81.816 74.4 82.5444 71.9232 82.5444 71.9232C82.5444 71.9232 85.0212 71.1948 86.3324 72.506C87.6436 73.8172 87.3522 76.731 87.3522 76.731C87.3522 76.731 84.4384 77.0224 83.1272 75.7112Z" fill="#68CB70"/>
<path d="M43.4718 61.7063H63.7663L66.1487 90.1187H53.619H41.0894L43.4718 61.7063Z" fill="white"/>
<path d="M35.2351 84.0535C35.2351 79.4619 40.0671 76.4756 44.174 78.529L51.4437 82.1639C52.8663 82.8752 53.7649 84.3292 53.7649 85.9197C53.7649 88.2387 51.8849 90.1187 49.5658 90.1187H40.1764C37.4474 90.1187 35.2351 87.9064 35.2351 85.1775V84.0535Z" fill="#3A404A"/>
<path d="M73.7654 84.0535C73.7654 79.4619 68.9333 76.4756 64.8265 78.529L57.5568 82.1639C56.1342 82.8752 55.2356 84.3292 55.2356 85.9197C55.2356 88.2387 57.1156 90.1187 59.4347 90.1187H68.8241C71.5531 90.1187 73.7654 87.9064 73.7654 85.1775V84.0535Z" fill="#3A404A"/>
<path d="M63.032 64.7764C65.6805 68.3077 65.6805 77.136 61.2664 80.6673" stroke="#3A404A" stroke-width="10.594" stroke-linecap="round"/>
<path d="M45.4172 64.7764C42.7687 68.3077 42.7687 77.136 47.1829 80.6673" stroke="#3A404A" stroke-width="10.594" stroke-linecap="round"/>
<path d="M47.1418 64.7764C50.5297 68.1862 58.5829 68.1862 62.15 64.7764" stroke="#3A404A" stroke-width="7.06265" stroke-linecap="round"/>
<path d="M46.2333 51.9275C44.409 53.8886 41.1549 53.8271 38.9651 51.7901C36.7753 49.753 36.1118 46.9066 38.3033 44.5508C40.4948 42.1949 43.3816 42.6512 45.5714 44.6882C47.7612 46.7253 48.0576 49.9664 46.2333 51.9275Z" fill="#3A404A"/>
<path d="M62.8689 51.9408C64.7 53.9092 67.9596 53.8536 70.1494 51.8165C72.3392 49.7795 72.9985 46.9287 70.7989 44.564C68.5992 42.1994 65.7082 42.6512 63.5184 44.6882C61.3286 46.7253 61.0378 49.9723 62.8689 51.9408Z" fill="#3A404A"/>
<path d="M69.5139 56.7236C69.5139 63.6422 65.1151 67.4612 54.558 67.4612C44.0009 67.4612 39.6021 63.6422 39.6021 56.7236C39.6021 49.8051 44.3114 43.3016 54.558 43.3016C64.8046 43.3016 69.5139 49.8051 69.5139 56.7236Z" fill="white"/>
<path d="M64.2369 53.659C64.9171 55.6659 64.7688 57.5647 62.7481 58.3499C60.7275 59.1352 59.4763 57.7802 58.7961 55.7734C58.1159 53.7665 58.5938 51.7396 60.2848 51.0825C61.9759 50.4253 63.5566 51.6521 64.2369 53.659Z" fill="#3A404A"/>
<path d="M45.257 53.6607C44.5768 55.6676 44.7216 57.565 46.7322 58.3464C48.7428 59.1277 49.9905 57.7714 50.6707 55.7646C51.3509 53.7577 50.8782 51.7328 49.1955 51.0789C47.5128 50.425 45.9372 51.6539 45.257 53.6607Z" fill="#3A404A"/>
<path d="M56.2834 57.1065C56.2834 57.7419 55.3915 58.257 54.5575 58.257C53.7235 58.257 52.832 57.7419 52.832 57.1065C52.832 56.4711 53.0473 55.9561 54.5575 55.9561C56.0677 55.9561 56.2834 56.4711 56.2834 57.1065Z" fill="#3A404A"/>
<path d="M36.2169 105.792V106.964H31.5555V107.94C33.6648 108.083 34.9018 108.812 34.9148 110.036C34.9018 111.391 33.3784 112.146 30.8393 112.146C28.2742 112.146 26.7378 111.391 26.7378 110.036C26.7378 108.812 27.9878 108.077 30.1232 107.94V106.964H25.4878V105.792H36.2169ZM30.8393 109.034C29.1206 109.047 28.1961 109.385 28.2091 110.036C28.1961 110.687 29.1206 111.039 30.8393 111.039C32.519 111.039 33.4565 110.687 33.4695 110.036C33.4565 109.385 32.519 109.047 30.8393 109.034ZM35.2534 100.909V102.068H31.868C32.0958 103.038 33.5021 103.91 35.7091 104.112L35.2013 105.258C33.0659 105.043 31.4773 104.19 30.8393 102.992C30.2013 104.184 28.6388 105.043 26.5034 105.258L26.0086 104.112C28.1701 103.91 29.5763 103.025 29.8237 102.068H26.4643V100.909H35.2534ZM46.0544 100.388V105.245H47.7081V106.456H46.0544V112.159H44.5961V100.388H46.0544ZM36.6013 108.891C37.4932 108.891 38.5284 108.891 39.6091 108.865V107.758C38.3266 107.543 37.4867 106.736 37.4997 105.635C37.4867 104.307 38.6586 103.422 40.3513 103.422C42.018 103.422 43.2029 104.307 43.2159 105.635C43.2029 106.742 42.35 107.549 41.0674 107.758V108.812C42.057 108.76 43.0466 108.682 43.9711 108.552L44.0622 109.607C41.5362 110.062 38.8148 110.089 36.8096 110.089L36.6013 108.891ZM43.8409 101.742V102.888H36.8227V101.742H39.6091V100.44H41.0674V101.742H43.8409ZM40.3513 104.529C39.4529 104.542 38.8669 104.945 38.8669 105.635C38.8669 106.312 39.4529 106.716 40.3513 106.703C41.2367 106.716 41.8227 106.312 41.8227 105.635C41.8227 104.945 41.2367 104.542 40.3513 104.529ZM52.2461 101.13L49.2122 112.419H47.7539L50.8008 101.13H52.2461ZM63.2424 105.792V106.964H58.581V107.94C60.6904 108.083 61.9273 108.812 61.9404 110.036C61.9273 111.391 60.4039 112.146 57.8648 112.146C55.2997 112.146 53.7633 111.391 53.7633 110.036C53.7633 108.812 55.0133 108.077 57.1487 107.94V106.964H52.5133V105.792H63.2424ZM57.8648 109.034C56.1461 109.047 55.2216 109.385 55.2346 110.036C55.2216 110.687 56.1461 111.039 57.8648 111.039C59.5445 111.039 60.482 110.687 60.4951 110.036C60.482 109.385 59.5445 109.047 57.8648 109.034ZM62.2789 100.909V102.068H58.8935C59.1214 103.038 60.5276 103.91 62.7346 104.112L62.2268 105.258C60.0914 105.043 58.5029 104.19 57.8648 102.992C57.2268 104.184 55.6643 105.043 53.5289 105.258L53.0341 104.112C55.1956 103.91 56.6018 103.025 56.8492 102.068H53.4898V100.909H62.2789ZM73.2102 100.922V101.82C73.2102 102.699 73.2102 103.708 72.9628 105.023H74.5253V106.195H69.8508V108.031H73.2362V112.159H71.7909V109.19H64.8638V108.031H68.4055V106.195H63.7701V105.023H71.5044C71.7388 103.819 71.7648 102.901 71.7648 102.081H65.0982V100.922H73.2102Z" fill="#6C727E"/>
</svg>
