<svg width="100" height="116" viewBox="0 0 100 116" fill="none" xmlns="http://www.w3.org/2000/svg">
<path d="M49.9998 30C49.9998 30 52.8893 33.5804 55.3075 35.3077C59.0657 37.9921 61.8404 42.1105 61.0812 46.666L60.6152 49.4615H39.3845L38.9185 46.666C38.1593 42.1105 40.934 37.9921 44.6922 35.3077C47.1104 33.5804 49.9998 30 49.9998 30Z" fill="#FFD587"/>
<path d="M33.6346 44.1543C33.6346 44.1543 35.1825 46.1072 36.478 47.0494C38.4905 48.513 39.9826 50.7305 39.5806 53.1862L39.3214 54.7697H27.9478L27.6886 53.1862C27.2866 50.7305 28.7788 48.513 30.7912 47.0494C32.0867 46.1072 33.6346 44.1543 33.6346 44.1543Z" fill="#FFD587"/>
<path d="M21 28C21 28 22.1665 29.8397 23.1429 30.7273C24.6453 32.0931 25.8228 33.8984 25.5592 35.9117L25.2857 38H16.7143L16.4408 35.9117C16.1772 33.8984 17.3547 32.0931 18.8571 30.7273C19.8335 29.8397 21 28 21 28Z" fill="#FFD587"/>
<path d="M79 28C79 28 80.1665 29.8397 81.1429 30.7273C82.6453 32.0931 83.8228 33.8984 83.5592 35.9117L83.2857 38H74.7143L74.4408 35.9117C74.1772 33.8984 75.3547 32.0931 76.8571 30.7273C77.8335 29.8397 79 28 79 28Z" fill="#FFD587"/>
<path d="M66.3656 43.2695C66.3656 43.2695 67.9135 45.2225 69.209 46.1646C71.2214 47.6282 72.7136 49.8457 72.3116 52.3014L72.0524 53.8849H60.6788L60.4196 52.3014C60.0176 49.8457 61.5097 47.6282 63.5222 46.1646C64.8177 45.2225 66.3656 43.2695 66.3656 43.2695Z" fill="#FFD587"/>
<rect x="39.3848" y="49.4619" width="21.2308" height="4.42308" fill="#FFB12E"/>
<rect x="73" y="38" width="12" height="4" rx="2" fill="#FFD587"/>
<rect x="27.8848" y="53.8848" width="44.2308" height="30.0769" fill="#FFD587"/>
<rect x="17" y="38" width="8" height="46" fill="#FFD587"/>
<rect x="75" y="38" width="8" height="46" fill="#FFD587"/>
<rect x="33.1924" y="55.6543" width="34.5" height="26.5385" fill="#FFD587"/>
<path d="M32.3076 67.154C32.3076 66.1769 33.0997 65.3848 34.0768 65.3848C35.054 65.3848 35.8461 66.1769 35.8461 67.154V69.8004C35.8461 70.2931 35.4467 70.6925 34.954 70.6925H33.1997C32.707 70.6925 32.3076 70.2931 32.3076 69.8004V67.154Z" fill="#EB9E40"/>
<path d="M65.0386 67.154C65.0386 66.1769 65.8307 65.3848 66.8078 65.3848C67.7849 65.3848 68.577 66.1769 68.577 67.154V69.8004C68.577 70.2931 68.1777 70.6925 67.685 70.6925H65.9306C65.438 70.6925 65.0386 70.2931 65.0386 69.8004V67.154Z" fill="#EB9E40"/>
<path d="M32.3076 76.8854C32.3076 75.9083 33.0997 75.1162 34.0768 75.1162C35.054 75.1162 35.8461 75.9083 35.8461 76.8854V79.5319C35.8461 80.0245 35.4467 80.4239 34.954 80.4239H33.1997C32.707 80.4239 32.3076 80.0245 32.3076 79.5319V76.8854Z" fill="#EB9E40"/>
<path d="M65.0386 76.8854C65.0386 75.9083 65.8307 75.1162 66.8078 75.1162C67.7849 75.1162 68.577 75.9083 68.577 76.8854V79.5319C68.577 80.0245 68.1777 80.4239 67.685 80.4239H65.9306C65.438 80.4239 65.0386 80.0245 65.0386 79.5319V76.8854Z" fill="#EB9E40"/>
<path d="M49.603 61.1611C49.8527 61.0357 50.1469 61.0357 50.3966 61.1611L50.7351 61.3309C54.6226 63.282 57.0767 67.2595 57.0767 71.6091V83.9619H42.9229V71.6091C42.9229 67.2595 45.3769 63.282 49.2645 61.3309L49.603 61.1611Z" fill="#EB9E40"/>
<path d="M14 88C14 85.7909 15.7909 84 18 84H83C85.2091 84 87 85.7909 87 88V90H14V88Z" fill="#EB9E40"/>
<rect x="15" y="38" width="12" height="4" rx="2" fill="#FFD587"/>
<rect x="15" y="58" width="12" height="4" rx="2" fill="#FFB12E"/>
<rect x="73" y="58" width="12" height="4" rx="2" fill="#FFB12E"/>
<path d="M48.8052 100.401V108.904H47.3469V100.401H48.8052ZM49.1307 110.753V111.924H41.0187V108.044H42.4771V110.753H49.1307ZM42.3859 101.169C44.1698 101.169 45.55 102.406 45.55 104.112C45.55 105.857 44.1698 107.068 42.3859 107.068C40.5891 107.068 39.2089 105.857 39.2089 104.112C39.2089 102.406 40.5891 101.169 42.3859 101.169ZM42.3859 102.432C41.3833 102.432 40.6151 103.096 40.6281 104.112C40.6151 105.154 41.3833 105.805 42.3859 105.805C43.3625 105.805 44.1307 105.154 44.1307 104.112C44.1307 103.096 43.3625 102.432 42.3859 102.432ZM59.8146 105.74V106.885H56.325V109.581H61.0125V110.766H50.2573V109.581H54.8927V106.885H51.5594V101.26H59.7234V102.419H53.0047V105.74H59.8146Z" fill="#6C727E"/>
</svg>
