<svg width="100" height="117" viewBox="0 0 100 117" fill="none" xmlns="http://www.w3.org/2000/svg">
<rect x="26" y="74" width="26" height="13" fill="#FF6E62"/>
<rect x="28" y="55" width="22" height="11" fill="#FF6E62"/>
<rect x="30" y="42" width="18" height="7" fill="#FF6E62"/>
<path d="M36 81C36 79.8954 36.8954 79 38 79H40C41.1046 79 42 79.8954 42 81V87H36V81Z" fill="#3A404A"/>
<path d="M45 79C45 78.4477 45.4477 78 46 78H47C47.5523 78 48 78.4477 48 79V80C48 80.5523 47.5523 81 47 81H46C45.4477 81 45 80.5523 45 80V79Z" fill="white"/>
<path d="M30 79C30 78.4477 30.4477 78 31 78H32C32.5523 78 33 78.4477 33 79V80C33 80.5523 32.5523 81 32 81H31C30.4477 81 30 80.5523 30 80V79Z" fill="white"/>
<path d="M31 61.5C31 60.9477 31.4477 60.5 32 60.5H33C33.5523 60.5 34 60.9477 34 61.5V62.5C34 63.0523 33.5523 63.5 33 63.5H32C31.4477 63.5 31 63.0523 31 62.5V61.5Z" fill="white"/>
<path d="M33 45.8571C33 45.3838 33.3838 45 33.8571 45H34.7143C35.1877 45 35.5714 45.3838 35.5714 45.8571V46.7143C35.5714 47.1877 35.1877 47.5714 34.7143 47.5714H33.8571C33.3838 47.5714 33 47.1877 33 46.7143V45.8571Z" fill="white"/>
<path d="M37.5 61.5C37.5 60.9477 37.9477 60.5 38.5 60.5H39.5C40.0523 60.5 40.5 60.9477 40.5 61.5V62.5C40.5 63.0523 40.0523 63.5 39.5 63.5H38.5C37.9477 63.5 37.5 63.0523 37.5 62.5V61.5Z" fill="white"/>
<path d="M37.7144 45.8571C37.7144 45.3838 38.0981 45 38.5715 45H39.4286C39.902 45 40.2858 45.3838 40.2858 45.8571V46.7143C40.2858 47.1877 39.902 47.5714 39.4286 47.5714H38.5715C38.0981 47.5714 37.7144 47.1877 37.7144 46.7143V45.8571Z" fill="white"/>
<path d="M44 61.5C44 60.9477 44.4477 60.5 45 60.5H46C46.5523 60.5 47 60.9477 47 61.5V62.5C47 63.0523 46.5523 63.5 46 63.5H45C44.4477 63.5 44 63.0523 44 62.5V61.5Z" fill="white"/>
<path d="M42.4287 45.8571C42.4287 45.3838 42.8125 45 43.2859 45H44.143C44.6164 45 45.0001 45.3838 45.0001 45.8571V46.7143C45.0001 47.1877 44.6164 47.5714 44.143 47.5714H43.2859C42.8125 47.5714 42.4287 47.1877 42.4287 46.7143V45.8571Z" fill="white"/>
<rect x="26" y="74" width="26" height="2" fill="#FC5C4E"/>
<rect x="28" y="57" width="22" height="2" fill="#FC5C4E"/>
<rect x="30" y="42" width="18" height="2" fill="#FC5C4E"/>
<path d="M18.2511 72.4529C17.7092 71.8791 18.0103 70.9169 18.7742 70.7186C20.0128 70.397 21.6372 69.8997 22.75 69.2753C24.7766 68.1382 28 65.3047 28 65.3047H39.5H50C50 65.3047 52.5711 68.1382 55.5 69.2753C56.9965 69.8563 58.3996 70.3273 59.414 70.649C60.1317 70.8766 60.3786 71.7862 59.8616 72.3335L59.1839 73.0512C58.4282 73.8513 57.3763 74.3047 56.2758 74.3047H21.7242C20.6237 74.3047 19.5718 73.8513 18.8161 73.0512L18.2511 72.4529Z" fill="#3A404A"/>
<path d="M20.2704 55.5609C19.729 54.9709 20.0637 54.0004 20.8475 53.8359C22.2048 53.5511 23.9781 53.0999 24.9659 52.5294C26.7161 51.5186 30 49 30 49H39.4318H48C48 49 50.7205 51.5186 53.25 52.5294C54.5878 53.064 56.1188 53.4938 57.2645 53.7801C58.0216 53.9694 58.3237 54.9135 57.7961 55.4885L57.3007 56.0283C56.7325 56.6475 55.9307 57 55.0903 57H22.9097C22.0693 57 21.2675 56.6475 20.6993 56.0283L20.2704 55.5609Z" fill="#3A404A"/>
<path d="M23.5659 40.4422C23.2968 40.0781 23.4833 39.5521 23.918 39.4255C24.8611 39.1509 26.3739 38.664 27.6957 38.0294C29.8011 37.0186 38 31 38 31H39H40C40 31 48.4407 37.0186 50.4783 38.0294C51.7449 38.6578 53.1842 39.1414 54.0919 39.4174C54.5238 39.5487 54.7067 40.0732 54.4384 40.4362C53.4791 41.7342 51.9608 42.5 50.3467 42.5H27.6459C26.0365 42.5 24.5226 41.7364 23.5659 40.4422Z" fill="#3A404A"/>
<rect x="38.5" y="11" width="1" height="20" rx="0.5" fill="#3A404A"/>
<rect x="41" y="24" width="1" height="4" rx="0.5" transform="rotate(90 41 24)" fill="#3A404A"/>
<rect x="41" y="21" width="1" height="4" rx="0.5" transform="rotate(90 41 21)" fill="#3A404A"/>
<rect x="41" y="18" width="1" height="4" rx="0.5" transform="rotate(90 41 18)" fill="#3A404A"/>
<path d="M38 30C38 29.4477 38.4477 29 39 29C39.5523 29 40 29.4477 40 30V31H38V30Z" fill="#FC5C4E"/>
<path d="M38 14C38 13.4477 38.4477 13 39 13C39.5523 13 40 13.4477 40 14V15C40 15.5523 39.5523 16 39 16C38.4477 16 38 15.5523 38 15V14Z" fill="#3A404A"/>
<rect x="24" y="87" width="30" height="3" rx="1.5" fill="#3A404A"/>
<rect x="65" y="59" width="8" height="8" fill="#FF6E62"/>
<rect x="66.5" y="59" width="5" height="7" fill="white"/>
<rect x="64" y="67" width="10" height="2" rx="1" fill="#3A404A"/>
<path d="M66.2127 55.2528C66.3958 55.09 66.6323 55 66.8774 55H71.1226C71.3677 55 71.6042 55.09 71.7873 55.2528L74.0357 57.2528C74.7227 57.8638 74.2905 59 73.3711 59H64.6289C63.7095 59 63.2773 57.8638 63.9643 57.2528L66.2127 55.2528Z" fill="#3A404A"/>
<rect x="70" y="69" width="16" height="2" transform="rotate(90 70 69)" fill="#FC5C4E"/>
<rect x="66.5" y="85" width="5" height="5" rx="1" fill="#3A404A"/>
<path d="M68 54C68 53.4477 68.4477 53 69 53C69.5523 53 70 53.4477 70 54V55H68V54Z" fill="#3A404A"/>
<path d="M41.8105 100.254C43.6836 100.254 45.0781 101.416 45.0918 103.043C45.0781 104.684 43.6836 105.832 41.8105 105.832C39.9238 105.832 38.5293 104.684 38.5293 103.043C38.5293 101.416 39.9238 100.254 41.8105 100.254ZM41.8105 101.512C40.7715 101.512 40.0059 102.1 40.0059 103.043C40.0059 104 40.7715 104.602 41.8105 104.602C42.8496 104.602 43.6152 104 43.6152 103.043C43.6152 102.1 42.8496 101.512 41.8105 101.512ZM48.6055 99.8574V106.105H47.0742V99.8574H48.6055ZM48.6055 106.639V109.865H41.9199V110.863H48.9746V112.066H40.4297V108.744H47.0879V107.828H40.4023V106.639H48.6055ZM53.377 100.322V101.662H58.709V100.322H60.2129V105.34H56.7949V106.475H61.6758V107.705H50.4102V106.475H55.2637V105.34H51.873V100.322H53.377ZM53.377 104.123H58.709V102.838H53.377V104.123ZM60.4043 110.74V111.971H51.8047V108.498H53.3223V110.74H60.4043Z" fill="#6C727E"/>
</svg>
