<svg width="100" height="116" viewBox="0 0 100 116" fill="none" xmlns="http://www.w3.org/2000/svg">
<path d="M68.7119 21.3889C67.5883 20.0899 65.6056 19.9976 64.3662 21.1866L38.5 46H90L68.7119 21.3889Z" fill="#AEE280"/>
<path d="M38.4581 17.1105C37.201 15.9591 35.2382 16.0853 34.1389 17.3883L10 46H70L38.4581 17.1105Z" fill="#2DAC6C"/>
<path d="M38.5 17L70 46H23L32.5 38.4348L31.5 30.4493L39.5 26.6667L38.5 17Z" fill="#68CB70"/>
<path d="M44.0392 40.1801C47.7823 38.2647 52.2177 38.2647 55.9608 40.1801L76.8221 50.8549C78.1589 51.539 79 52.9141 79 54.4158V71.9468C79 76.3942 75.3947 79.9994 70.9474 79.9994H29.0526C24.6053 79.9994 21 76.3942 21 71.9468V54.4158C21 52.9141 21.8411 51.539 23.1779 50.8549L44.0392 40.1801Z" fill="#DADFE7"/>
<path d="M47.5 41L70.9999 55C70.9999 55 60.5 56.5 44.9999 56C29.4997 55.5 21 54 21 54C21 54 20.9999 52.5 22.5 51C24.0001 49.5 42 41 42 41H47.5Z" fill="#EBEEF3"/>
<path d="M21 54C21 54 31 56.001 50 56.001C69 56.001 79 54 79 54V77C79 78.6569 77.6569 80 76 80H24C22.3431 80 21 78.6569 21 77V54Z" fill="#FBFCFD"/>
<path d="M21 74C21 74 30 77.5 50 77.5C70 77.5 79 74.0003 79 74.0003V77.7371C79 79.0765 78.116 80.2431 76.8069 80.5263C72.8303 81.3868 63.566 83 50 83C36.434 83 27.1697 81.3868 23.1931 80.5263C21.884 80.2431 21 79.0765 21 77.7371V74Z" fill="#FF6E62"/>
<path d="M44.1411 39.9284C47.8242 38.0849 52.1604 38.0832 55.8451 39.9236L58 41H42L44.1411 39.9284Z" fill="#6C727E"/>
<rect x="45" y="33" width="2" height="8" fill="#6C727E"/>
<rect x="42" y="58" width="16" height="22" rx="4" fill="#FF6E62"/>
<path d="M45 63.6667C45 62.1939 46.1939 61 47.6667 61H52.3333C53.8061 61 55 62.1939 55 63.6667V74.3333C55 75.8061 53.8061 77 52.3333 77H50H47.6667C46.1939 77 45 75.8061 45 74.3333V63.6667Z" fill="#FFD350"/>
<rect x="47" y="64" width="2" height="2" rx="0.625238" fill="#FF6E62"/>
<rect x="47" y="68" width="2" height="2" rx="0.625238" fill="#FF6E62"/>
<rect x="47" y="72" width="2" height="2" rx="0.625238" fill="#FF6E62"/>
<rect x="51" y="64" width="2" height="2" rx="0.625238" fill="#FF6E62"/>
<rect x="51" y="68" width="2" height="2" rx="0.625238" fill="#FF6E62"/>
<rect x="51" y="72" width="2" height="2" rx="0.625238" fill="#FF6E62"/>
<path d="M48.3625 100.883V104.919H45.0812V106.026H49.7297V107.172H39.0005V106.026H43.6229V104.919H40.3547V100.883H48.3625ZM41.7609 102.016V103.773H46.9302V102.016H41.7609ZM44.3521 107.927C46.8911 107.914 48.4146 108.669 48.4276 110.036C48.4146 111.391 46.8911 112.159 44.3521 112.159C41.787 112.159 40.2505 111.391 40.2505 110.036C40.2505 108.669 41.787 107.914 44.3521 107.927ZM44.3521 109.021C42.6333 109.021 41.7089 109.359 41.7219 110.036C41.7089 110.714 42.6333 111.039 44.3521 111.039C46.0318 111.039 46.9693 110.714 46.9823 110.036C46.9693 109.359 46.0318 109.021 44.3521 109.021ZM59.6583 100.844V101.573C59.6583 102.289 59.6583 103.214 59.45 104.372L58.0177 104.242C58.174 103.324 58.2065 102.608 58.213 101.99H51.5073V100.844H59.6583ZM60.9604 104.906V106.039H50.2833V104.906H54.424V103.07H55.8563V104.906H60.9604ZM59.6844 106.885V109.919H52.9526V110.909H59.9839V112.042H51.5073V108.93H58.2391V108.044H51.4943V106.885H59.6844Z" fill="#6C727E"/>
</svg>
