<svg width="100" height="116" viewBox="0 0 100 116" fill="none" xmlns="http://www.w3.org/2000/svg">
<path d="M90 71.2981H76.9271V89.9994H90V71.2981Z" fill="#FFF5C9"/>
<path d="M76.9888 54H61.9754V90H76.9888V54Z" fill="#FFF5C9"/>
<path d="M63.9766 62.7266H26.9435V89.9993H63.9766V62.7266Z" fill="#FFF5C9"/>
<path d="M27.0151 74.5002H18.0071V89.9998H27.0151V74.5002Z" fill="#FFF5C9"/>
<path d="M18.0073 71.4543H10.0002V89.9998H18.0073V71.4543Z" fill="#FFF5C9"/>
<path d="M47.9343 42.4304H51.6705V44.2985C51.6705 45.3302 50.8342 46.1666 49.8024 46.1666C48.7707 46.1666 47.9343 45.3302 47.9343 44.2985V42.4304Z" fill="#FFD587"/>
<path d="M41.7923 50.9165C40.6822 47.6718 43.0937 44.2981 46.5231 44.2981H55.5937L45.5994 62.0451L41.7923 50.9165Z" fill="#FFD587"/>
<path d="M58.4838 49.5007C59.3377 47.0048 57.4062 44.434 54.7713 44.5593L45.5 45.0002L49.3096 53.4725L51.2814 61.3596L54.1923 62.0451L58.4838 49.5007Z" fill="#FFB12E"/>
<path d="M57.2744 44.2981L44.5 45.0002L50.7361 55.9737L57.2744 44.2981Z" fill="#FFD587"/>
<path d="M36 65.1612C36 63.0931 37.7313 61.4462 39.7968 61.5495L49.8025 62.0497L59.8081 61.5495C61.8737 61.4462 63.605 63.0931 63.605 65.1612C63.605 66.8731 62.2172 68.2609 60.5053 68.2609H39.0997C37.3878 68.2609 36 66.8731 36 65.1612Z" fill="#FFB12E"/>
<path d="M40.7383 68.2607C40.2947 68.2607 40.1536 67.6627 40.5503 67.4644L44.8731 65.303V68.2607H40.7383Z" fill="#FFD587"/>
<path d="M61.3664 56.7483C59.9829 52.2927 58.6765 47.1003 58.6765 47.1003L54.4733 49.9025L57.847 57.4933C58.0498 57.9497 57.8578 58.4848 57.4112 58.7081L51.6711 61.5781L52.6052 62.9792L58.3342 61.9376C60.674 61.5122 62.0716 59.0195 61.3664 56.7483Z" fill="#FFB12E"/>
<path d="M56.7318 49.2438C56.4724 49.3709 56.2343 49.5373 56.0258 49.7371L46.8977 58.4849C46.0084 59.3372 46.1729 60.8018 47.2291 61.4355L49.8021 62.9793L60.0669 53.1422C60.6336 52.5991 60.8004 51.7596 60.4843 51.0412L59.9522 49.8317C59.5245 48.8598 58.3738 48.4393 57.4203 48.9065L56.7318 49.2438Z" fill="#E23A2B"/>
<path d="M54.1041 43.8313C53.1672 43.8313 52.2923 44.2995 51.7726 45.0791L43.9719 56.7801C43.545 57.4205 43.5545 58.2571 43.9958 58.8876L46.5331 62.5123L59.0779 50.5343C60.0017 49.6522 60.2122 48.2571 59.5896 47.1418L58.8107 45.7465C58.1507 44.564 56.9025 43.8313 55.5484 43.8313H54.1041Z" fill="#FD5243"/>
<path d="M38.8039 56.7822C40.3177 52.4508 41.863 47.4998 41.863 47.4998L45.5992 49.9024L42.2475 57.4438C42.036 57.9197 42.2544 58.4766 42.7331 58.6817L48.4014 61.111L47.4673 62.9791L41.7383 61.9374C39.3985 61.512 38.0193 59.0272 38.8039 56.7822Z" fill="#FFD587"/>
<path d="M47.468 62.9787L48.4021 61.1106L49.7502 61.6242C50.1411 61.7731 50.5765 61.7514 50.9506 61.5643L51.4997 61.2898C51.7181 61.1806 51.9801 61.2086 52.1705 61.3615C52.4856 61.6146 52.4813 62.0957 52.1617 62.3431L51.5582 62.8102C51.0334 63.2165 50.3664 63.3928 49.7094 63.2989L47.468 62.9787Z" fill="#FFD587"/>
<path d="M49.8054 25.3899C57.2621 25.3901 59.0057 29.7841 58.6268 33.6955C58.5194 34.8048 58.0638 35.844 57.5815 36.8487C55.8129 40.5324 55.736 42.2683 56.0325 43.5783C56.1349 44.0308 55.6372 44.3308 55.3177 43.9945L49.8054 38.1921L44.2932 43.9944C43.9737 44.3307 43.4175 44.0119 43.4789 43.5522C43.6596 42.1991 43.412 40.3849 41.7511 36.4543C41.4391 35.716 41.152 34.9593 41.0383 34.1658C40.4562 30.1019 42.0386 25.3896 49.8054 25.3899Z" fill="#FFB12E"/>
<path d="M55.3444 37.0733C55.3444 40.0306 53.6842 43.7279 49.8022 43.7279C45.9203 43.7279 44.2601 40.0306 44.2601 37.0733C44.2601 34.116 43.925 30.4187 49.8022 30.4187C55.6795 30.4187 55.3444 34.116 55.3444 37.0733Z" fill="#FFD587"/>
<ellipse cx="49.9588" cy="33.7024" rx="0.711234" ry="1.06685" fill="#FFB12E"/>
<ellipse cx="49.8054" cy="25.3894" rx="2.84494" ry="1.77809" fill="#FFB12E"/>
<ellipse cx="49.8055" cy="23.969" rx="1.42247" ry="1.06685" fill="#FFB12E"/>
<path d="M49.6052 17.6963C49.6321 17.4636 49.9701 17.4636 49.9969 17.6963L50.6549 23.3942H48.9473L49.6052 17.6963Z" fill="#FFB12E"/>
<rect x="40.1914" y="70.7803" width="20.5214" height="15.7469" fill="#FF6E62"/>
<rect x="39" y="85.3372" width="22.7368" height="5.05263" rx="1.61684" fill="#FD5243"/>
<rect x="39.3374" y="68" width="22.2316" height="5.05263" rx="1.61684" fill="#FFD587"/>
<path d="M39.3374 69.6168C39.3374 68.7239 40.0613 68 40.9542 68H46.4111V73.0526H40.9542C40.0613 73.0526 39.3374 72.3287 39.3374 71.4358V69.6168Z" fill="#FFC252"/>
<rect x="40.3469" y="73.0527" width="6.06315" height="14.1474" fill="#FD5243"/>
<path d="M32.8576 106.026V107.185H22.1154V106.026H26.7768V104.906H23.4305V100.922H31.5555V102.055H24.8758V103.76H31.6206V104.906H28.1961V106.026H32.8576ZM27.4669 107.862C30.006 107.862 31.5294 108.63 31.5424 110.01C31.5294 111.378 30.006 112.159 27.4669 112.159C24.9018 112.159 23.3654 111.378 23.3654 110.01C23.3654 108.63 24.9018 107.862 27.4669 107.862ZM27.4669 108.969C25.7482 108.969 24.8237 109.333 24.8367 110.01C24.8237 110.687 25.7482 111.039 27.4669 111.039C29.1466 111.039 30.0841 110.687 30.0971 110.01C30.0841 109.333 29.1466 108.969 27.4669 108.969ZM42.656 100.401V102.953H44.3096V104.151H42.656V107.029H41.2107V100.401H42.656ZM42.656 107.602V112.003H35.0388V107.602H42.656ZM36.4581 108.734V110.857H41.2367V108.734H36.4581ZM35.3383 100.974V105.115C36.8487 105.102 38.4372 104.965 40.156 104.633L40.3253 105.818C38.3721 106.208 36.5622 106.312 34.8565 106.312H33.8799V100.974H35.3383ZM47.793 101.247C49.5638 101.247 50.8398 102.862 50.8529 105.401C50.8398 107.966 49.5638 109.568 47.793 109.568C46.0091 109.568 44.7201 107.966 44.7331 105.401C44.7201 102.862 46.0091 101.247 47.793 101.247ZM47.793 102.549C46.8034 102.549 46.1263 103.604 46.1263 105.401C46.1263 107.211 46.8034 108.266 47.793 108.266C48.7956 108.266 49.4596 107.211 49.4596 105.401C49.4596 103.604 48.7956 102.549 47.793 102.549ZM53.8477 100.388V104.906H55.6576V106.13H53.8477V112.159H52.4023V100.388H53.8477ZM60.3388 103.214C60.3258 105.375 61.4586 107.536 63.3727 108.357L62.5133 109.516C61.1591 108.891 60.163 107.641 59.6227 106.104C59.0823 107.764 58.0732 109.118 56.6409 109.789L55.7555 108.578C57.7216 107.732 58.8675 105.479 58.8675 103.214V101.339H60.3388V103.214ZM65.6773 100.388V112.172H64.219V100.388H65.6773ZM70.3065 101.247C72.0773 101.247 73.3534 102.862 73.3664 105.401C73.3534 107.966 72.0773 109.568 70.3065 109.568C68.5227 109.568 67.2336 107.966 67.2466 105.401C67.2336 102.862 68.5227 101.247 70.3065 101.247ZM70.3065 102.549C69.3169 102.549 68.6398 103.604 68.6398 105.401C68.6398 107.211 69.3169 108.266 70.3065 108.266C71.3091 108.266 71.9732 107.211 71.9732 105.401C71.9732 103.604 71.3091 102.549 70.3065 102.549ZM76.3612 100.388V104.906H78.1711V106.13H76.3612V112.159H74.9159V100.388H76.3612Z" fill="#6C727E"/>
</svg>
