<svg width="200" height="200" viewBox="0 0 200 200" fill="none" xmlns="http://www.w3.org/2000/svg">
<path d="M27.8143 106.467C26.8805 102.109 30.2024 98 34.6589 98H118.52C122.27 98 125.516 100.604 126.33 104.264L140.5 168H41L27.8143 106.467Z" fill="#64B5F6"/>
<path d="M38.1039 110.087C37.5475 107.588 39.4485 105.217 42.0082 105.217H113.652C115.522 105.217 117.143 106.513 117.554 108.338L131 168H51L38.1039 110.087Z" fill="white"/>
<path d="M41.0654 168H164.077C165.129 168 165.941 168.928 165.8 169.971L165.128 174.971C164.664 178.423 161.717 181 158.234 181H48.8973C45.4137 181 42.4672 178.423 42.0028 174.971L41.0654 168Z" fill="#1E88E5"/>
<path d="M60.0654 168H165.076C166.129 168 166.94 168.928 166.799 169.972L166.124 174.974C165.659 178.425 162.713 181 159.23 181H67.9005C64.418 181 61.4721 178.425 61.0064 174.974L60.0654 168Z" fill="#42A5F5"/>
<path d="M99.0654 168H127.065C126.805 170.832 124.43 173 121.585 173H104.545C101.701 173 99.3255 170.832 99.0654 168Z" fill="#1E88E5"/>
<path d="M61.5532 153.213C60.7642 150.057 63.151 147 66.4039 147H108.096C110.39 147 112.39 148.561 112.947 150.787C113.736 153.943 111.349 157 108.096 157H66.4039C64.1095 157 62.1096 155.439 61.5532 153.213Z" fill="#BBDEFB"/>
<path d="M96.297 153.36C95.3954 150.169 97.7928 147 101.109 147H108.891C111.129 147 113.094 148.487 113.703 150.64C114.605 153.831 112.207 157 108.891 157H101.109C98.8708 157 96.9055 155.513 96.297 153.36Z" fill="#42A5F5"/>
<path d="M152.573 50.9988C139.318 50.9989 128.573 60.4009 128.573 71.9988C128.573 77.2322 130.762 82.0181 134.381 85.6951L132.609 91.2596C132.376 91.9909 133.107 92.6597 133.814 92.3631L139.877 89.8201C143.56 91.8332 147.911 92.9988 152.573 92.9988C165.828 92.9988 176.573 83.5967 176.573 71.9988C176.573 60.4009 165.828 50.9988 152.573 50.9988Z" fill="#64B5F6"/>
<circle cx="3" cy="3" r="3" transform="matrix(-1 0 0 1 167.571 69.0002)" fill="white"/>
<circle cx="3" cy="3" r="3" transform="matrix(-1 0 0 1 155.571 69)" fill="white"/>
<circle cx="3" cy="3" r="3" transform="matrix(-1 0 0 1 143.571 69)" fill="white"/>
<path d="M101.569 24.999C112.931 24.999 122.141 33.0579 122.141 42.999C122.141 47.4849 120.264 51.5865 117.162 54.7383L118.682 59.5088C118.881 60.1355 118.254 60.7085 117.647 60.4541L112.452 58.2744C109.295 60 105.566 60.999 101.569 60.999C90.2081 60.999 80.998 52.9401 80.998 42.999C80.998 33.0579 90.2081 24.9991 101.569 24.999Z" fill="#64B5F6"/>
<circle cx="91.2853" cy="43.0001" r="2.57143" fill="white"/>
<circle cx="101.571" cy="43" r="2.57143" fill="white"/>
<circle cx="111.857" cy="43" r="2.57143" fill="white"/>
</svg>
