<svg width="200" height="200" viewBox="0 0 200 200" fill="none" xmlns="http://www.w3.org/2000/svg">
<path d="M26 72L75.2308 79.6923V172L26 164.308V72Z" fill="#E3F2FD"/>
<path d="M33 79L75 85.6154V165L33 158.385V79Z" fill="#E3F2FD"/>
<path d="M75.2305 172L124.461 164.308V72L75.2305 79.6923V172Z" fill="#E3F2FD"/>
<path d="M173.691 172L124.461 164.308V72L173.691 79.6923V172Z" fill="#E3F2FD"/>
<path d="M124 78L75 85.6154V165L124 156.385V78Z" fill="#E3F2FD"/>
<path d="M124 78L166 84.5385V163L124 156.462V78Z" fill="#E3F2FD"/>
<path d="M148 82L166 84.5V129L142 119L148 82Z" fill="#90CAF9"/>
<path d="M75 145L87.5 163L75 165V145Z" fill="#42A5F5"/>
<path d="M33 111H47.5L75 145V165L33 158.5V111Z" fill="#64B5F6"/>
<path d="M124 101.5L140.5 98L137.5 119.5L124 123.5V101.5Z" fill="#BBDEFB"/>
<path d="M104.5 103.5L124 101.5V123.5L114 126L104.5 103.5Z" fill="#90CAF9"/>
<path d="M124 128L140 123.5L166 134.5V163L124 156.5V128Z" fill="#BBDEFB"/>
<path d="M124 78L143 81L141 93L124 96.5V78Z" fill="#BBDEFB"/>
<path d="M31.5 79L75 85.5V137L31.5 79Z" fill="#BBDEFB"/>
<path d="M33 107V91L45 107H33Z" fill="#90CAF9"/>
<path d="M79 142L124 128V156.5L92 162L79 142Z" fill="#64B5F6"/>
<path d="M75 85.5L85.5 84.5L99.5 102.5L110 127L75 137V85.5Z" fill="#90CAF9"/>
<path d="M91 83.5L124 78V96.5L102.5 99L91 83.5Z" fill="#64B5F6"/>
<path d="M118 45.2934C118 56.0311 105.637 67.1835 101.403 70.6881C100.578 71.3707 99.4219 71.3707 98.5973 70.6881C94.3632 67.1835 82 56.0311 82 45.2934C82 35.7425 90.0589 28 100 28C109.941 28 118 35.7425 118 45.2934Z" fill="#2196F3"/>
<circle cx="100" cy="46" r="7" fill="white"/>
</svg>
