<svg width="194" height="210" viewBox="0 0 194 210" fill="none" xmlns="http://www.w3.org/2000/svg">
<path d="M16.9546 22.5991C27.5461 12.1978 41.7975 6.37012 56.6423 6.37012H104.439L146.845 63.4876C149.717 67.3566 154.252 69.6375 159.071 69.6375V69.6375C172.247 69.6375 179.203 85.2377 170.398 95.0397L145.442 122.821C140.186 128.672 137.279 136.259 137.279 144.125V153.169C137.279 164.847 133.594 176.227 126.75 185.688L120.434 194.419C113.526 203.968 102.456 209.623 90.6702 209.623V209.623C70.3818 209.623 53.9348 193.176 53.9348 172.887V129.603C53.9348 112.481 43.1225 97.2265 26.9674 91.5553L25.3915 91.0021C10.1805 85.6623 0 71.2989 0 55.1778V55.1778C0 44.9889 4.09517 35.2276 11.3648 28.0885L16.9546 22.5991Z" fill="#F3F5F9"/>
<path d="M102.498 14.167L136.685 90H88.9727L102.498 14.167Z" fill="#FFD587"/>
<path d="M102.497 14.167L88.9722 89.9999H68.6851L102.497 14.167Z" fill="#FFB12E"/>
<path d="M76.9235 45L97.3868 90H68.8281L76.9235 45Z" fill="#FFD587"/>
<path d="M76.9235 45L68.8281 89.9999H56.6851L76.9235 45Z" fill="#FFB12E"/>
<path d="M68.0468 103.371C70.703 103.371 72.6171 105.793 72.6366 109.602C72.6171 113.449 70.703 115.852 68.0468 115.852C65.371 115.852 63.4374 113.449 63.4569 109.602C63.4374 105.793 65.371 103.371 68.0468 103.371ZM68.0468 105.324C66.5624 105.324 65.5468 106.906 65.5468 109.602C65.5468 112.316 66.5624 113.898 68.0468 113.898C69.5507 113.898 70.5468 112.316 70.5468 109.602C70.5468 106.906 69.5507 105.324 68.0468 105.324ZM77.1288 102.082V108.859H79.8437V110.695H77.1288V119.738H74.9608V102.082H77.1288ZM96.3186 115.793V117.609H80.1858V115.793H96.3186ZM94.9124 103.723V105.461H92.3343V111.086H94.8538V112.805H81.5726V111.086H84.053V105.461H81.514V103.723H94.9124ZM86.221 111.086H90.1858V105.461H86.221V111.086ZM111.778 102.082V119.758H109.63V102.082H111.778ZM106.348 103.625V110.246H100.274V113.801C103.057 113.781 105.46 113.645 108.204 113.176L108.399 114.953C105.391 115.48 102.755 115.578 99.5905 115.578H98.0476V108.527H104.141V105.383H98.028V103.625H106.348ZM123.136 103.82C123.136 109.152 121.671 113.723 115.167 116.965L113.976 115.324C117.032 113.811 118.849 112.053 119.874 109.953L114.386 110.48L114.112 108.605L120.538 108.195C120.763 107.375 120.9 106.506 120.968 105.578H115.03V103.82H123.136ZM127.784 102.082V108.996H130.401V110.773H127.784V119.699H125.616V102.082H127.784Z" fill="#6C727E"/>
</svg>
