<svg width="432" height="224" viewBox="0 0 432 224" fill="none" xmlns="http://www.w3.org/2000/svg">
<path d="M119.309 34.9265C135.606 34.9265 151.361 29.0733 163.706 18.4328L165.955 16.4937C178.3 5.85318 194.055 0 210.353 0H215.558C231.504 0 246.81 6.27274 258.169 17.4632V17.4632C269.529 28.6538 284.835 34.9265 300.781 34.9265H413.686C423.384 34.9265 431.246 42.7885 431.246 52.4867V52.4867C431.246 60.1015 426.338 66.8486 419.094 69.1935L392.692 77.7388C377.49 82.6592 365.133 93.87 358.76 108.522L355.174 116.769C352.929 121.931 350.051 126.795 346.607 131.248L296.313 196.281C283.436 212.932 263.573 222.681 242.522 222.681H175.118C161.444 222.681 148.088 218.559 136.793 210.853L132.769 208.107C121.474 200.401 108.118 196.278 94.4443 196.278H90.2334C84.171 196.278 78.2333 198.001 73.1116 201.244L38.4774 223.179L0 171.37C0 171.37 57.2963 144.328 70.4586 113.084C84.9396 78.7106 67.96 34.9265 67.96 34.9265H119.309Z" fill="#F3F5F9"/>
<path d="M339.369 171.701C335.799 169.624 334.704 164.986 336.968 161.532L362.671 122.331C365.923 117.371 373.487 118.399 375.279 124.044V124.044V124.044C378.373 132.916 375.269 142.769 367.64 148.291L365.996 149.482C364.198 150.783 362.589 152.326 361.214 154.067L348.689 169.928C346.458 172.754 342.481 173.511 339.369 171.701V171.701Z" fill="#F3F5F9"/>
<path d="M188.479 73.1728C188.381 72.9767 188.523 72.7458 188.743 72.7458L191.953 72.7458L191.953 81.5968L188.743 81.5968C188.523 81.5968 188.381 81.366 188.479 81.1698L189.003 80.1216L189.003 74.221L188.479 73.1728Z" fill="#68CB70"/>
<path d="M188.479 55.427C188.381 55.2308 188.523 55 188.743 55L191.953 55L191.953 63.8509L188.743 63.8509C188.523 63.8509 188.381 63.6201 188.479 63.424L189.003 62.3758L189.003 56.4752L188.479 55.427Z" fill="#68CB70"/>
<path d="M188.479 90.8755C188.381 90.6793 188.523 90.4485 188.743 90.4485L191.953 90.4485L191.953 99.2994L188.743 99.2994C188.523 99.2994 188.381 99.0686 188.479 98.8725L189.003 97.8243L189.003 91.9236L188.479 90.8755Z" fill="#68CB70"/>
<path d="M188.479 108.576C188.381 108.38 188.523 108.149 188.743 108.149L191.953 108.149L191.953 117L189.003 117L189.003 115.525L189.003 109.624L188.479 108.576Z" fill="#68CB70"/>
<path d="M191.953 72.7458L195.164 72.7458C195.383 72.7458 195.525 72.9767 195.427 73.1728L194.903 74.221L194.903 80.1216L195.427 81.1698C195.525 81.366 195.383 81.5968 195.164 81.5968L191.953 81.5968L191.953 72.7458Z" fill="#2DAC6C"/>
<path d="M191.953 55L195.164 55C195.383 55 195.525 55.2308 195.427 55.427L194.903 56.4752L194.903 62.3758L195.427 63.424C195.525 63.6201 195.383 63.8509 195.164 63.8509L191.953 63.8509L191.953 55Z" fill="#2DAC6C"/>
<path d="M191.953 90.4485L195.164 90.4485C195.383 90.4485 195.525 90.6793 195.427 90.8755L194.903 91.9236L194.903 97.8243L195.427 98.8725C195.525 99.0686 195.383 99.2994 195.164 99.2994L191.953 99.2994L191.953 90.4485Z" fill="#2DAC6C"/>
<path d="M191.953 108.149L195.164 108.149C195.383 108.149 195.525 108.38 195.427 108.576L194.903 109.624L194.903 115.525L194.903 117L191.953 117L191.953 108.149Z" fill="#2DAC6C"/>
<path d="M191.953 63.895L195.164 63.895C195.383 63.895 195.525 64.1258 195.427 64.322L194.903 65.3702L194.903 71.2708L195.427 72.319C195.525 72.5152 195.383 72.746 195.164 72.746L191.953 72.746L191.953 63.895Z" fill="#68CB70"/>
<path d="M191.953 81.5967L195.164 81.5967C195.383 81.5967 195.525 81.8275 195.427 82.0237L194.903 83.0718L194.903 88.9725L195.427 90.0206C195.525 90.2168 195.383 90.4476 195.164 90.4476L191.953 90.4476L191.953 81.5967Z" fill="#68CB70"/>
<path d="M191.953 99.2983L195.164 99.2983C195.383 99.2983 195.525 99.5291 195.427 99.7253L194.903 100.773L194.903 106.674L195.427 107.722C195.525 107.918 195.383 108.149 195.164 108.149L191.953 108.149L191.953 99.2983Z" fill="#68CB70"/>
<path d="M188.479 64.322C188.381 64.1258 188.523 63.895 188.743 63.895L191.953 63.895L191.953 72.746L188.743 72.746C188.523 72.746 188.381 72.5152 188.479 72.319L189.003 71.2708L189.003 65.3702L188.479 64.322Z" fill="#AEE280"/>
<path d="M188.479 82.0237C188.381 81.8275 188.523 81.5967 188.743 81.5967L191.953 81.5967L191.953 90.4476L188.743 90.4476C188.523 90.4476 188.381 90.2168 188.479 90.0206L189.003 88.9725L189.003 83.0718L188.479 82.0237Z" fill="#AEE280"/>
<path d="M188.479 99.7253C188.381 99.5291 188.523 99.2983 188.743 99.2983L191.953 99.2983L191.953 108.149L188.743 108.149C188.523 108.149 188.381 107.918 188.479 107.722L189.003 106.674L189.003 100.773L188.479 99.7253Z" fill="#AEE280"/>
<path d="M196.44 95.2906C195.126 96.6044 195.856 99.0861 195.856 99.0861C195.856 99.0861 198.338 99.816 199.651 98.5021C200.965 97.1883 200.673 94.2687 200.673 94.2687C200.673 94.2687 197.754 93.9768 196.44 95.2906Z" fill="#68CB70"/>
<path d="M196.44 102.685C195.126 101.371 195.856 98.8893 195.856 98.8893C195.856 98.8893 198.338 98.1594 199.651 99.4732C200.965 100.787 200.673 103.707 200.673 103.707C200.673 103.707 197.754 103.999 196.44 102.685Z" fill="#68CB70"/>
<path d="M179.117 55.3039C179.019 55.1072 179.162 54.8757 179.381 54.8757H182.601V63.7506H179.381C179.162 63.7506 179.019 63.5192 179.117 63.3225L179.642 62.2715V56.3549L179.117 55.3039Z" fill="#68CB70"/>
<path d="M179.117 73.0534C179.019 72.8567 179.162 72.6252 179.382 72.6252H182.601V81.5001H179.382C179.162 81.5001 179.019 81.2687 179.117 81.072L179.643 80.021V74.1044L179.117 73.0534Z" fill="#68CB70"/>
<path d="M179.117 90.8039C179.019 90.6072 179.162 90.3757 179.382 90.3757H182.601V99.2506H179.382C179.162 99.2506 179.019 99.0192 179.117 98.8225L179.643 97.7715V91.8549L179.117 90.8039Z" fill="#68CB70"/>
<path d="M179.117 108.552C179.019 108.355 179.162 108.124 179.382 108.124H182.601V116.999H179.643V115.52V109.603L179.117 108.552Z" fill="#68CB70"/>
<path d="M182.601 54.8757H185.82C186.04 54.8757 186.183 55.1072 186.085 55.3039L185.559 56.3549V62.2715L186.085 63.3225C186.183 63.5192 186.04 63.7506 185.82 63.7506H182.601V54.8757Z" fill="#2DAC6C"/>
<path d="M182.601 72.6252H185.82C186.04 72.6252 186.183 72.8567 186.085 73.0534L185.559 74.1044V80.021L186.085 81.072C186.183 81.2687 186.04 81.5001 185.82 81.5001H182.601V72.6252Z" fill="#2DAC6C"/>
<path d="M182.601 90.3748H185.82C186.04 90.3748 186.183 90.6062 186.085 90.8029L185.559 91.8539V97.7705L186.085 98.8215C186.183 99.0182 186.04 99.2496 185.82 99.2496H182.601V90.3748Z" fill="#2DAC6C"/>
<path d="M182.601 108.125H185.821C186.041 108.125 186.184 108.357 186.085 108.553L185.56 109.604V115.521V117H182.601V108.125Z" fill="#2DAC6C"/>
<path d="M182.601 46H185.82C186.04 46 186.183 46.2314 186.085 46.4281L185.559 47.4791V53.3957L186.085 54.4467C186.183 54.6434 186.04 54.8749 185.82 54.8749H182.601V46Z" fill="#68CB70"/>
<path d="M182.601 63.7505H185.82C186.04 63.7505 186.183 63.9819 186.085 64.1786L185.559 65.2296V71.1462L186.085 72.1972C186.183 72.3939 186.04 72.6254 185.82 72.6254H182.601V63.7505Z" fill="#68CB70"/>
<path d="M182.601 81.501H185.82C186.04 81.501 186.183 81.7324 186.085 81.9291L185.559 82.9801V88.8967L186.085 89.9477C186.183 90.1444 186.04 90.3758 185.82 90.3758H182.601V81.501Z" fill="#68CB70"/>
<path d="M182.601 99.2495H185.82C186.04 99.2495 186.183 99.4809 186.085 99.6776L185.559 100.729V106.645L186.085 107.696C186.183 107.893 186.04 108.124 185.82 108.124H182.601V99.2495Z" fill="#68CB70"/>
<path d="M179.117 46.4281C179.019 46.2314 179.162 46 179.381 46H182.601V54.8749H179.381C179.162 54.8749 179.019 54.6434 179.117 54.4467L179.642 53.3957V47.4791L179.117 46.4281Z" fill="#AEE280"/>
<path d="M179.117 64.1786C179.019 63.9819 179.162 63.7505 179.381 63.7505H182.601V72.6254H179.381C179.162 72.6254 179.019 72.3939 179.117 72.1972L179.642 71.1462V65.2296L179.117 64.1786Z" fill="#AEE280"/>
<path d="M179.117 81.9291C179.019 81.7324 179.162 81.501 179.382 81.501H182.601V90.3758H179.382C179.162 90.3758 179.019 90.1444 179.117 89.9477L179.643 88.8967V82.9801L179.117 81.9291Z" fill="#AEE280"/>
<path d="M179.117 99.6776C179.019 99.4809 179.162 99.2495 179.382 99.2495H182.601V108.124H179.382C179.162 108.124 179.019 107.893 179.117 107.696L179.643 106.645V100.729L179.117 99.6776Z" fill="#AEE280"/>
<path d="M178.102 95.2304C179.419 96.5478 178.687 99.0362 178.687 99.0362C178.687 99.0362 176.199 99.768 174.882 98.4507C173.564 97.1333 173.857 94.2058 173.857 94.2058C173.857 94.2058 176.785 93.9131 178.102 95.2304Z" fill="#68CB70"/>
<path d="M178.102 102.644C179.419 101.326 178.687 98.8379 178.687 98.8379C178.687 98.8379 176.199 98.106 174.882 99.4234C173.564 100.741 173.857 103.668 173.857 103.668C173.857 103.668 176.785 103.961 178.102 102.644Z" fill="#68CB70"/>
<path d="M178.101 59.7329C179.419 61.0502 178.687 63.5386 178.687 63.5386C178.687 63.5386 176.199 64.2705 174.881 62.9531C173.564 61.6357 173.857 58.7082 173.857 58.7082C173.857 58.7082 176.784 58.4155 178.101 59.7329Z" fill="#68CB70"/>
<path d="M178.101 67.1458C179.419 65.8284 178.687 63.3401 178.687 63.3401C178.687 63.3401 176.199 62.6082 174.881 63.9256C173.564 65.2429 173.857 68.1704 173.857 68.1704C173.857 68.1704 176.784 68.4632 178.101 67.1458Z" fill="#68CB70"/>
<path d="M237.428 73.2594C237.33 73.0636 237.472 72.8333 237.691 72.8333L240.895 72.8333L240.895 81.6667L237.691 81.6667C237.472 81.6667 237.33 81.4363 237.428 81.2406L237.951 80.1945L237.951 74.3055L237.428 73.2594Z" fill="#68CB70"/>
<path d="M237.427 90.9271C237.329 90.7313 237.472 90.501 237.691 90.501L240.895 90.501L240.895 99.3344L237.691 99.3344C237.472 99.3344 237.329 99.1041 237.427 98.9083L237.95 97.8622L237.95 91.9732L237.427 90.9271Z" fill="#68CB70"/>
<path d="M237.427 108.593C237.329 108.397 237.472 108.167 237.691 108.167L240.895 108.167L240.895 117L237.95 117L237.95 115.528L237.95 109.639L237.427 108.593Z" fill="#68CB70"/>
<path d="M240.895 72.8333L244.099 72.8333C244.318 72.8333 244.46 73.0636 244.362 73.2594L243.839 74.3055L243.839 80.1945L244.362 81.2406C244.46 81.4363 244.318 81.6667 244.099 81.6667L240.895 81.6667L240.895 72.8333Z" fill="#2DAC6C"/>
<path d="M240.895 90.501L244.099 90.501C244.318 90.501 244.46 90.7313 244.362 90.9271L243.839 91.9732L243.839 97.8622L244.362 98.9083C244.46 99.1041 244.318 99.3344 244.099 99.3344L240.895 99.3344L240.895 90.501Z" fill="#2DAC6C"/>
<path d="M240.894 108.167L244.098 108.167C244.317 108.167 244.46 108.397 244.362 108.593L243.839 109.639L243.839 115.528L243.839 117L240.894 117L240.894 108.167Z" fill="#2DAC6C"/>
<path d="M240.895 64.001L244.099 64.001C244.318 64.001 244.46 64.2313 244.362 64.4271L243.839 65.4732L243.839 71.3622L244.362 72.4083C244.46 72.6041 244.318 72.8344 244.099 72.8344L240.895 72.8344L240.895 64.001Z" fill="#68CB70"/>
<path d="M240.894 81.6665L244.098 81.6665C244.317 81.6665 244.46 81.8969 244.362 82.0926L243.839 83.1387L243.839 89.0277L244.362 90.0738C244.46 90.2696 244.317 90.5 244.098 90.5L240.894 90.5L240.894 81.6665Z" fill="#68CB70"/>
<path d="M240.895 99.3342L244.099 99.3342C244.318 99.3342 244.46 99.5646 244.362 99.7604L243.839 100.806L243.839 106.695L244.362 107.742C244.46 107.937 244.318 108.168 244.099 108.168L240.895 108.168L240.895 99.3342Z" fill="#68CB70"/>
<path d="M237.427 64.4261C237.329 64.2304 237.472 64 237.691 64L240.895 64L240.895 72.8334L237.691 72.8334C237.472 72.8334 237.329 72.6031 237.427 72.4073L237.95 71.3612L237.95 65.4722L237.427 64.4261Z" fill="#AEE280"/>
<path d="M237.427 82.0926C237.329 81.8969 237.472 81.6665 237.691 81.6665L240.895 81.6665L240.895 90.5L237.691 90.5C237.472 90.5 237.329 90.2696 237.427 90.0738L237.95 89.0277L237.95 83.1387L237.427 82.0926Z" fill="#AEE280"/>
<path d="M237.427 99.7594C237.329 99.5636 237.472 99.3333 237.691 99.3333L240.895 99.3333L240.895 108.167L237.691 108.167C237.472 108.167 237.329 107.936 237.427 107.741L237.95 106.694L237.95 100.805L237.427 99.7594Z" fill="#AEE280"/>
<path d="M245.373 95.3318C244.062 96.643 244.79 99.1198 244.79 99.1198C244.79 99.1198 247.267 99.8482 248.578 98.537C249.889 97.2258 249.598 94.3119 249.598 94.3119C249.598 94.3119 246.684 94.0206 245.373 95.3318Z" fill="#68CB70"/>
<path d="M245.373 102.711C244.062 101.4 244.79 98.9232 244.79 98.9232C244.79 98.9232 247.267 98.1948 248.578 99.506C249.889 100.817 249.598 103.731 249.598 103.731C249.598 103.731 246.684 104.022 245.373 102.711Z" fill="#68CB70"/>
<path d="M205.718 88.7063H226.012L228.395 117.119H215.865H203.336L205.718 88.7063Z" fill="white"/>
<path d="M197.481 111.054C197.481 106.462 202.313 103.476 206.42 105.529L213.69 109.164C215.112 109.875 216.011 111.329 216.011 112.92V112.92C216.011 115.239 214.131 117.119 211.812 117.119H202.422C199.693 117.119 197.481 114.906 197.481 112.177V111.054Z" fill="#3A404A"/>
<path d="M236.011 111.054C236.011 106.462 231.179 103.476 227.072 105.529L219.803 109.164C218.38 109.875 217.481 111.329 217.481 112.92V112.92C217.481 115.239 219.361 117.119 221.681 117.119H231.07C233.799 117.119 236.011 114.906 236.011 112.177V111.054Z" fill="#3A404A"/>
<path d="M225.278 91.7764C227.927 95.3077 227.927 104.136 223.513 107.667" stroke="#3A404A" stroke-width="10.594" stroke-linecap="round"/>
<path d="M207.663 91.7764C205.015 95.3077 205.015 104.136 209.429 107.667" stroke="#3A404A" stroke-width="10.594" stroke-linecap="round"/>
<path d="M209.388 91.7764C212.776 95.1862 220.829 95.1862 224.396 91.7764" stroke="#3A404A" stroke-width="7.06265" stroke-linecap="round"/>
<path d="M208.479 78.9276C206.655 80.8887 203.401 80.8272 201.211 78.7902C199.021 76.7531 198.358 73.9067 200.549 71.5509C202.741 69.1951 205.628 69.6513 207.817 71.6884C210.007 73.7254 210.304 76.9665 208.479 78.9276Z" fill="#3A404A"/>
<path d="M225.115 78.9409C226.946 80.9093 230.206 80.8537 232.396 78.8167C234.585 76.7796 235.245 73.9288 233.045 71.5641C230.845 69.1995 227.954 69.6513 225.765 71.6884C223.575 73.7254 223.284 76.9724 225.115 78.9409Z" fill="#3A404A"/>
<path d="M231.76 83.7238C231.76 90.6423 227.361 94.4614 216.804 94.4614C206.247 94.4614 201.848 90.6423 201.848 83.7238C201.848 76.8052 206.557 70.3018 216.804 70.3018C227.051 70.3018 231.76 76.8052 231.76 83.7238Z" fill="white"/>
<path d="M226.483 80.659C227.163 82.6659 227.015 84.5647 224.994 85.3499C222.974 86.1352 221.722 84.7802 221.042 82.7734C220.362 80.7665 220.84 78.7396 222.531 78.0825C224.222 77.4253 225.803 78.6521 226.483 80.659Z" fill="#3A404A"/>
<path d="M207.503 80.6607C206.823 82.6676 206.968 84.565 208.978 85.3464C210.989 86.1277 212.237 84.7714 212.917 82.7646C213.597 80.7577 213.124 78.7328 211.442 78.0789C209.759 77.425 208.183 78.6539 207.503 80.6607Z" fill="#3A404A"/>
<path d="M218.529 84.1065C218.529 84.7419 217.638 85.257 216.804 85.257C215.97 85.257 215.078 84.7419 215.078 84.1065C215.078 83.4711 215.293 82.9561 216.804 82.9561C218.314 82.9561 218.529 83.4711 218.529 84.1065Z" fill="#3A404A"/>
<path d="M192.05 130.371C194.707 130.371 196.621 132.793 196.64 136.602C196.621 140.449 194.707 142.852 192.05 142.852C189.375 142.852 187.441 140.449 187.461 136.602C187.441 132.793 189.375 130.371 192.05 130.371ZM192.05 132.324C190.566 132.324 189.55 133.906 189.55 136.602C189.55 139.316 190.566 140.898 192.05 140.898C193.554 140.898 194.55 139.316 194.55 136.602C194.55 133.906 193.554 132.324 192.05 132.324ZM201.132 129.082V135.859H203.847V137.695H201.132V146.738H198.964V129.082H201.132ZM210.869 133.32C210.85 136.562 212.549 139.805 215.42 141.035L214.131 142.773C212.1 141.836 210.605 139.961 209.795 137.656C208.984 140.146 207.471 142.178 205.322 143.184L203.994 141.367C206.943 140.098 208.662 136.719 208.662 133.32V130.508H210.869V133.32ZM218.877 129.082V146.758H216.689V129.082H218.877ZM225.821 130.371C228.477 130.371 230.391 132.793 230.411 136.602C230.391 140.449 228.477 142.852 225.821 142.852C223.145 142.852 221.211 140.449 221.231 136.602C221.211 132.793 223.145 130.371 225.821 130.371ZM225.821 132.324C224.336 132.324 223.321 133.906 223.321 136.602C223.321 139.316 224.336 140.898 225.821 140.898C227.325 140.898 228.321 139.316 228.321 136.602C228.321 133.906 227.325 132.324 225.821 132.324ZM234.903 129.082V135.859H237.618V137.695H234.903V146.738H232.735V129.082H234.903Z" fill="#6C727E"/>
</svg>
