<svg width="24" height="25" viewBox="0 0 24 25" fill="none" xmlns="http://www.w3.org/2000/svg">
<path d="M12 2.5C17.5228 2.5 22 6.97715 22 12.5C22 18.0228 17.5228 22.5 12 22.5C6.47715 22.5 2 18.0228 2 12.5C2 6.97715 6.47715 2.5 12 2.5ZM12 16C11.4477 16 11 16.4477 11 17C11 17.5523 11.4477 18 12 18C12.5523 18 13 17.5523 13 17C13 16.4477 12.5523 16 12 16ZM12 7.5C11.4477 7.5 11 7.94772 11 8.5V13.5L11.0049 13.6025C11.0562 14.1067 11.4823 14.5 12 14.5C12.5177 14.5 12.9438 14.1067 12.9951 13.6025L13 13.5V8.5C13 7.94772 12.5523 7.5 12 7.5Z" fill="#DADFE7"/>
</svg>
