<svg width="168" height="166" viewBox="0 0 168 166" fill="none" xmlns="http://www.w3.org/2000/svg">
<path d="M158.907 28.9268C158.907 28.9268 175.915 71.4186 162.404 105.092C148.413 139.964 90.9465 165.37 90.9465 165.37V165.37C90.9465 143.374 73.6024 125.29 51.6255 124.373L32.4663 123.572C14.3206 122.814 0 107.883 0 89.7218V89.7218C0 83.0417 1.97473 76.5107 5.67595 70.9498L13.463 59.25C26.0705 40.3078 47.3167 28.9268 70.071 28.9268H158.907Z" fill="#F3F5F9"/>
<path d="M67.1929 71.2981H80.2658V89.9994H67.1929V71.2981Z" fill="#D3DFFF"/>
<path d="M80.204 54H95.2174V90H80.204V54Z" fill="#D3DFFF"/>
<path d="M93.2163 62.7266H130.249V89.9993H93.2163V62.7266Z" fill="#D3DFFF"/>
<path d="M130.178 74.5002H139.186V89.9998H130.178V74.5002Z" fill="#D3DFFF"/>
<path d="M139.186 71.4543H147.193V89.9998H139.186V71.4543Z" fill="#D3DFFF"/>
<path d="M112.196 73.6541H101.222V63.3318H112.196V73.6541ZM103.574 73.6531H109.844L108.277 65.9119H105.141L103.574 73.6531Z" fill="#1A5BFF"/>
<path d="M120.818 89.9988H116.847C116.881 89.7155 116.898 89.4282 116.898 89.1375C116.898 84.3869 112.336 80.5361 106.709 80.5359C101.081 80.5359 96.5183 84.3868 96.5183 89.1375C96.5183 89.4282 96.5357 89.7155 96.5691 89.9988H92.5993V77.0964H120.818V89.9988Z" fill="#1A5BFF"/>
<path d="M108.276 23.7637C108.278 23.7771 111.001 43.5787 115.107 56.4512C119.365 69.8028 130.194 89.9429 130.224 89.998H120.818C119.227 82.6824 114.547 77.6387 106.708 77.6387C98.8699 77.6387 94.1898 82.6824 92.599 89.998H83.1927C83.2257 89.9364 94.1181 69.5324 98.3099 56.4512C102.508 43.3501 105.141 23.7637 105.141 23.7637H108.276ZM103.574 63.332L101.222 73.6543H112.196L109.844 63.332H103.574Z" fill="#4E80FF"/>
<rect x="106.317" y="10" width="0.783856" height="12.0426" rx="0.391928" fill="#C2D3FF"/>
<path d="M105.141 21.89C105.141 21.0242 105.843 20.3223 106.709 20.3223V20.3223C107.575 20.3223 108.277 21.0242 108.277 21.89V23.763H105.141V21.89Z" fill="#C2D3FF"/>
<rect x="104.357" y="22.043" width="4.70313" height="0.860189" rx="0.430095" fill="#4E80FF"/>
<path d="M106.708 63.332H103.574L101.222 73.6543H106.708V77.6387C98.8699 77.6387 94.1898 82.6823 92.599 89.998H83.1927C83.2257 89.9364 94.1181 69.5324 98.3099 56.4512C102.508 43.3501 105.141 23.7637 105.141 23.7637H106.708V63.332Z" fill="#94B3FF"/>
<rect x="89.4631" y="73.6538" width="34.4896" height="2.58057" rx="1.29028" fill="#C2D3FF"/>
<rect x="96.5184" y="56.45" width="20.3802" height="2.58057" rx="1.29028" fill="#C2D3FF"/>
<path d="M106.807 111.984V113.742H102.881V119.738H100.674V113.742H96.7679V119.738H94.5413V113.742H90.6741V111.984H106.807ZM98.7015 102.707C102.451 102.727 105.069 104.25 105.069 106.652C105.069 109.016 102.451 110.52 98.7015 110.52C94.9319 110.52 92.3538 109.016 92.3733 106.652C92.3538 104.25 94.9319 102.727 98.7015 102.707ZM98.7015 104.465C96.2015 104.465 94.5804 105.266 94.5999 106.652C94.5804 108 96.2015 108.801 98.7015 108.801C101.201 108.801 102.823 108 102.823 106.652C102.823 105.266 101.201 104.465 98.7015 104.465ZM122.364 102.102V111.828H120.196V107.355H117.188V105.578H120.196V102.102H122.364ZM112.774 112.59V114.367H120.216V112.59H122.364V119.523H110.606V112.59H112.774ZM112.774 117.766H120.216V116.066H112.774V117.766ZM116.212 102.785V107.883H110.45V109.719C113.194 109.699 115.216 109.611 117.559 109.23L117.716 110.988C115.118 111.398 112.872 111.477 109.688 111.457H108.301V106.262H114.083V104.523H108.262V102.785H116.212Z" fill="#6C727E"/>
</svg>
