<svg width="301" height="202" viewBox="0 0 301 202" fill="none" xmlns="http://www.w3.org/2000/svg">
<path d="M0 50.7256C0 39.4755 9.11998 30.3556 20.3701 30.3556H123.491C136.813 30.3556 149.842 26.4422 160.96 19.1014L172.844 11.2542C183.962 3.91339 196.99 1.45996e-06 210.313 4.19858e-06L275.877 1.76762e-05C289.654 2.05084e-05 300.823 11.169 300.823 24.9466V24.9466C300.823 32.748 297.173 40.1002 290.959 44.8171L233.705 88.2769C225.612 94.4197 218.999 102.298 214.351 111.332L197.912 143.287C192.757 153.308 183.985 160.994 173.373 164.789L168.307 166.6C153.679 171.831 143.915 185.691 143.915 201.227V201.227H121.429L97.4574 175.323L59.4227 134.668C52.8763 127.671 49.2342 118.447 49.2342 108.865V95.7128C49.2342 82.1171 38.2127 71.0957 24.6171 71.0957H20.37C9.11997 71.0957 0 61.9757 0 50.7256V50.7256Z" fill="#F3F5F9"/>
<path d="M134 69.4976H156V101.498H134V69.4976Z" fill="#90CAF9"/>
<path d="M116 61.4976H134V98.4964C134 100.154 132.657 101.498 130.999 101.498H116V61.4976Z" fill="#64B5F6"/>
<path d="M156 61.4987C156 59.8412 157.344 58.4976 159.001 58.4976H173.999C175.657 58.4976 177 59.8412 177 61.4987V101.498H156V61.4987Z" fill="#BBDEFB"/>
<path d="M97.0471 48.4842C97.0471 46.8347 98.3842 45.4976 100.034 45.4976H113.349C114.999 45.4976 116.336 46.8347 116.336 48.4842V101.498H97.0471V48.4842Z" fill="#BBDEFB"/>
<g style="mix-blend-mode:soft-light">
<path d="M105.832 101.494L128.341 85.1572V101.494H105.832Z" fill="black"/>
</g>
<rect x="159.752" y="62.6714" width="2.50099" height="2.50099" rx="0.625238" fill="#64B5F6"/>
<rect x="100.781" y="49.2319" width="2.48889" height="2.48889" rx="0.622213" fill="#64B5F6"/>
<rect x="165.379" y="62.6714" width="2.50099" height="2.50099" rx="0.625238" fill="#64B5F6"/>
<rect x="105.758" y="49.2319" width="2.48889" height="2.48889" rx="0.622213" fill="#64B5F6"/>
<rect x="171.005" y="62.6714" width="2.50099" height="2.50099" rx="0.625238" fill="#64B5F6"/>
<rect x="110.736" y="49.2319" width="2.48889" height="2.48889" rx="0.622213" fill="#64B5F6"/>
<rect x="159.752" y="68.2983" width="2.50099" height="2.50099" rx="0.625238" fill="#64B5F6"/>
<rect x="100.781" y="54.8325" width="2.48889" height="2.48889" rx="0.622213" fill="#64B5F6"/>
<rect x="165.379" y="68.2983" width="2.50099" height="2.50099" rx="0.625238" fill="#64B5F6"/>
<rect x="105.758" y="54.8325" width="2.48889" height="2.48889" rx="0.622213" fill="#64B5F6"/>
<rect x="171.005" y="68.2983" width="2.50099" height="2.50099" rx="0.625238" fill="#64B5F6"/>
<rect x="110.736" y="54.8325" width="2.48889" height="2.48889" rx="0.622213" fill="#64B5F6"/>
<rect x="159.752" y="79.5522" width="2.50099" height="2.50099" rx="0.625238" fill="#E3F2FD"/>
<rect x="100.781" y="66.0305" width="2.48889" height="2.48889" rx="0.622213" fill="#E3F2FD"/>
<rect x="165.379" y="79.5522" width="2.50099" height="2.50099" rx="0.625238" fill="#64B5F6"/>
<rect x="105.758" y="66.0305" width="2.48889" height="2.48889" rx="0.622213" fill="#64B5F6"/>
<rect x="171.005" y="79.5522" width="2.50099" height="2.50099" rx="0.625238" fill="#64B5F6"/>
<rect x="110.736" y="66.0305" width="2.48889" height="2.48889" rx="0.622213" fill="#64B5F6"/>
<rect x="159.752" y="73.9253" width="2.50099" height="2.50099" rx="0.625238" fill="#64B5F6"/>
<rect x="100.781" y="60.4341" width="2.48889" height="2.48889" rx="0.622213" fill="#64B5F6"/>
<rect x="165.379" y="73.9253" width="2.50099" height="2.50099" rx="0.625238" fill="#64B5F6"/>
<rect x="105.758" y="60.4341" width="2.48889" height="2.48889" rx="0.622213" fill="#64B5F6"/>
<rect x="171.005" y="73.9253" width="2.50099" height="2.50099" rx="0.625238" fill="#E3F2FD"/>
<rect x="110.736" y="60.4341" width="2.48889" height="2.48889" rx="0.622213" fill="#E3F2FD"/>
<rect x="127" y="81.498" width="20" height="16" fill="#FF6E61"/>
<rect x="125.695" y="96.4456" width="22.7368" height="5.05263" rx="2" fill="#FD5243"/>
<rect x="136.955" y="86.0154" width="2.77886" height="1.71012" rx="0.85506" transform="rotate(90 136.955 86.0154)" fill="#FD5243"/>
<rect x="141.231" y="86.0154" width="2.77886" height="1.71012" rx="0.85506" transform="rotate(90 141.231 86.0154)" fill="#FD5243"/>
<rect x="145.507" y="86.0154" width="2.77886" height="1.71012" rx="0.85506" transform="rotate(90 145.507 86.0154)" fill="#FD5243"/>
<rect x="126.033" y="79.1084" width="22.2316" height="5.05263" rx="2" fill="#F6CF5A"/>
<path d="M126.033 81.1084C126.033 80.0038 126.928 79.1084 128.033 79.1084H133.107V84.161H128.033C126.928 84.161 126.033 83.2656 126.033 82.161V81.1084Z" fill="#FBC02D"/>
<rect x="127.043" y="84.1611" width="6.06315" height="14.1474" fill="#FD5243"/>
<path d="M129.841 29.6453L134.398 33.2939C134.446 33.3328 134.45 33.4053 134.406 33.4493L133.05 34.8068C133.006 34.8508 132.934 34.8468 132.895 34.7982L129.25 30.2374C128.936 29.8448 129.449 29.3312 129.841 29.6453Z" fill="#42A5F5"/>
<path d="M127.995 33.5114L133.765 34.391C133.827 34.4004 133.866 34.4611 133.85 34.5212L133.354 36.3757C133.338 36.4358 133.273 36.4685 133.215 36.4459L127.779 34.3198C127.311 34.1368 127.498 33.4356 127.995 33.5114Z" fill="#42A5F5"/>
<path d="M128.065 30.7748L129.888 44.2114L125.662 46.3611L125.355 30.8795L128.065 30.7748Z" fill="#90CAF9"/>
<rect width="4.33846" height="3.64328" rx="1.82164" transform="matrix(0.999254 -0.0386129 0.0547957 0.998498 123.629 29.1226)" fill="#90CAF9"/>
<path d="M136.461 27.0566L135.817 32.8598C135.81 32.9216 135.858 32.9756 135.92 32.9756H137.838C137.9 32.9756 137.949 32.9216 137.942 32.8598L137.298 27.0566C137.242 26.5572 136.516 26.5572 136.461 27.0566Z" fill="#42A5F5"/>
<path d="M140.112 27.7859L138.002 32.5992C137.977 32.657 138.008 32.7208 138.069 32.7353L139.918 33.1768C139.979 33.1913 140.042 33.1501 140.052 33.0887L140.925 27.9801C141.008 27.4939 140.313 27.3278 140.112 27.7859Z" fill="#42A5F5"/>
<path d="M143.676 29.6453L139.12 33.2939C139.071 33.3328 139.067 33.4053 139.111 33.4493L140.467 34.8068C140.511 34.8508 140.583 34.8468 140.622 34.7982L144.267 30.2374C144.581 29.8448 144.068 29.3312 143.676 29.6453Z" fill="#42A5F5"/>
<path d="M146.282 33.467L141.169 34.2464C140.602 34.3329 140.235 34.8937 140.384 35.4485C140.532 36.0032 141.13 36.3054 141.665 36.0962L146.481 34.2126C146.913 34.0438 146.74 33.3972 146.282 33.467Z" fill="#42A5F5"/>
<path d="M133.928 27.7859L136.038 32.5992C136.063 32.657 136.031 32.7208 135.971 32.7353L134.122 33.1768C134.061 33.1913 133.998 33.1501 133.988 33.0887L133.115 27.9801C133.032 27.4939 133.727 27.3278 133.928 27.7859Z" fill="#42A5F5"/>
<path d="M141.715 40.2373C142.116 40.695 143.821 42.4578 143.5 45.3857C143.307 47.1443 141.554 48.2907 139.307 47.5586H134.492C132.245 48.2907 130.614 46.3008 130.48 45.3857C130.16 42.4578 131.683 40.6951 132.084 40.2373H141.715Z" fill="#1E88E5"/>
<path d="M133.194 46.0923H139.459C141.692 46.0923 143.501 47.902 143.501 50.1344V56.9588C143.501 60.554 140.587 63.4685 136.992 63.4685V63.4685C133.396 63.4685 130.482 60.554 130.482 56.9588V53.6944L133.194 46.0923Z" fill="#BBDEFB"/>
<path d="M133.194 46.0923C132.282 45.4835 131.741 44.7067 131.347 43.759C130.881 42.6394 129.494 42.1724 128.585 42.9753L126.181 45.0998C125.473 45.7253 125.069 46.65 125.217 47.5831C125.442 49.0061 125.848 49.724 126.685 50.9793C127.77 52.6084 130.482 53.6944 130.482 53.6944L133.194 46.0923Z" fill="#BBDEFB"/>
<path d="M135.126 43.7393H138.726V45.6806C138.726 46.6745 137.92 47.4802 136.926 47.4802V47.4802C135.932 47.4802 135.126 46.6745 135.126 45.6806V43.7393Z" fill="#64B5F6"/>
<ellipse cx="136.88" cy="37.2837" rx="5.37755" ry="5.38279" fill="#BBDEFB"/>
<path d="M141.332 39.5761C141.332 42.575 140.367 45.0061 136.992 45.0061C133.616 45.0061 132.652 42.575 132.652 39.5761C132.652 36.5771 134.329 34.146 136.992 34.146C139.655 34.146 141.332 36.5771 141.332 39.5761Z" fill="#90CAF9"/>
<path d="M131.692 40.6728C134.704 41.1035 136.341 37.4618 136.878 36.2058C137.954 39.4355 139.957 40.6728 142.108 40.6728C142.646 35.8283 140.105 33.5144 136.878 33.5144C131.501 33.5144 131.513 38.6992 131.692 40.6728Z" fill="#1E88E5"/>
<path d="M130.468 63.4709H143.661L146.326 79.1095H127.8L130.468 63.4709Z" fill="#1E88E5"/>
<path d="M144.187 48.7853C143.873 47.3066 142.107 46.6826 140.935 47.6361L132.005 54.8963C130.454 56.1576 129.509 58.0164 129.404 60.013L129.064 66.4773L144.689 53.9482C144.999 53.6996 145.143 53.2975 145.06 52.9088L144.187 48.7853Z" fill="#90CAF9"/>
<path d="M144.594 54.1694L128.778 65.9116C128.149 66.3786 127.725 67.0709 127.596 67.8435L127.03 71.211C126.639 73.5374 128.938 75.3991 131.133 74.5331L144.206 69.3734C145.493 68.8653 146.273 67.5495 146.101 66.176L144.594 54.1694Z" fill="#2196F3"/>
<rect width="6.51061" height="8.68692" rx="2.02105" transform="matrix(0.927804 0.373069 -0.372444 0.928055 144.45 48.2629)" fill="#BBDEFB"/>
<path d="M124.631 28.0774L127.886 28.0856L127.176 32.7415C127.105 33.2038 126.707 33.5452 126.239 33.544V33.544C125.772 33.5428 125.376 33.1995 125.308 32.7368L124.631 28.0774Z" fill="#2196F3"/>
<path d="M123.01 26.2534L129.52 26.2699L129.518 26.8959C129.514 28.0586 128.568 28.9987 127.405 28.9958L125.106 28.99C123.943 28.987 123.004 28.0421 123.008 26.8794L123.01 26.2534Z" fill="#2196F3"/>
<path d="M123.012 26.3927C123.014 25.8114 123.487 25.3413 124.068 25.3428L128.473 25.3539C129.054 25.3554 129.524 25.8278 129.522 26.4092L129.52 26.9044L123.01 26.8879L123.012 26.3927Z" fill="#90CAF9"/>
<path d="M126.922 28.5393L127.068 28.5337C127.849 28.5035 128.517 29.1119 128.56 29.8925C128.575 30.1604 128.539 30.4278 128.453 30.6805L128.115 31.6831L126.501 30.0406C126.428 29.9654 126.367 29.8781 126.323 29.7826L126.255 29.6346C126.024 29.1306 126.371 28.5606 126.922 28.5393Z" fill="#90CAF9"/>
<rect width="2.16923" height="2.73246" rx="1.08461" transform="matrix(0.999254 -0.0386129 0.0547957 0.998498 123.679 30.032)" fill="#90CAF9"/>
<rect width="3.35576" height="3.82736" rx="1.67788" transform="matrix(0.928555 0.371193 -0.37057 0.928804 147.661 51.8235)" fill="#64B5F6"/>
<path d="M125.548 21.498L129.453 21.5078L126.03 25.6158L125.548 21.498Z" fill="#90CAF9"/>
<path d="M111.18 122.076V123.795H104.188V125.494H109.207V131.236H107.039V127.252H96.8633V125.494H102.039V123.795H95.0859V122.076H111.18ZM99.3242 114.01V115.768H106.941V114.01H109.09V120.768H97.1758V114.01H99.3242ZM99.3242 119.029H106.941V117.389H99.3242V119.029ZM116.717 114.869C119.373 114.869 121.288 117.291 121.307 121.1C121.288 124.947 119.373 127.35 116.717 127.35C114.041 127.35 112.108 124.947 112.127 121.1C112.108 117.291 114.041 114.869 116.717 114.869ZM116.717 116.822C115.233 116.822 114.217 118.404 114.217 121.1C114.217 123.814 115.233 125.396 116.717 125.396C118.221 125.396 119.217 123.814 119.217 121.1C119.217 118.404 118.221 116.822 116.717 116.822ZM125.799 113.58V120.357H128.514V122.193H125.799V131.236H123.631V113.58H125.799ZM136.337 115.494V120.084H138.388V113.893H140.458V130.377H138.388V121.842H136.337V126.686H129.403V115.494H136.337ZM131.434 117.213V124.967H134.305V117.213H131.434ZM144.091 113.58V131.236H142.001V113.58H144.091ZM160.448 113.58V131.256H158.3V113.58H160.448ZM155.019 115.123V121.744H148.945V125.299C151.728 125.279 154.13 125.143 156.874 124.674L157.07 126.451C154.062 126.979 151.425 127.076 148.261 127.076H146.718V120.025H152.812V116.881H146.698V115.123H155.019ZM171.806 115.318C171.806 120.65 170.341 125.221 163.838 128.463L162.646 126.822C165.703 125.309 167.519 123.551 168.545 121.451L163.056 121.979L162.783 120.104L169.209 119.693C169.433 118.873 169.57 118.004 169.638 117.076H163.701V115.318H171.806ZM176.455 113.58V120.494H179.072V122.271H176.455V131.197H174.287V113.58H176.455Z" fill="#6C727E"/>
</svg>
