<svg width="205" height="158" viewBox="0 0 205 158" fill="none" xmlns="http://www.w3.org/2000/svg">
<path d="M15.0342 79.2015C19.3773 70.2687 26.1448 62.7372 34.5638 57.4668L38.1703 55.2091C48.9537 48.4587 61.419 44.8789 74.141 44.8789H79.0245C94.4027 44.8789 109.327 50.0915 121.361 59.6659L143.203 77.0432C156.818 87.8756 162.162 106.093 156.556 122.564L155.207 126.525C150.33 140.855 136.773 150.491 121.635 150.491V150.491C112.786 150.491 104.17 147.096 97.6957 141.063V141.063C91.2761 135.081 82.7852 131.715 74.0102 131.715H72.9075C67.1502 131.715 61.508 133.328 56.6202 136.37V136.37C43.602 144.473 26.607 141.774 16.7398 130.037L14.53 127.408C5.69273 116.895 3.86829 102.167 9.87332 89.8163L15.0342 79.2015Z" fill="#F3F5F9"/>
<path d="M102.706 19.8979C104.417 15.7857 109.03 13.7063 113.243 15.1481L142.812 25.2683C151.184 28.1334 155.438 37.4228 152.141 45.6365V45.6365V45.6365C150.073 50.6487 144.513 53.2509 139.341 51.6267L134.099 49.9804C130.039 48.7052 126.635 45.9045 124.603 42.1682L123.972 41.0075C122.081 37.5286 118.946 34.8916 115.192 33.6224L107.784 31.1175C103.16 29.554 100.83 24.4057 102.706 19.8979V19.8979Z" fill="#F3F5F9"/>
<rect x="75.9556" y="12.9961" width="13.9918" height="13.9487" rx="6.97436" fill="#F3F5F9"/>
<rect x="53.9683" y="16.9814" width="11.9929" height="11.956" rx="5.97802" fill="#F3F5F9"/>
<path d="M184.242 125.582C194.522 125.582 201.891 135.499 198.924 145.342L198.561 146.549C196.607 153.029 190.638 157.465 183.869 157.465V157.465C173.49 157.465 166.105 147.375 169.244 137.481L169.625 136.28C171.646 129.91 177.559 125.582 184.242 125.582V125.582Z" fill="#F3F5F9"/>
<path d="M114 33H118L120 90H112L114 33Z" fill="#42A5F5"/>
<rect x="114" y="19" width="4" height="4" fill="#90CAF9"/>
<path d="M114 19C114 18.4477 114.448 18 115 18H117C117.552 18 118 18.4477 118 19V19H114V19Z" fill="#64B5F6"/>
<path d="M115.5 10.5C115.5 10.2239 115.724 10 116 10V10C116.276 10 116.5 10.2239 116.5 10.5V18H115.5V10.5Z" fill="#BBDEFB"/>
<path d="M99.6284 74.0372L72.1833 67.9023L54.5792 74.0372L48.7864 87.0963H54.5792H99.6284V74.0372Z" fill="#DADFE7"/>
<path d="M52.2527 83.0676L56.1522 73.1014C56.1522 73.1014 55.7188 70.935 50.5194 69.2024C47.7082 68.2657 45.6571 68.3418 44.3659 68.6095C43.419 68.8057 43.1687 69.8545 43.7165 70.6513L52.2527 83.0676Z" fill="white"/>
<path d="M89.9482 84L82.1491 69.6361C82.1491 69.6361 84.3155 66.1699 89.9482 64.8701C93.7182 64.0001 97.4199 65.5518 99.3683 66.6088C100.182 67.0503 100.381 68.0791 99.8734 68.8537L89.9482 84Z" fill="white"/>
<path d="M99.4802 83.9346L94.7141 72.5358C94.7141 72.5358 96.7715 70.9071 100.347 70.5031C102.253 70.2877 104.334 71.0409 105.713 71.6907C106.596 72.1064 106.825 73.2004 106.274 74.0056L99.4802 83.9346Z" fill="white"/>
<path d="M60.0519 83.9343L66.9839 73.5358C66.9839 73.5358 64.9465 66.5822 60.0517 63.5702C56.5631 61.4235 53.407 61.271 51.5096 61.4661C50.4955 61.5703 50.027 62.6326 50.4611 63.555L60.0519 83.9343Z" fill="white"/>
<path d="M72.1842 84.3676L82.5826 69.6361C82.5826 69.6361 81.2146 61.6846 76.0195 56.307C70.6756 50.7754 62.5873 50.7667 58.7512 51.1343C57.6375 51.241 57.0453 52.4078 57.5243 53.4189L72.1842 84.3676Z" fill="white"/>
<path d="M104.112 85.2659C103.555 84.4336 102.62 83.9341 101.618 83.9341H65.6294L46.12 83.9343L43.1531 90.0001H107.279L104.112 85.2659Z" fill="#3A404A"/>
<path d="M78.2226 81.3352C77.6661 80.501 76.7297 80 75.7269 80H49.9095C48.7446 80 47.685 80.6743 47.1917 81.7296L46.1304 84H80.0002L78.2226 81.3352Z" fill="#B4BBC7"/>
<path d="M109.319 26.1852C109.148 24.4798 110.487 23 112.201 23H119.799C121.513 23 122.852 24.4798 122.681 26.1852L121.261 40.3913C121.113 41.8722 119.867 43 118.378 43H113.622C112.133 43 110.887 41.8722 110.739 40.3913L109.319 26.1852Z" fill="#64B5F6"/>
<rect width="6" height="2" rx="0.625238" transform="matrix(1 0 0 -1 113 29)" fill="#2196F3"/>
<rect width="6" height="2" rx="0.625238" transform="matrix(1 0 0 -1 113 34)" fill="#FBFCFD"/>
<rect width="6" height="2" rx="0.625238" transform="matrix(1 0 0 -1 113 39)" fill="#FBFCFD"/>
<rect width="6" height="2" rx="0.625238" transform="matrix(1 0 0 -1 113 29)" fill="#FBFCFD"/>
<path d="M49.2004 103.078C52.9895 103.078 55.7824 104.973 55.7824 107.844C55.7824 110.49 53.507 112.258 50.2746 112.57V115.812H57.3059V117.59H41.173V115.812H48.1262V112.57C44.9133 112.258 42.6379 110.49 42.6574 107.844C42.6379 104.973 45.4309 103.078 49.2004 103.078ZM49.2004 104.836C46.6223 104.816 44.7668 105.988 44.7863 107.844C44.7668 109.758 46.6223 110.891 49.2004 110.891C51.8176 110.891 53.6535 109.758 53.6535 107.844C53.6535 105.988 51.8176 104.816 49.2004 104.836ZM63.566 106.711C63.566 109.562 64.5621 112.531 66.9449 114.035L65.7535 115.695C64.1617 114.738 63.1266 113.088 62.5504 111.145C61.9059 113.283 60.773 115.09 59.1129 116.105L57.7652 114.484C60.3238 112.922 61.4762 109.816 61.4762 106.809V103.645H63.566V106.711ZM73.2926 102.082V119.738H71.2027V102.082H73.2926ZM69.6207 102.395V118.879H67.5699V109.953H65.0504V108.156H67.5699V102.395H69.6207ZM79.6895 103.371C82.3457 103.371 84.2598 105.793 84.2793 109.602C84.2598 113.449 82.3457 115.852 79.6895 115.852C77.0137 115.852 75.0801 113.449 75.0996 109.602C75.0801 105.793 77.0137 103.371 79.6895 103.371ZM79.6895 105.324C78.2051 105.324 77.1895 106.906 77.1895 109.602C77.1895 112.316 78.2051 113.898 79.6895 113.898C81.1934 113.898 82.1895 112.316 82.1895 109.602C82.1895 106.906 81.1934 105.324 79.6895 105.324ZM88.7715 102.082V108.859H91.4863V110.695H88.7715V119.738H86.6035V102.082H88.7715ZM106.555 102.082V119.738H104.407V102.082H106.555ZM94.9926 103.801V113.449C97.473 113.41 100.11 113.186 102.825 112.648L103.098 114.465C99.9926 115.109 97.102 115.305 94.3676 115.305H92.8441V103.801H94.9926ZM113.46 103.371C116.116 103.371 118.03 105.793 118.05 109.602C118.03 113.449 116.116 115.852 113.46 115.852C110.784 115.852 108.85 113.449 108.87 109.602C108.85 105.793 110.784 103.371 113.46 103.371ZM113.46 105.324C111.975 105.324 110.96 106.906 110.96 109.602C110.96 112.316 111.975 113.898 113.46 113.898C114.964 113.898 115.96 112.316 115.96 109.602C115.96 106.906 114.964 105.324 113.46 105.324ZM122.542 102.082V108.859H125.257V110.695H122.542V119.738H120.374V102.082H122.542Z" fill="#6C727E"/>
</svg>
