<svg width="163" height="206" viewBox="0 0 163 206" fill="none" xmlns="http://www.w3.org/2000/svg">
<path d="M0 7.72852H22.5874V7.72852C22.5874 18.4586 31.2858 27.1571 42.0159 27.1571H51.1218C58.1665 27.1571 64.9623 29.7631 70.2007 34.4734L79.4601 42.7993C84.8106 47.6104 90.97 51.437 97.6536 54.1022L119.428 62.7852C140.232 71.0813 146.297 97.6336 131.157 114.139L79.1546 170.835C75.8121 174.479 73.4599 178.92 72.3228 183.732L69.2855 196.586C67.982 202.103 63.0568 206 57.3881 206V206C50.2241 206 44.5955 199.867 45.2078 192.73L48.6147 153.012C50.0685 136.064 40.2094 120.176 24.3777 113.954V113.954C9.67093 108.174 2.72204e-05 93.9822 2.22336e-05 78.1805L0 7.72852Z" fill="#F3F5F9"/>
<path d="M51.9599 65.3889C53.0835 64.0899 55.0663 63.9976 56.3057 65.1866L82.1719 90H30.6719L51.9599 65.3889Z" fill="#AEE280"/>
<path d="M82.2137 61.1105C83.4709 59.9591 85.4337 60.0853 86.533 61.3883L110.672 90H50.6719L82.2137 61.1105Z" fill="#2DAC6C"/>
<path d="M82.1719 61L50.6719 90H97.6719L88.1719 82.4348L89.1719 74.4493L81.1719 70.6667L82.1719 61Z" fill="#68CB70"/>
<path d="M102.277 26.4399H88.6257V29.8004L107.4 29.2639C107.861 29.2508 108.228 28.8733 108.228 28.4122C108.228 27.9416 107.847 27.5601 107.376 27.5601H106.695C105.862 27.5601 105.04 27.3661 104.295 26.9935L104.002 26.8473C103.466 26.5794 102.876 26.4399 102.277 26.4399Z" fill="#BBDEFB"/>
<path d="M38.6232 26.4399H52.2742V29.8004L33.4995 29.2639C33.0386 29.2508 32.6718 28.8733 32.6718 28.4122C32.6718 27.9416 33.0533 27.5601 33.5239 27.5601H34.2052C35.0383 27.5601 35.8601 27.3661 36.6053 26.9935L36.8977 26.8473C37.4335 26.5794 38.0242 26.4399 38.6232 26.4399Z" fill="#BBDEFB"/>
<rect x="63.7835" y="45.5557" width="12.7778" height="28.8889" fill="#42A5F5"/>
<path d="M70.3933 10C74.1502 10 76.5154 12.701 76.5154 16.0322V25.6826H64.2713V16.0322C64.2713 12.701 66.6365 10.0001 70.3933 10Z" fill="#42A5F5"/>
<path d="M100.071 25.6716H77.8997V33.5126H93.5366C95.4473 33.5126 97.2484 32.6205 98.4064 31.1007L101.045 27.6381C101.659 26.8322 101.084 25.6716 100.071 25.6716Z" fill="#90CAF9"/>
<path d="M41.8276 25.6716H63.9984V33.5126H48.3616C46.4509 33.5126 44.6497 32.6205 43.4917 31.1007L40.8536 27.6381C40.2395 26.8322 40.8143 25.6716 41.8276 25.6716Z" fill="#90CAF9"/>
<path d="M64.2721 38.1626L53.3803 26.1243C53.0954 25.8094 53.3188 25.3059 53.7435 25.3059H64.2721V38.1626Z" fill="#42A5F5"/>
<path d="M76.5149 38.1626L87.4067 26.1243C87.6916 25.8094 87.4682 25.3059 87.0435 25.3059H76.5149V38.1626Z" fill="#42A5F5"/>
<path d="M61.7675 25.6826H78.5696V50.666C78.5696 53.4104 75.6696 55.1856 73.2254 53.9374L63.77 49.1082C62.541 48.4805 61.7675 47.2169 61.7675 45.8368V25.6826Z" fill="#90CAF9"/>
<path d="M74.6789 18.5702C74.6789 21.9514 74.2027 24.6925 70.3933 24.6925C66.5839 24.6925 66.1077 21.9514 66.1077 18.5702C66.1077 15.189 67.3878 12.448 70.3933 12.448C73.3988 12.448 74.6789 15.189 74.6789 18.5702Z" fill="#E3F2FD"/>
<path d="M68.9327 19.0276L65.4958 20.1016V24.6933H75.2913V20.1016L71.8544 19.0276C70.9032 18.7303 69.8839 18.7303 68.9327 19.0276Z" fill="#42A5F5"/>
<path d="M69.7969 21.6174L70.1345 21.2798C70.278 21.1363 70.5106 21.1363 70.654 21.2798L70.9916 21.6174C71.223 21.8488 71.0591 22.2445 70.7319 22.2445H70.0566C69.7294 22.2445 69.5655 21.8488 69.7969 21.6174Z" fill="#E3F2FD"/>
<rect x="60.5983" y="24.6941" width="4.89778" height="19.5911" rx="1.22445" fill="#2196F3"/>
<rect x="75.2912" y="24.6941" width="4.89778" height="23.2645" rx="1.22445" fill="#2196F3"/>
<rect x="61.6718" y="73" width="17" height="14" fill="#FFD350"/>
<rect x="60.3772" y="85.7119" width="19.2946" height="4.28769" rx="1.69721" fill="#FFC204"/>
<rect x="60.6634" y="71" width="18.8658" height="4.28769" rx="1.69721" fill="#FFDF81"/>
<rect x="61.5204" y="74.2881" width="5.14523" height="12.0055" fill="#FFC204"/>
<path d="M60.6634 72.6972C60.6634 71.7599 61.4233 71 62.3606 71H66.6662V75.2877H62.3607C61.4233 75.2877 60.6634 74.5278 60.6634 73.5905V72.6972Z" fill="#FFD160"/>
<path d="M42.7707 102.102V105.93H45.2512V107.727H42.7707V112.043H40.6027V102.102H42.7707ZM42.7707 112.902V119.504H31.3449V112.902H42.7707ZM33.4738 114.602V117.785H40.6418V114.602H33.4738ZM31.7941 102.961V109.172C34.0598 109.152 36.4426 108.947 39.0207 108.449L39.2746 110.227C36.3449 110.812 33.6301 110.969 31.0715 110.969H29.6066V102.961H31.7941ZM50.4762 103.371C53.1324 103.371 55.0465 105.793 55.066 109.602C55.0465 113.449 53.1324 115.852 50.4762 115.852C47.8004 115.852 45.8668 113.449 45.8863 109.602C45.8668 105.793 47.8004 103.371 50.4762 103.371ZM50.4762 105.324C48.9918 105.324 47.9762 106.906 47.9762 109.602C47.9762 112.316 48.9918 113.898 50.4762 113.898C51.9801 113.898 52.9762 112.316 52.9762 109.602C52.9762 106.906 51.9801 105.324 50.4762 105.324ZM59.5582 102.082V108.859H62.273V110.695H59.5582V119.738H57.3902V102.082H59.5582ZM70.0957 103.996V108.586H72.1465V102.395H74.2168V118.879H72.1465V110.344H70.0957V115.188H63.1621V103.996H70.0957ZM65.1934 105.715V113.469H68.0645V105.715H65.1934ZM77.8496 102.082V119.738H75.7598V102.082H77.8496ZM94.2074 102.082V119.758H92.059V102.082H94.2074ZM88.7777 103.625V110.246H82.7035V113.801C85.4867 113.781 87.8891 113.645 90.6332 113.176L90.8285 114.953C87.8207 115.48 85.184 115.578 82.0199 115.578H80.477V108.527H86.5707V105.383H80.4574V103.625H88.7777ZM105.565 103.82C105.565 109.152 104.1 113.723 97.5965 116.965L96.4051 115.324C99.4617 113.811 101.278 112.053 102.304 109.953L96.8152 110.48L96.5418 108.605L102.968 108.195C103.192 107.375 103.329 106.506 103.397 105.578H97.4598V103.82H105.565ZM110.214 102.082V108.996H112.831V110.773H110.214V119.699H108.046V102.082H110.214Z" fill="#6C727E"/>
</svg>
