<svg width="36" height="36" viewBox="0 0 36 36" fill="none" xmlns="http://www.w3.org/2000/svg">
<path d="M26.4904 4.5C28.0006 5.37209 28.5175 7.30337 27.6455 8.8137L24.6411 14.0175L31.1169 24.9573C31.3928 25.4235 31.3962 26.003 31.1253 26.4721L30.5394 27.487C30.0221 28.3823 28.7748 28.4982 28.1015 27.7134L21.3076 19.7912L16.8179 27.5677L18.7654 30.3644C19.0978 30.8417 19.1238 31.4683 18.833 31.972L18.5893 32.394C18.106 33.2311 16.9686 33.3997 16.2638 32.7383L12.3239 29.0371L12.3234 29.0379L7.14857 27.4756C6.22334 27.1961 5.80048 26.1275 6.28351 25.2903L6.52765 24.8675C6.81848 24.3639 7.37375 24.0739 7.95314 24.1231L11.3476 24.4117L15.8383 16.6335L5.58192 14.7106C4.56531 14.5201 4.04192 13.3819 4.55908 12.4861L5.14453 11.4721C5.41533 11.0031 5.91814 10.7157 6.4597 10.7215L19.1718 10.8597L22.1762 5.65598C23.0482 4.14558 24.98 3.62797 26.4904 4.5Z" fill="#2196F3"/>
</svg>
