<svg width="20" height="20" viewBox="0 0 20 20" fill="none" xmlns="http://www.w3.org/2000/svg">
<path d="M14.7153 2.50172C15.5552 2.98704 15.8432 4.0611 15.3583 4.90124L13.6895 7.79202L17.2893 13.8662C17.4428 14.1252 17.4445 14.4469 17.2942 14.7076L16.9695 15.2701C16.6824 15.7676 15.9899 15.8325 15.6158 15.3965L11.8397 10.9955L9.34474 15.3184L10.4263 16.8694C10.6113 17.1346 10.6263 17.484 10.4647 17.7641L10.3295 17.9972C10.0609 18.462 9.42936 18.5554 9.03791 18.1879L6.8488 16.1318L6.84831 16.1326L3.97123 15.2625C3.45725 15.1071 3.22232 14.5125 3.49074 14.0474L3.62466 13.8146C3.78627 13.5345 4.09608 13.3731 4.41817 13.4008L6.30241 13.5625L8.79687 9.24045L3.10012 8.17003C2.53565 8.06386 2.24549 7.43136 2.53261 6.93381L2.85731 6.3714C3.00783 6.11057 3.28698 5.95159 3.58805 5.95508L10.6463 6.03563L12.3156 3.14401C12.8006 2.30373 13.8752 2.01651 14.7153 2.50172Z" fill="#2196F3"/>
</svg>
