<svg width="100" height="100" viewBox="0 0 100 100" fill="none" xmlns="http://www.w3.org/2000/svg">
<path d="M26.2325 46.1731C26.1344 45.9769 26.2771 45.7461 26.4964 45.7461L29.7069 45.7461L29.7069 54.597L26.4964 54.597C26.2771 54.597 26.1344 54.3662 26.2325 54.1701L26.7566 53.1219L26.7566 47.2213L26.2325 46.1731Z" fill="#68CB70"/>
<path d="M26.2325 28.427C26.1344 28.2308 26.2771 28 26.4964 28L29.7069 28L29.7069 36.8509L26.4964 36.8509C26.2771 36.8509 26.1344 36.6201 26.2325 36.424L26.7566 35.3758L26.7566 29.4752L26.2325 28.427Z" fill="#68CB70"/>
<path d="M26.2325 63.8752C26.1344 63.679 26.2771 63.4482 26.4964 63.4482L29.7069 63.4482L29.7069 72.2992L26.4964 72.2992C26.2771 72.2992 26.1344 72.0684 26.2325 71.8722L26.7566 70.824L26.7566 64.9234L26.2325 63.8752Z" fill="#68CB70"/>
<path d="M26.2325 81.5764C26.1344 81.3802 26.2771 81.1494 26.4964 81.1494L29.7069 81.1494L29.7069 90.0004L26.7566 90.0004L26.7566 88.5252L26.7566 82.6246L26.2325 81.5764Z" fill="#68CB70"/>
<path d="M29.707 45.7461L32.9176 45.7461C33.1369 45.7461 33.2795 45.9769 33.1814 46.1731L32.6573 47.2213L32.6573 53.1219L33.1814 54.1701C33.2795 54.3662 33.1369 54.597 32.9176 54.597L29.707 54.597L29.707 45.7461Z" fill="#2DAC6C"/>
<path d="M29.707 28L32.9176 28C33.1369 28 33.2795 28.2308 33.1814 28.427L32.6573 29.4752L32.6573 35.3758L33.1814 36.424C33.2795 36.6201 33.1369 36.8509 32.9176 36.8509L29.707 36.8509L29.707 28Z" fill="#2DAC6C"/>
<path d="M29.707 63.4482L32.9176 63.4482C33.1369 63.4482 33.2795 63.679 33.1814 63.8752L32.6573 64.9234L32.6573 70.824L33.1814 71.8722C33.2795 72.0684 33.1369 72.2992 32.9176 72.2992L29.707 72.2992L29.707 63.4482Z" fill="#2DAC6C"/>
<path d="M29.707 81.1494L32.9176 81.1494C33.1369 81.1494 33.2795 81.3802 33.1814 81.5764L32.6573 82.6246L32.6573 88.5252L32.6573 90.0004L29.707 90.0004L29.707 81.1494Z" fill="#2DAC6C"/>
<path d="M29.707 36.8955L32.9176 36.8955C33.1369 36.8955 33.2795 37.1263 33.1814 37.3225L32.6573 38.3707L32.6573 44.2713L33.1814 45.3195C33.2795 45.5156 33.1369 45.7464 32.9176 45.7464L29.707 45.7464L29.707 36.8955Z" fill="#68CB70"/>
<path d="M29.707 54.5967L32.9176 54.5967C33.1369 54.5967 33.2795 54.8275 33.1814 55.0237L32.6573 56.0718L32.6573 61.9725L33.1814 63.0206C33.2795 63.2168 33.1369 63.4476 32.9176 63.4476L29.707 63.4476L29.707 54.5967Z" fill="#68CB70"/>
<path d="M29.707 72.2979L32.9176 72.2979C33.1369 72.2979 33.2795 72.5287 33.1814 72.7248L32.6573 73.773L32.6573 79.6736L33.1814 80.7218C33.2795 80.918 33.1369 81.1488 32.9176 81.1488L29.707 81.1488L29.707 72.2979Z" fill="#68CB70"/>
<path d="M26.2325 37.3225C26.1344 37.1263 26.2771 36.8955 26.4964 36.8955L29.7069 36.8955L29.7069 45.7464L26.4964 45.7464C26.2771 45.7464 26.1344 45.5156 26.2325 45.3195L26.7566 44.2713L26.7566 38.3707L26.2325 37.3225Z" fill="#AEE280"/>
<path d="M26.2325 55.0237C26.1344 54.8275 26.2771 54.5967 26.4964 54.5967L29.7069 54.5967L29.7069 63.4476L26.4964 63.4476C26.2771 63.4476 26.1344 63.2168 26.2325 63.0206L26.7566 61.9725L26.7566 56.0718L26.2325 55.0237Z" fill="#AEE280"/>
<path d="M26.2325 72.7248C26.1344 72.5287 26.2771 72.2979 26.4964 72.2979L29.7069 72.2979L29.7069 81.1488L26.4964 81.1488C26.2771 81.1488 26.1344 80.918 26.2325 80.7218L26.7566 79.6736L26.7566 73.773L26.2325 72.7248Z" fill="#AEE280"/>
<path d="M34.194 68.2901C32.8802 69.6039 33.6101 72.0856 33.6101 72.0856C33.6101 72.0856 36.0918 72.8155 37.4056 71.5017C38.7194 70.1878 38.4274 67.2682 38.4274 67.2682C38.4274 67.2682 35.5078 66.9763 34.194 68.2901Z" fill="#68CB70"/>
<path d="M34.194 75.6845C32.8802 74.3707 33.6101 71.889 33.6101 71.889C33.6101 71.889 36.0918 71.1591 37.4056 72.473C38.7194 73.7868 38.4274 76.7064 38.4274 76.7064C38.4274 76.7064 35.5078 76.9983 34.194 75.6845Z" fill="#68CB70"/>
<path d="M16.8708 28.3041C16.7725 28.1074 16.9155 27.876 17.1354 27.876H20.3546V36.7508H17.1354C16.9155 36.7508 16.7725 36.5194 16.8708 36.3227L17.3963 35.2717V29.3551L16.8708 28.3041Z" fill="#68CB70"/>
<path d="M16.8713 46.0531C16.7729 45.8564 16.916 45.625 17.1359 45.625H20.3551V54.4999H17.1359C16.916 54.4999 16.7729 54.2684 16.8713 54.0717L17.3968 53.0207V47.1041L16.8713 46.0531Z" fill="#68CB70"/>
<path d="M16.8713 63.8041C16.7729 63.6074 16.916 63.376 17.1359 63.376H20.3551V72.2508H17.1359C16.916 72.2508 16.7729 72.0194 16.8713 71.8227L17.3968 70.7717V64.8551L16.8713 63.8041Z" fill="#68CB70"/>
<path d="M16.8713 81.5522C16.7729 81.3555 16.916 81.124 17.1359 81.124H20.3551V89.9989H17.3968V88.5198V82.6032L16.8713 81.5522Z" fill="#68CB70"/>
<path d="M20.355 27.876H23.5742C23.7941 27.876 23.9371 28.1074 23.8388 28.3041L23.3133 29.3551V35.2717L23.8388 36.3227C23.9371 36.5194 23.7941 36.7508 23.5742 36.7508H20.355V27.876Z" fill="#2DAC6C"/>
<path d="M20.355 45.625H23.5742C23.7941 45.625 23.9371 45.8564 23.8388 46.0531L23.3133 47.1041V53.0207L23.8388 54.0717C23.9371 54.2684 23.7941 54.4999 23.5742 54.4999H20.355V45.625Z" fill="#2DAC6C"/>
<path d="M20.355 63.375H23.5742C23.7941 63.375 23.9371 63.6064 23.8388 63.8031L23.3133 64.8541V70.7707L23.8388 71.8217C23.9371 72.0184 23.7941 72.2499 23.5742 72.2499H20.355V63.375Z" fill="#2DAC6C"/>
<path d="M20.3555 81.125H23.5747C23.7946 81.125 23.9376 81.3564 23.8393 81.5531L23.3138 82.6041V88.5207V89.9999H20.3555V81.125Z" fill="#2DAC6C"/>
<path d="M20.355 19H23.5742C23.7941 19 23.9371 19.2314 23.8388 19.4281L23.3133 20.4791V26.3957L23.8388 27.4467C23.9371 27.6434 23.7941 27.8749 23.5742 27.8749H20.355V19Z" fill="#68CB70"/>
<path d="M20.355 36.75H23.5742C23.7941 36.75 23.9371 36.9814 23.8388 37.1781L23.3133 38.2291V44.1457L23.8388 45.1967C23.9371 45.3934 23.7941 45.6249 23.5742 45.6249H20.355V36.75Z" fill="#68CB70"/>
<path d="M20.355 54.501H23.5742C23.7941 54.501 23.9371 54.7324 23.8388 54.9291L23.3133 55.9801V61.8967L23.8388 62.9477C23.9371 63.1444 23.7941 63.3758 23.5742 63.3758H20.355V54.501Z" fill="#68CB70"/>
<path d="M20.355 72.249H23.5742C23.7941 72.249 23.9371 72.4805 23.8388 72.6772L23.3133 73.7282V79.6448L23.8388 80.6958C23.9371 80.8925 23.7941 81.1239 23.5742 81.1239H20.355V72.249Z" fill="#68CB70"/>
<path d="M16.8708 19.4281C16.7725 19.2314 16.9155 19 17.1354 19H20.3546V27.8749H17.1354C16.9155 27.8749 16.7725 27.6434 16.8708 27.4467L17.3963 26.3957V20.4791L16.8708 19.4281Z" fill="#AEE280"/>
<path d="M16.8708 37.1781C16.7725 36.9814 16.9155 36.75 17.1354 36.75H20.3546V45.6249H17.1354C16.9155 45.6249 16.7725 45.3934 16.8708 45.1967L17.3963 44.1457V38.2291L16.8708 37.1781Z" fill="#AEE280"/>
<path d="M16.8713 54.9291C16.7729 54.7324 16.916 54.501 17.1359 54.501H20.3551V63.3758H17.1359C16.916 63.3758 16.7729 63.1444 16.8713 62.9477L17.3968 61.8967V55.9801L16.8713 54.9291Z" fill="#AEE280"/>
<path d="M16.8713 72.6772C16.7729 72.4805 16.916 72.249 17.1359 72.249H20.3551V81.1239H17.1359C16.916 81.1239 16.7729 80.8925 16.8713 80.6958L17.3968 79.6448V73.7282L16.8713 72.6772Z" fill="#AEE280"/>
<path d="M15.8555 68.2309C17.1728 69.5483 16.441 72.0366 16.441 72.0366C16.441 72.0366 13.9526 72.7685 12.6352 71.4511C11.3179 70.1338 11.6106 67.2063 11.6106 67.2063C11.6106 67.2063 14.5381 66.9135 15.8555 68.2309Z" fill="#68CB70"/>
<path d="M15.8555 75.6431C17.1728 74.3257 16.441 71.8374 16.441 71.8374C16.441 71.8374 13.9526 71.1055 12.6352 72.4229C11.3179 73.7402 11.6106 76.6677 11.6106 76.6677C11.6106 76.6677 14.5381 76.9605 15.8555 75.6431Z" fill="#68CB70"/>
<path d="M15.855 32.7329C17.1723 34.0502 16.4405 36.5386 16.4405 36.5386C16.4405 36.5386 13.9521 37.2705 12.6347 35.9531C11.3174 34.6357 11.6101 31.7082 11.6101 31.7082C11.6101 31.7082 14.5376 31.4155 15.855 32.7329Z" fill="#68CB70"/>
<path d="M15.855 40.146C17.1723 38.8287 16.4405 36.3403 16.4405 36.3403C16.4405 36.3403 13.9521 35.6084 12.6347 36.9258C11.3174 38.2432 11.6101 41.1707 11.6101 41.1707C11.6101 41.1707 14.5376 41.4634 15.855 40.146Z" fill="#68CB70"/>
<path d="M75.1818 46.2591C75.0839 46.0634 75.2263 45.833 75.4452 45.833L78.6494 45.833L78.6494 54.6665L75.4452 54.6665C75.2263 54.6665 75.0839 54.4361 75.1818 54.2403L75.7049 53.1942L75.7049 47.3052L75.1818 46.2591Z" fill="#68CB70"/>
<path d="M75.1813 63.9271C75.0834 63.7313 75.2258 63.501 75.4447 63.501L78.6489 63.501L78.6489 72.3344L75.4447 72.3344C75.2258 72.3344 75.0834 72.1041 75.1813 71.9083L75.7044 70.8622L75.7044 64.9732L75.1813 63.9271Z" fill="#68CB70"/>
<path d="M75.1813 81.5931C75.0834 81.3973 75.2258 81.167 75.4447 81.167L78.6489 81.167L78.6489 90.0004L75.7044 90.0004L75.7044 88.5282L75.7044 82.6392L75.1813 81.5931Z" fill="#68CB70"/>
<path d="M78.6484 45.833L81.8526 45.833C82.0715 45.833 82.2139 46.0634 82.116 46.2591L81.5929 47.3052L81.5929 53.1942L82.116 54.2403C82.2139 54.4361 82.0715 54.6665 81.8526 54.6665L78.6484 54.6665L78.6484 45.833Z" fill="#2DAC6C"/>
<path d="M78.6484 63.501L81.8526 63.501C82.0715 63.501 82.2139 63.7313 82.116 63.9271L81.5929 64.9732L81.5929 70.8622L82.116 71.9083C82.2139 72.1041 82.0715 72.3344 81.8526 72.3344L78.6484 72.3344L78.6484 63.501Z" fill="#2DAC6C"/>
<path d="M78.6479 81.167L81.8521 81.167C82.071 81.167 82.2134 81.3973 82.1155 81.5931L81.5924 82.6392L81.5924 88.5282L81.5924 90.0004L78.6479 90.0004L78.6479 81.167Z" fill="#2DAC6C"/>
<path d="M78.6484 37.001L81.8526 37.001C82.0715 37.001 82.2139 37.2313 82.116 37.4271L81.5929 38.4732L81.5929 44.3622L82.116 45.4083C82.2139 45.6041 82.0715 45.8344 81.8526 45.8344L78.6484 45.8344L78.6484 37.001Z" fill="#68CB70"/>
<path d="M78.6479 54.667L81.8521 54.667C82.071 54.667 82.2134 54.8973 82.1155 55.0931L81.5924 56.1392L81.5924 62.0282L82.1155 63.0743C82.2134 63.2701 82.071 63.5004 81.8521 63.5004L78.6479 63.5004L78.6479 54.667Z" fill="#68CB70"/>
<path d="M78.6484 72.334L81.8526 72.334C82.0715 72.334 82.2139 72.5643 82.116 72.7601L81.5929 73.8062L81.5929 79.6952L82.116 80.7413C82.2139 80.9371 82.0715 81.1674 81.8526 81.1674L78.6484 81.1674L78.6484 72.334Z" fill="#68CB70"/>
<path d="M75.1813 37.4261C75.0834 37.2304 75.2258 37 75.4447 37L78.6489 37L78.6489 45.8334L75.4447 45.8334C75.2258 45.8334 75.0834 45.6031 75.1813 45.4073L75.7044 44.3612L75.7044 38.4722L75.1813 37.4261Z" fill="#AEE280"/>
<path d="M75.1813 55.0931C75.0834 54.8973 75.2258 54.667 75.4447 54.667L78.6489 54.667L78.6489 63.5004L75.4447 63.5004C75.2258 63.5004 75.0834 63.2701 75.1813 63.0743L75.7044 62.0282L75.7044 56.1392L75.1813 55.0931Z" fill="#AEE280"/>
<path d="M75.1813 72.7591C75.0834 72.5634 75.2258 72.333 75.4447 72.333L78.6489 72.333L78.6489 81.1665L75.4447 81.1665C75.2258 81.1665 75.0834 80.9361 75.1813 80.7403L75.7044 79.6942L75.7044 73.8052L75.1813 72.7591Z" fill="#AEE280"/>
<path d="M83.1265 68.3313C81.8152 69.6425 82.5437 72.1193 82.5437 72.1193C82.5437 72.1193 85.0204 72.8477 86.3317 71.5365C87.6429 70.2253 87.3515 67.3115 87.3515 67.3115C87.3515 67.3115 84.4377 67.0201 83.1265 68.3313Z" fill="#68CB70"/>
<path d="M83.1265 75.7107C81.8152 74.3995 82.5437 71.9227 82.5437 71.9227C82.5437 71.9227 85.0204 71.1943 86.3317 72.5055C87.6429 73.8167 87.3515 76.7305 87.3515 76.7305C87.3515 76.7305 84.4377 77.0219 83.1265 75.7107Z" fill="#68CB70"/>
<path d="M43.4718 61.7061H63.7663L66.1487 90.1184H53.619H41.0894L43.4718 61.7061Z" fill="white"/>
<path d="M35.2349 84.0535C35.2349 79.4619 40.0669 76.4756 44.1737 78.529L51.4435 82.1639C52.8661 82.8752 53.7647 84.3292 53.7647 85.9197C53.7647 88.2387 51.8847 90.1187 49.5656 90.1187H40.1761C37.4472 90.1187 35.2349 87.9064 35.2349 85.1775V84.0535Z" fill="#3A404A"/>
<path d="M73.7651 84.0535C73.7651 79.4619 68.9331 76.4756 64.8263 78.529L57.5565 82.1639C56.1339 82.8752 55.2353 84.3292 55.2353 85.9197C55.2353 88.2387 57.1153 90.1187 59.4344 90.1187H68.8239C71.5528 90.1187 73.7651 87.9064 73.7651 85.1775V84.0535Z" fill="#3A404A"/>
<path d="M63.0318 64.7764C65.6803 68.3077 65.6803 77.136 61.2661 80.6673" stroke="#3A404A" stroke-width="10.594" stroke-linecap="round"/>
<path d="M45.417 64.7764C42.7685 68.3077 42.7685 77.136 47.1826 80.6673" stroke="#3A404A" stroke-width="10.594" stroke-linecap="round"/>
<path d="M47.1416 64.7764C50.5295 68.1862 58.5827 68.1862 62.1497 64.7764" stroke="#3A404A" stroke-width="7.06265" stroke-linecap="round"/>
<path d="M46.2333 51.9276C44.409 53.8887 41.1549 53.8272 38.9651 51.7902C36.7753 49.7531 36.1118 46.9067 38.3033 44.5509C40.4948 42.1951 43.3816 42.6513 45.5714 44.6884C47.7612 46.7254 48.0576 49.9665 46.2333 51.9276Z" fill="#3A404A"/>
<path d="M62.8689 51.9409C64.7 53.9093 67.9596 53.8537 70.1494 51.8167C72.3392 49.7796 72.9985 46.9288 70.7989 44.5641C68.5992 42.1995 65.7082 42.6513 63.5184 44.6884C61.3286 46.7254 61.0378 49.9724 62.8689 51.9409Z" fill="#3A404A"/>
<path d="M69.5139 56.7238C69.5139 63.6423 65.1151 67.4614 54.558 67.4614C44.0009 67.4614 39.6021 63.6423 39.6021 56.7238C39.6021 49.8052 44.3114 43.3018 54.558 43.3018C64.8046 43.3018 69.5139 49.8052 69.5139 56.7238Z" fill="white"/>
<path d="M64.2369 53.659C64.9171 55.6659 64.7688 57.5647 62.7481 58.3499C60.7275 59.1352 59.4763 57.7802 58.7961 55.7734C58.1159 53.7665 58.5938 51.7396 60.2848 51.0825C61.9759 50.4253 63.5566 51.6521 64.2369 53.659Z" fill="#3A404A"/>
<path d="M45.257 53.6607C44.5768 55.6676 44.7216 57.565 46.7322 58.3464C48.7428 59.1277 49.9905 57.7714 50.6707 55.7646C51.3509 53.7577 50.8782 51.7328 49.1955 51.0789C47.5128 50.425 45.9372 51.6539 45.257 53.6607Z" fill="#3A404A"/>
<path d="M56.2834 57.1065C56.2834 57.7419 55.3915 58.257 54.5575 58.257C53.7235 58.257 52.832 57.7419 52.832 57.1065C52.832 56.4711 53.0473 55.9561 54.5575 55.9561C56.0677 55.9561 56.2834 56.4711 56.2834 57.1065Z" fill="#3A404A"/>
</svg>
