<svg width="100" height="100" viewBox="0 0 100 100" fill="none" xmlns="http://www.w3.org/2000/svg">
<path d="M10 71.2979H23.0729V89.9991H10V71.2979Z" fill="#D3DFFF"/>
<path d="M23.0112 54H38.0246V90H23.0112V54Z" fill="#D3DFFF"/>
<path d="M36.0234 62.7266H73.0565V89.9993H36.0234V62.7266Z" fill="#D3DFFF"/>
<path d="M72.9849 74.5H81.9929V89.9996H72.9849V74.5Z" fill="#D3DFFF"/>
<path d="M81.9927 71.4541H89.9998V89.9996H81.9927V71.4541Z" fill="#D3DFFF"/>
<path d="M55.0029 73.6543H44.0293V63.332H55.0029V73.6543ZM46.3809 73.6533H52.6514L51.084 65.9121H47.9482L46.3809 73.6533Z" fill="#1A5BFF"/>
<path d="M63.6255 89.999H59.6548C59.6882 89.7157 59.7056 89.4284 59.7056 89.1377C59.7056 84.3871 55.1438 80.5363 49.5161 80.5361C43.8883 80.5361 39.3257 84.387 39.3257 89.1377C39.3257 89.4284 39.3431 89.7157 39.3765 89.999H35.4067V77.0967H63.6255V89.999Z" fill="#1A5BFF"/>
<path d="M51.083 23.7637C51.0849 23.7771 53.8085 43.5787 57.9141 56.4512C62.1725 69.8028 73.0016 89.9429 73.0312 89.998H63.625C62.0342 82.6824 57.3541 77.6387 49.5156 77.6387C41.6771 77.6387 36.997 82.6824 35.4062 89.998H26C26.0329 89.9364 36.9253 69.5324 41.1172 56.4512C45.3153 43.3501 47.9482 23.7637 47.9482 23.7637H51.083ZM46.3809 63.332L44.0293 73.6543H55.0029L52.6514 63.332H46.3809Z" fill="#4E80FF"/>
<rect x="49.124" y="10" width="0.783856" height="12.0426" rx="0.391928" fill="#C2D3FF"/>
<path d="M47.9482 21.89C47.9482 21.0242 48.6501 20.3223 49.516 20.3223C50.3818 20.3223 51.0837 21.0242 51.0837 21.89V23.763H47.9482V21.89Z" fill="#C2D3FF"/>
<rect x="47.1646" y="22.043" width="4.70313" height="0.860189" rx="0.430095" fill="#4E80FF"/>
<path d="M49.5156 63.332H46.3809L44.0293 73.6543H49.5156V77.6387C41.6771 77.6387 36.997 82.6824 35.4062 89.998H26C26.0329 89.9364 36.9253 69.5324 41.1172 56.4512C45.3153 43.3501 47.9482 23.7637 47.9482 23.7637H49.5156V63.332Z" fill="#94B3FF"/>
<rect x="32.2705" y="73.6543" width="34.4896" height="2.58057" rx="1.29028" fill="#C2D3FF"/>
<rect x="39.3257" y="56.4502" width="20.3802" height="2.58057" rx="1.29028" fill="#C2D3FF"/>
</svg>
