<svg width="100" height="100" viewBox="0 0 100 100" fill="none" xmlns="http://www.w3.org/2000/svg">
<path d="M89.3928 90.1849H12.3181C11.0932 87.2572 12.4858 85.031 16.1962 83.9687C20.2726 83.7349 24.349 83.8721 28.4304 83.9077C32.2374 83.7755 36.0443 83.7806 39.8513 83.9077C41.0915 83.9483 42.3368 84.0246 43.5363 83.5824C46.8502 83.0894 50.1845 83.4096 53.5137 83.3384C56.7209 83.2673 56.8175 83.2012 56.8429 79.9076C56.8582 77.661 56.8226 75.4093 56.8582 73.1628C56.8734 72.0903 56.787 70.9772 57.5596 70.0674C59.2064 70.2046 58.8608 71.5617 58.9116 72.502C59.0641 75.1501 58.9522 77.8084 58.9777 80.4667C58.9878 81.3765 58.9319 82.2964 59.3436 83.1453C60.0552 84.1161 61.0921 83.928 62.073 83.9077C65.631 83.8314 69.1889 83.8111 72.7519 83.9178C76.6046 83.9738 80.4573 83.867 84.3049 83.9636C88.2288 84.0652 89.9976 86.2813 89.3877 90.1899L89.3928 90.1849Z" fill="#EDA943"/>
<path d="M73.2749 84.1306H73.0258H72.7768C71.7602 83.1191 71.9686 81.8027 71.9584 80.5726C71.9178 75.4645 71.9737 70.3513 71.9279 65.2431C71.9025 62.5696 71.6687 62.3053 69.0715 62.3154C61.6202 62.3358 62.5808 61.5429 62.5147 68.6231C62.4741 72.6436 62.5401 76.664 62.4944 80.6845C62.4486 84.4609 62.0319 84.771 58.1639 84.1306C58.1639 80.2118 58.1741 76.293 58.1537 72.3691C58.1537 71.5609 58.3977 70.6816 57.6709 70.0107C56.1206 68.0335 54.5043 66.1427 52.1358 65.0652C51.4293 64.745 50.7431 64.3282 50.0061 64.7653C47.3428 66.3461 44.4558 67.7336 43.8967 71.2966C43.5815 74.7326 43.8712 78.1685 43.7442 81.5994C43.6933 82.9107 43.8865 84.3085 41.8076 84.4254C39.7136 84.5473 39.2104 83.4647 39.0884 81.7315C38.7224 76.476 39.0681 71.2052 38.7783 65.9496C38.575 62.2748 38.6462 62.3459 34.8646 62.224C32.74 62.1579 30.4935 62.8339 28.5112 61.4819C28.4858 59.9774 28.4655 58.4729 28.4248 56.9735C28.3689 54.7015 29.5227 53.1818 31.0932 51.5959C33.2483 49.4155 34.9764 48.7445 36.9841 51.5705C37.1874 51.8552 37.5331 52.5617 38.1328 51.906C38.4327 51.7942 38.6868 51.8603 38.9003 52.0991C40.0033 54.7015 42.011 55.3673 44.7201 55.2352C48.7964 55.042 52.888 55.1234 56.9745 55.2098C59.2465 55.2555 61.3254 55.1437 62.4741 52.7599C62.6164 52.4651 62.9823 52.3431 63.3178 52.272C63.7498 52.0127 64.1514 51.6671 64.6139 51.5146C65.9252 51.0826 66.9977 48.6886 67.4297 49.2121C69.1985 51.3418 72.3803 52.2567 72.8784 55.5097C73.3155 58.356 73.1071 61.1972 73.1681 64.0436C73.2495 67.7286 73.2393 71.4186 73.2647 75.1087C74.5506 78.1177 74.5506 81.1267 73.28 84.1356L73.2749 84.1306Z" fill="#F6CF59"/>
<path d="M38.514 51.9016C38.3869 51.9016 38.2598 51.9016 38.1277 51.9016C37.9396 50.7479 37.6956 49.6042 37.5686 48.4454C37.162 44.8468 38.4072 41.8683 41.1214 39.5201C42.0668 38.7018 43.0529 37.8834 44.1456 37.3091C48.1966 35.1845 50.6668 32.1857 50.0874 27.3266C50.0518 27.0216 50.1839 26.676 50.2958 26.371C50.3415 26.2491 50.5448 26.1931 50.8396 26C51.3733 27.1639 51.6681 28.3736 51.5156 29.563C51.1547 32.4093 52.7609 34.0917 54.8092 35.5403C56.3747 36.6483 58.0418 37.6242 59.5768 38.7678C63.6837 41.8378 64.8781 45.8379 63.2974 50.9156C62.1538 51.8203 60.7967 51.6932 59.4701 51.7085C52.4864 51.8 45.4976 51.5255 38.514 51.8915V51.9016Z" fill="#F6CF5A"/>
<path d="M28.5062 61.4815C31.5151 61.4815 34.5241 61.5374 37.5331 61.4459C39.0732 61.4002 39.6526 61.9593 39.5408 63.479C39.185 68.2721 40.3845 73.0651 39.5306 77.8581C39.2206 79.6066 40.1914 81.2534 39.9017 83.0425C39.7593 83.9116 40.6996 84.1302 41.5332 84.1404C42.5752 84.1505 43.0631 83.7439 43.058 82.6664C43.0377 79.4897 43.0326 76.3129 43.0682 73.1413C43.0784 72.2569 42.7581 71.281 43.5409 70.5237C44.0949 70.9913 44.2779 71.6419 44.3084 72.3128C44.4558 75.6471 44.4507 78.9814 44.3084 82.3157C44.2779 82.9967 44.0288 83.6168 43.5561 84.1302C42.5548 85.0654 41.3197 84.5978 40.2015 84.6131C36.2777 84.669 32.3487 84.6232 28.4197 84.6181C28.2114 84.3742 28.0436 84.1048 27.9115 83.8151C27.6167 80.8366 27.1033 77.8428 28.3384 74.9355C28.3943 70.4525 28.4502 65.9645 28.5011 61.4815H28.5062Z" fill="#BBDEFB"/>
<path d="M28.4146 84.1209C28.4146 84.2886 28.4197 84.4563 28.4248 84.6241C24.2315 84.6241 20.0383 84.6241 15.8501 84.6241C18.117 84.314 18.4118 82.9213 18.4423 80.8425C18.5135 75.7039 19.1844 70.5754 18.8184 65.4164C18.7879 65.1318 18.7625 64.8522 18.7371 64.5727C20.9786 63.1902 23.2353 63.2359 25.4921 64.532C25.487 67.3478 25.4819 70.1688 25.4717 72.9846C26.0105 75.8919 27.0321 78.723 26.7678 81.7625C26.6662 82.9264 27.7081 83.4449 28.4197 84.126L28.4146 84.1209Z" fill="#64B5F6"/>
<path d="M83.3443 84.1358C80.8182 84.1358 78.2972 84.1257 75.771 84.1257C74.5512 81.4369 74.5512 78.7532 75.7812 76.0746C75.8981 72.2422 76.015 68.4098 76.1319 64.5774C78.3734 63.1848 80.6251 63.2458 82.8869 64.5215C82.9835 69.2282 82.5006 73.9551 83.3189 78.6414C84.4879 80.4712 84.4574 82.306 83.3392 84.1409L83.3443 84.1358Z" fill="#64B5F6"/>
<path d="M38.5139 51.902C38.7731 50.5195 39.8811 50.9159 40.7198 50.9159C48.2473 50.9007 55.7698 50.9159 63.2973 50.9261C63.2973 51.3734 63.3024 51.8207 63.3075 52.268C62.3926 55.4294 60.3087 56.2274 57.1116 56.0139C52.4711 55.6988 47.7899 55.9326 43.1239 55.9326C39.6626 55.9326 39.2915 55.6073 38.5088 51.902H38.5139Z" fill="#F1B748"/>
<path d="M75.7759 61.462C76.4316 57.1112 76.9246 52.7655 75.6641 48.435C77.9818 47.7285 80.2589 47.6726 82.4343 48.928C82.2869 53.106 82.6884 57.2586 82.9476 61.4214C80.5638 62.7632 78.1749 62.7124 75.7759 61.4671V61.462Z" fill="#64B5F6"/>
<path d="M24.9843 48.913C24.8165 53.0961 25.2028 57.2538 25.523 61.4166C23.2409 62.7533 20.9638 62.8093 18.6969 61.3708C18.7782 57.7316 18.8392 54.0924 18.946 50.4531C18.9663 49.6653 18.8036 48.9893 18.2344 48.4302C20.547 47.7186 22.8088 47.6779 24.9843 48.908V48.913Z" fill="#F6CF59"/>
<path d="M18.697 61.3701C20.9741 61.3854 23.246 61.4006 25.5231 61.4159C27.7189 62.4782 27.2055 63.5099 25.4875 64.5265C23.2359 64.5417 20.9842 64.557 18.7326 64.5672C16.852 63.2863 16.8418 62.4527 18.7021 61.3701H18.697Z" fill="#90CAF9"/>
<path d="M75.7758 61.4618C78.1647 61.4465 80.5586 61.4313 82.9475 61.416C85.0924 62.4885 84.5994 63.5101 82.8967 64.5165C80.645 64.5368 78.3934 64.5521 76.1417 64.5724C74.3018 63.7388 74.0324 62.7172 75.7758 61.4567V61.4618Z" fill="#90CAF9"/>
<path d="M18.7571 45.7969C18.4725 43.1335 21.2019 41.7612 21.5323 39.3367C21.5933 38.8895 22.3404 38.7776 22.4624 39.2605C23.0266 41.5579 25.5781 43.0522 25.08 45.7613C22.9809 47.154 20.8766 47.1184 18.7622 45.7969H18.7571Z" fill="#F6CF5C"/>
<path d="M76.1871 45.7968C76.0041 42.9963 78.7031 41.507 79.2977 38.9453C80.2584 41.319 82.8506 42.8234 82.5151 45.7511C80.4159 47.1539 78.3066 47.1082 76.1871 45.7968Z" fill="#F6CF5B"/>
<path d="M18.758 45.7973C20.8622 45.7871 22.9715 45.7719 25.0758 45.7617C26.9412 46.8189 26.9157 47.6932 24.9843 48.913C22.7276 48.8215 20.4505 49.0553 18.2344 48.4352C17.6804 47.4136 17.2636 46.4123 18.758 45.7973Z" fill="#64B5F6"/>
<path d="M76.1874 45.7967C78.2967 45.7815 80.4061 45.7662 82.5154 45.751C84.3198 46.9607 84.2995 47.6977 82.4341 48.9226C80.1723 48.8057 77.8901 49.0649 75.6639 48.4296C75.181 47.4181 74.6982 46.4117 76.1874 45.7967Z" fill="#64B5F6"/>
<path d="M43.556 84.1359C43.5509 79.6021 43.5458 75.0632 43.5356 70.5294C44.0338 68.2981 48.5726 63.8456 50.5346 63.6525C52.2678 63.4848 56.8321 67.556 57.6657 70.0161C57.6657 74.0111 57.5945 78.0112 57.6809 82.0063C57.7165 83.6226 57.193 84.2122 55.5462 84.1715C51.5511 84.08 47.551 84.141 43.556 84.1359Z" fill="#EB9E40"/>
<path d="M58.1641 84.1314C60.5123 84.145 61.6864 82.9878 61.6864 80.6599C61.6864 74.9724 61.7372 69.2848 61.6559 63.6023C61.6356 61.9605 62.1743 61.3659 63.8161 61.4472C65.9864 61.5539 68.1771 61.62 70.3321 61.4319C72.4821 61.2439 72.8023 62.2299 72.782 64.0648C72.7058 70.7537 72.7668 77.4426 72.7769 84.1314C72.7769 84.2992 72.7719 84.4669 72.7769 84.6346C68.6853 84.6346 64.5988 84.655 60.5072 84.6346C59.7092 84.6346 58.8147 84.9091 58.1641 84.1314Z" fill="#BBDEFB"/>
<path d="M35.9879 71.6878C36.0845 72.9331 36.1455 74.1174 34.0514 74.1225C32.1098 74.1225 31.8353 73.2228 31.9573 71.6675C32.0793 70.0969 31.876 68.1198 34.0819 68.1299C36.1455 68.1452 36.0286 69.9953 35.9879 71.6828V71.6878Z" fill="#EBA141"/>
<path d="M35.9876 80.5875C36.2417 82.036 35.647 82.6612 33.9545 82.6815C32.1603 82.707 31.8401 81.8683 31.957 80.3892C32.0739 78.9559 32.0688 77.243 33.9291 77.1871C36.0181 77.1261 36.0435 78.8746 35.9876 80.5824V80.5875Z" fill="#EBA241"/>
<path d="M69.2391 71.6979C69.2594 72.8314 69.5186 74.1122 67.4804 74.097C64.9746 74.0766 65.7828 72.3028 65.7472 71.0727C65.7116 69.8478 65.2135 67.9875 67.3432 68.1146C69.4322 68.2416 69.2746 70.046 69.2391 71.6928V71.6979Z" fill="#90CAF9"/>
<path d="M69.2291 79.7793C69.2494 81.3346 69.5645 82.7222 67.379 82.6714C65.295 82.6205 65.7931 81.2431 65.7067 80.0792C65.5949 78.534 65.7576 77.0803 67.7602 77.1668C69.6916 77.2481 69.1071 78.8746 69.2291 79.7844V79.7793Z" fill="#90CAF9"/>
</svg>
