<svg width="100" height="100" viewBox="0 0 100 100" fill="none" xmlns="http://www.w3.org/2000/svg">
<path d="M47.0002 57.9995H69.0002V89.9995H47.0002V57.9995Z" fill="#90CAF9"/>
<path d="M29.0002 49.9995H47.0002V86.9984C47.0002 88.6559 45.6566 89.9995 43.9991 89.9995H29.0002V49.9995Z" fill="#64B5F6"/>
<path d="M69.0002 50.0007C69.0002 48.3432 70.3439 46.9995 72.0014 46.9995H86.9991C88.6566 46.9995 90.0002 48.3432 90.0002 50.0007V89.9995H69.0002V50.0007Z" fill="#BBDEFB"/>
<path d="M10.0471 36.9861C10.0471 35.3367 11.3843 33.9995 13.0337 33.9995H26.3494C27.9988 33.9995 29.336 35.3367 29.336 36.9861V89.9995H10.0471V36.9861Z" fill="#BBDEFB"/>
<g style="mix-blend-mode:soft-light">
<path d="M18.8322 89.9963L41.341 73.6592V89.9963H18.8322Z" fill="black"/>
</g>
<rect x="72.7522" y="51.1733" width="2.50099" height="2.50099" rx="0.625238" fill="#64B5F6"/>
<rect x="13.781" y="37.7339" width="2.48889" height="2.48889" rx="0.622213" fill="#64B5F6"/>
<rect x="78.3787" y="51.1733" width="2.50099" height="2.50099" rx="0.625238" fill="#64B5F6"/>
<rect x="18.7581" y="37.7339" width="2.48889" height="2.48889" rx="0.622213" fill="#64B5F6"/>
<rect x="84.0051" y="51.1733" width="2.50099" height="2.50099" rx="0.625238" fill="#64B5F6"/>
<rect x="23.7361" y="37.7339" width="2.48889" height="2.48889" rx="0.622213" fill="#64B5F6"/>
<rect x="72.7522" y="56.8003" width="2.50099" height="2.50099" rx="0.625238" fill="#64B5F6"/>
<rect x="13.781" y="43.3345" width="2.48889" height="2.48889" rx="0.622213" fill="#64B5F6"/>
<rect x="78.3787" y="56.8003" width="2.50099" height="2.50099" rx="0.625238" fill="#64B5F6"/>
<rect x="18.7581" y="43.3345" width="2.48889" height="2.48889" rx="0.622213" fill="#64B5F6"/>
<rect x="84.0051" y="56.8003" width="2.50099" height="2.50099" rx="0.625238" fill="#64B5F6"/>
<rect x="23.7361" y="43.3345" width="2.48889" height="2.48889" rx="0.622213" fill="#64B5F6"/>
<rect x="72.7522" y="68.0542" width="2.50099" height="2.50099" rx="0.625238" fill="#E3F2FD"/>
<rect x="13.7809" y="54.5327" width="2.48889" height="2.48889" rx="0.622213" fill="#E3F2FD"/>
<rect x="78.3787" y="68.0542" width="2.50099" height="2.50099" rx="0.625238" fill="#64B5F6"/>
<rect x="18.7582" y="54.5327" width="2.48889" height="2.48889" rx="0.622213" fill="#64B5F6"/>
<rect x="84.0051" y="68.0542" width="2.50099" height="2.50099" rx="0.625238" fill="#64B5F6"/>
<rect x="23.736" y="54.5327" width="2.48889" height="2.48889" rx="0.622213" fill="#64B5F6"/>
<rect x="72.7522" y="62.4272" width="2.50099" height="2.50099" rx="0.625238" fill="#64B5F6"/>
<rect x="13.781" y="48.936" width="2.48889" height="2.48889" rx="0.622213" fill="#64B5F6"/>
<rect x="78.3787" y="62.4272" width="2.50099" height="2.50099" rx="0.625238" fill="#64B5F6"/>
<rect x="18.7581" y="48.936" width="2.48889" height="2.48889" rx="0.622213" fill="#64B5F6"/>
<rect x="84.0051" y="62.4272" width="2.50099" height="2.50099" rx="0.625238" fill="#E3F2FD"/>
<rect x="23.7361" y="48.936" width="2.48889" height="2.48889" rx="0.622213" fill="#E3F2FD"/>
<rect x="40.0004" y="70" width="20" height="16" fill="#FF6E61"/>
<rect x="38.6957" y="84.9473" width="22.7368" height="5.05263" rx="2" fill="#FD5243"/>
<rect x="49.9551" y="74.5171" width="2.77886" height="1.71012" rx="0.85506" transform="rotate(90 49.9551 74.5171)" fill="#FD5243"/>
<rect x="54.2308" y="74.5171" width="2.77886" height="1.71012" rx="0.85506" transform="rotate(90 54.2308 74.5171)" fill="#FD5243"/>
<rect x="58.5067" y="74.5171" width="2.77886" height="1.71012" rx="0.85506" transform="rotate(90 58.5067 74.5171)" fill="#FD5243"/>
<rect x="39.033" y="67.6104" width="22.2316" height="5.05263" rx="2" fill="#F6CF5A"/>
<path d="M39.033 69.6104C39.033 68.5058 39.9284 67.6104 41.033 67.6104H46.1066V72.663H41.033C39.9284 72.663 39.033 71.7675 39.033 70.663V69.6104Z" fill="#FBC02D"/>
<rect x="40.0427" y="72.6631" width="6.06315" height="14.1474" fill="#FD5243"/>
<path d="M42.8414 18.1472L47.3978 21.7959C47.4463 21.8348 47.4504 21.9072 47.4064 21.9512L46.0502 23.3088C46.0062 23.3528 45.9338 23.3487 45.895 23.3002L42.2499 18.7393C41.9362 18.3468 42.4492 17.8332 42.8414 18.1472Z" fill="#42A5F5"/>
<path d="M40.9952 22.0133L46.7653 22.893C46.8268 22.9023 46.8665 22.9631 46.8504 23.0232L46.354 24.8777C46.3379 24.9377 46.2731 24.9705 46.2152 24.9478L40.7788 22.8218C40.3109 22.6388 40.4986 21.9376 40.9952 22.0133Z" fill="#42A5F5"/>
<path d="M41.0648 19.2767L42.8883 32.7134L38.6618 34.863L38.3553 19.3814L41.0648 19.2767Z" fill="#90CAF9"/>
<rect width="4.33846" height="3.64328" rx="1.82164" transform="matrix(0.999254 -0.0386129 0.0547957 0.998498 36.6296 17.6245)" fill="#90CAF9"/>
<path d="M49.4609 15.5586L48.8167 21.3617C48.8098 21.4236 48.8582 21.4776 48.9204 21.4776H50.8383C50.9005 21.4776 50.9489 21.4235 50.942 21.3617L50.2978 15.5586C50.2424 15.0591 49.5163 15.0591 49.4609 15.5586Z" fill="#42A5F5"/>
<path d="M53.1122 16.2879L51.0025 21.1011C50.9772 21.1589 51.0086 21.2227 51.0695 21.2373L52.9178 21.6787C52.9788 21.6933 53.0418 21.652 53.0523 21.5907L53.9252 16.482C54.0083 15.9958 53.313 15.8298 53.1122 16.2879Z" fill="#42A5F5"/>
<path d="M56.676 18.1472L52.1197 21.7959C52.0711 21.8348 52.0671 21.9072 52.1111 21.9512L53.4673 23.3088C53.5112 23.3528 53.5836 23.3487 53.6225 23.3002L57.2676 18.7393C57.5813 18.3468 57.0682 17.8332 56.676 18.1472Z" fill="#42A5F5"/>
<path d="M59.2818 21.9689L54.1696 22.7483C53.6019 22.8348 53.2353 23.3957 53.3838 23.9504C53.5323 24.5051 54.1299 24.8074 54.6648 24.5982L59.4813 22.7146C59.9129 22.5458 59.7398 21.8991 59.2818 21.9689Z" fill="#42A5F5"/>
<path d="M46.928 16.2879L49.0377 21.1011C49.063 21.1589 49.0316 21.2227 48.9706 21.2373L47.1223 21.6787C47.0614 21.6933 46.9984 21.652 46.9879 21.5907L46.115 16.482C46.0319 15.9958 46.7272 15.8298 46.928 16.2879Z" fill="#42A5F5"/>
<path d="M54.7151 28.7393C55.1165 29.197 56.8212 30.9597 56.5003 33.8877C56.3075 35.6462 54.554 36.7926 52.3069 36.0605H47.4924C45.2454 36.7926 43.6145 34.8028 43.4807 33.8877C43.1598 30.9598 44.6828 29.197 45.0842 28.7393H54.7151Z" fill="#1E88E5"/>
<path d="M46.1943 34.5942H52.4593C54.6917 34.5942 56.5014 36.404 56.5014 38.6363V45.4607C56.5014 49.0559 53.5869 51.9704 49.9917 51.9704C46.3965 51.9704 43.482 49.0559 43.482 45.4607V42.1963L46.1943 34.5942Z" fill="#BBDEFB"/>
<path d="M46.1943 34.5942C45.2821 33.9855 44.7415 33.2087 44.3469 32.2609C43.8808 31.1414 42.4941 30.6744 41.5853 31.4773L39.1806 33.6018C38.4726 34.2273 38.069 35.1519 38.2168 36.085C38.442 37.508 38.8486 38.2259 39.6847 39.4813C40.7696 41.1103 43.482 42.1963 43.482 42.1963L46.1943 34.5942Z" fill="#BBDEFB"/>
<path d="M48.1266 32.2412H51.7258V34.1826C51.7258 35.1765 50.9201 35.9822 49.9262 35.9822C48.9323 35.9822 48.1266 35.1765 48.1266 34.1826V32.2412Z" fill="#64B5F6"/>
<ellipse cx="49.8801" cy="25.7856" rx="5.37755" ry="5.38279" fill="#BBDEFB"/>
<path d="M54.3317 28.078C54.3317 31.0769 53.3673 33.5081 49.9919 33.5081C46.6165 33.5081 45.6521 31.0769 45.6521 28.078C45.6521 25.0791 47.3288 22.6479 49.9919 22.6479C52.655 22.6479 54.3317 25.0791 54.3317 28.078Z" fill="#90CAF9"/>
<path d="M44.6924 29.1746C47.7037 29.6052 49.3407 25.9635 49.8784 24.7075C50.9538 27.9372 52.9571 29.1746 55.1081 29.1746C55.6458 24.33 53.1048 22.0161 49.8784 22.0161C44.501 22.0161 44.5131 27.2009 44.6924 29.1746Z" fill="#1E88E5"/>
<path d="M43.4682 51.9731H56.6613L59.3266 67.6117H40.8003L43.4682 51.9731Z" fill="#1E88E5"/>
<path d="M57.1869 37.2872C56.8736 35.8086 55.1075 35.1845 53.9347 36.138L45.0053 43.3983C43.4541 44.6596 42.509 46.5184 42.4039 48.5149L42.0637 54.9792L57.6893 42.4501C57.9994 42.2015 58.143 41.7995 58.0606 41.4107L57.1869 37.2872Z" fill="#90CAF9"/>
<path d="M57.5943 42.6714L41.7783 54.4135C41.1492 54.8805 40.7254 55.5729 40.5957 56.3455L40.0301 59.713C39.6393 62.0394 41.9384 63.901 44.1327 63.035L57.206 57.8754C58.4935 57.3672 59.2734 56.0514 59.101 54.678L57.5943 42.6714Z" fill="#2196F3"/>
<rect width="6.51061" height="8.68692" rx="2.02105" transform="matrix(0.927804 0.373069 -0.372444 0.928055 57.4503 36.7646)" fill="#BBDEFB"/>
<path d="M37.6315 16.5791L40.8863 16.5873L40.1758 21.2432C40.1052 21.7055 39.7069 22.0469 39.2393 22.0457C38.7717 22.0445 38.3758 21.7012 38.3086 21.2385L37.6315 16.5791Z" fill="#2196F3"/>
<path d="M36.0106 14.7554L42.5203 14.7718L42.5181 15.3978C42.5139 16.5605 41.568 17.5007 40.4053 17.4977L38.1061 17.4919C36.9434 17.489 36.0042 16.5441 36.0084 15.3814L36.0106 14.7554Z" fill="#2196F3"/>
<path d="M36.0122 14.8949C36.0143 14.3136 36.4873 13.8435 37.0686 13.8449L41.4731 13.8561C42.0544 13.8576 42.524 14.33 42.5219 14.9114L42.5201 15.4066L36.0104 15.3901L36.0122 14.8949Z" fill="#90CAF9"/>
<path d="M39.9222 17.0415L40.068 17.0359C40.8493 17.0057 41.5173 17.6141 41.5602 18.3947C41.5749 18.6626 41.5386 18.93 41.4534 19.1827L41.1154 20.1853L39.5015 18.5428C39.4276 18.4676 39.3674 18.3803 39.3235 18.2848L39.2556 18.1368C39.0242 17.6328 39.3711 17.0628 39.9222 17.0415Z" fill="#90CAF9"/>
<rect width="2.16923" height="2.73246" rx="1.08461" transform="matrix(0.999254 -0.0386129 0.0547957 0.998498 36.6794 18.5342)" fill="#90CAF9"/>
<rect width="3.35576" height="3.82736" rx="1.67788" transform="matrix(0.928555 0.371193 -0.37057 0.928804 60.6613 40.3252)" fill="#64B5F6"/>
<path d="M38.5482 10L42.4533 10.0098L39.0303 14.1178L38.5482 10Z" fill="#90CAF9"/>
</svg>
