<svg width="100" height="100" viewBox="0 0 100 100" fill="none" xmlns="http://www.w3.org/2000/svg">
<path d="M81 33H85L87 90H79L81 33Z" fill="#42A5F5"/>
<rect x="81" y="19" width="4" height="4" fill="#90CAF9"/>
<path d="M81 19C81 18.4477 81.4477 18 82 18H84C84.5523 18 85 18.4477 85 19H81Z" fill="#64B5F6"/>
<path d="M82.5 10.5C82.5 10.2239 82.7239 10 83 10C83.2761 10 83.5 10.2239 83.5 10.5V18H82.5V10.5Z" fill="#BBDEFB"/>
<path d="M66.6279 74.0372L39.1829 67.9023L21.5788 74.0372L15.786 87.0963H21.5788H66.6279V74.0372Z" fill="#DADFE7"/>
<path d="M19.2523 83.0678L23.1519 73.1016C23.1519 73.1016 22.7184 70.9353 17.519 69.2027C14.7079 68.2659 12.6567 68.3421 11.3655 68.6097C10.4187 68.806 10.1684 69.8547 10.7162 70.6515L19.2523 83.0678Z" fill="white"/>
<path d="M56.948 84L49.1489 69.6361C49.1489 69.6361 51.3153 66.1699 56.948 64.8701C60.718 64.0001 64.4197 65.5518 66.3681 66.6088C67.1821 67.0503 67.3807 68.0791 66.8732 68.8537L56.948 84Z" fill="white"/>
<path d="M66.48 83.9349L61.7139 72.536C61.7139 72.536 63.7712 70.9074 67.3466 70.5034C69.2528 70.288 71.3337 71.0412 72.7132 71.6909C73.5959 72.1066 73.8247 73.2006 73.2738 74.0059L66.48 83.9349Z" fill="white"/>
<path d="M27.0519 83.9338L33.9839 73.5353C33.9839 73.5353 31.9464 66.5817 27.0516 63.5697C23.5631 61.423 20.407 61.2706 18.5096 61.4656C17.4955 61.5698 17.0269 62.6321 17.461 63.5545L27.0519 83.9338Z" fill="white"/>
<path d="M39.1841 84.3676L49.5825 69.6361C49.5825 69.6361 48.2145 61.6846 43.0194 56.307C37.6755 50.7754 29.5873 50.7667 25.7511 51.1343C24.6375 51.241 24.0453 52.4078 24.5242 53.4189L39.1841 84.3676Z" fill="white"/>
<path d="M71.1114 85.2654C70.5546 84.4332 69.6193 83.9336 68.618 83.9336H32.6291L13.1196 83.9338L10.1527 89.9996H74.2788L71.1114 85.2654Z" fill="#3A404A"/>
<path d="M45.2223 81.3352C44.6659 80.501 43.7294 80 42.7267 80H16.9092C15.7443 80 14.6848 80.6743 14.1915 81.7296L13.1302 84H47L45.2223 81.3352Z" fill="#B4BBC7"/>
<path d="M76.3185 26.1852C76.148 24.4798 77.4872 23 79.2011 23H86.7989C88.5128 23 89.852 24.4798 89.6815 26.1852L88.2609 40.3913C88.1128 41.8722 86.8666 43 85.3783 43H80.6217C79.1334 43 77.8872 41.8722 77.7391 40.3913L76.3185 26.1852Z" fill="#64B5F6"/>
<rect width="6" height="2" rx="0.625238" transform="matrix(1 0 0 -1 80 29)" fill="#2196F3"/>
<rect width="6" height="2" rx="0.625238" transform="matrix(1 0 0 -1 80 34)" fill="#FBFCFD"/>
<rect width="6" height="2" rx="0.625238" transform="matrix(1 0 0 -1 80 39)" fill="#FBFCFD"/>
<rect width="6" height="2" rx="0.625238" transform="matrix(1 0 0 -1 80 29)" fill="#FBFCFD"/>
</svg>
