<svg width="25" height="24" viewBox="0 0 25 24" fill="none" xmlns="http://www.w3.org/2000/svg">
<path d="M7.8067 4.70134C11.0418 1.46676 16.2865 1.46672 19.5215 4.70134L19.8165 5.01091C22.7543 8.26291 22.6555 13.2832 19.5215 16.4172L19.2129 16.7111C16.2932 19.3488 11.9489 19.5381 8.8233 17.2814L4.77154 21.3342C4.25183 21.8539 3.40942 21.8539 2.8897 21.3342C2.37015 20.8144 2.37005 19.972 2.8897 19.4523L6.94146 15.3996C4.68543 12.2741 4.87433 7.93034 7.51177 5.01091L7.8067 4.70134ZM18.1075 6.11638C15.6533 3.66228 11.6749 3.66228 9.22076 6.11638C6.76668 8.57052 6.76666 12.549 9.22076 15.0031C11.6749 17.4571 15.6534 17.4572 18.1075 15.0031C20.5616 12.549 20.5615 8.57052 18.1075 6.11638Z" fill="#F3F5F9"/>
</svg>
