<svg width="64" height="30" viewBox="0 0 64 30" fill="none" xmlns="http://www.w3.org/2000/svg">
<path d="M7.8067 7.70134C11.0418 4.46676 16.2865 4.46672 19.5215 7.70134L19.8165 8.01091C22.7543 11.2629 22.6555 16.2832 19.5215 19.4172L19.2129 19.7111C16.2932 22.3488 11.9489 22.5381 8.8233 20.2814L4.77154 24.3342C4.25183 24.8539 3.40942 24.8539 2.8897 24.3342C2.37015 23.8144 2.37005 22.972 2.8897 22.4523L6.94146 18.3996C4.68543 15.2741 4.87433 10.9303 7.51177 8.01091L7.8067 7.70134ZM18.1075 9.11638C15.6533 6.66228 11.6749 6.66228 9.22076 9.11638C6.76668 11.5705 6.76666 15.549 9.22076 18.0031C11.6749 20.4571 15.6534 20.4572 18.1075 18.0031C20.5616 15.549 20.5615 11.5705 18.1075 9.11638Z" fill="#F3F5F9"/>
<path d="M38.2461 7.05859C38.2461 11.707 35.3164 14.9297 30.1016 16.375L29.125 14.4414C32.9531 13.4062 35.1602 11.4531 35.5898 9.05078H30.082V7.05859H38.2461ZM44.0078 6.04297V15.9844H41.5273V12.293H38.3633V10.2617H41.5273V6.04297H44.0078ZM44.0078 16.6875V23.582H32.2305V16.6875H44.0078ZM34.6719 18.6406V21.6289H41.5469V18.6406H34.6719ZM51.5961 9.10938C51.5961 11.082 52.5727 13.0156 54.9359 13.9531L53.5883 15.8672C52.0941 15.2617 51.0492 14.168 50.4242 12.8203C49.7602 14.3633 48.6469 15.6426 46.9867 16.3359L45.6586 14.4023C48.1586 13.3281 49.1742 11.1211 49.1742 9.10938V7.05859H51.5961V9.10938ZM61.1859 6.04297V16.8047H58.8227V12.3906H57.3383V16.707H55.0141V6.31641H57.3383V10.3594H58.8227V6.04297H61.1859ZM61.1859 17.5859V23.7969H58.7055V19.5781H48.9008V17.5859H61.1859Z" fill="#FBFCFD"/>
</svg>
