<svg width="100" height="100" viewBox="0 0 100 100" fill="none" xmlns="http://www.w3.org/2000/svg">
<path d="M31.2881 65.3889C32.4117 64.0899 34.3944 63.9976 35.6338 65.1866L61.5 90H10L31.2881 65.3889Z" fill="#AEE280"/>
<path d="M61.5419 61.1105C62.799 59.9591 64.7618 60.0853 65.8611 61.3883L90 90H30L61.5419 61.1105Z" fill="#2DAC6C"/>
<path d="M61.5 61L30 90H77L67.5 82.4348L68.5 74.4493L60.5 70.6667L61.5 61Z" fill="#68CB70"/>
<path d="M81.6046 26.4395H67.9536V29.7999L86.7283 29.2635C87.1892 29.2503 87.5561 28.8728 87.5561 28.4117C87.5561 27.9411 87.1746 27.5596 86.704 27.5596H86.0227C85.1895 27.5596 84.3677 27.3656 83.6225 26.993L83.3301 26.8468C82.7943 26.5789 82.2036 26.4395 81.6046 26.4395Z" fill="#BBDEFB"/>
<path d="M17.951 26.4395H31.6021V29.7999L12.8274 29.2635C12.3664 29.2503 11.9996 28.8728 11.9996 28.4117C11.9996 27.9411 12.3811 27.5596 12.8517 27.5596H13.533C14.3662 27.5596 15.1879 27.3656 15.9331 26.993L16.2256 26.8468C16.7613 26.5789 17.3521 26.4395 17.951 26.4395Z" fill="#BBDEFB"/>
<rect x="43.1113" y="45.5557" width="12.7778" height="28.8889" fill="#42A5F5"/>
<path d="M49.7212 10C53.4781 10 55.8433 12.701 55.8433 16.0322V25.6826H43.5991V16.0322C43.5991 12.701 45.9643 10.0001 49.7212 10Z" fill="#42A5F5"/>
<path d="M79.3984 25.6719H57.2275V33.5129H72.8644C74.7751 33.5129 76.5762 32.6208 77.7342 31.101L80.3723 27.6384C80.9864 26.8324 80.4116 25.6719 79.3984 25.6719Z" fill="#90CAF9"/>
<path d="M21.1554 25.6719H43.3262V33.5129H27.6894C25.7787 33.5129 23.9775 32.6208 22.8195 31.101L20.1814 27.6384C19.5673 26.8324 20.1421 25.6719 21.1554 25.6719Z" fill="#90CAF9"/>
<path d="M43.6 38.1623L32.7082 26.124C32.4233 25.8092 32.6468 25.3057 33.0714 25.3057H43.6V38.1623Z" fill="#42A5F5"/>
<path d="M55.8429 38.1623L66.7347 26.124C67.0196 25.8092 66.7961 25.3057 66.3715 25.3057H55.8429V38.1623Z" fill="#42A5F5"/>
<path d="M41.0952 25.6826H57.8973V50.666C57.8973 53.4104 54.9973 55.1856 52.5532 53.9374L43.0978 49.1082C41.8687 48.4805 41.0952 47.2169 41.0952 45.8368V25.6826Z" fill="#90CAF9"/>
<path d="M54.0067 18.5705C54.0067 21.9517 53.5305 24.6927 49.7211 24.6927C45.9117 24.6927 45.4355 21.9517 45.4355 18.5705C45.4355 15.1893 46.7156 12.4482 49.7211 12.4482C52.7266 12.4482 54.0067 15.1893 54.0067 18.5705Z" fill="#E3F2FD"/>
<path d="M48.2606 19.0278L44.8237 20.1018V24.6935H54.6193V20.1018L51.1824 19.0278C50.2312 18.7306 49.2119 18.7306 48.2606 19.0278Z" fill="#42A5F5"/>
<path d="M49.1246 21.6169L49.4623 21.2793C49.6057 21.1358 49.8383 21.1358 49.9817 21.2793L50.3194 21.6169C50.5508 21.8483 50.3869 22.244 50.0596 22.244H49.3844C49.0571 22.244 48.8932 21.8483 49.1246 21.6169Z" fill="#E3F2FD"/>
<rect x="39.9263" y="24.6943" width="4.89778" height="19.5911" rx="1.22445" fill="#2196F3"/>
<rect x="54.6191" y="24.6943" width="4.89778" height="23.2645" rx="1.22445" fill="#2196F3"/>
<rect x="41" y="73" width="17" height="14" fill="#FFD350"/>
<rect x="39.7056" y="85.7119" width="19.2946" height="4.28769" rx="1.69721" fill="#FFC204"/>
<rect x="39.9917" y="71" width="18.8658" height="4.28769" rx="1.69721" fill="#FFDF81"/>
<rect x="40.8486" y="74.2881" width="5.14523" height="12.0055" fill="#FFC204"/>
<path d="M39.9917 72.6972C39.9917 71.7599 40.7516 71 41.6889 71H45.9945V75.2877H41.6889C40.7516 75.2877 39.9917 74.5278 39.9917 73.5905V72.6972Z" fill="#FFD160"/>
</svg>
