<svg width="100" height="100" viewBox="0 0 100 100" fill="none" xmlns="http://www.w3.org/2000/svg">
<path d="M90 71.2979H76.9271V89.9991H90V71.2979Z" fill="#FFF5C9"/>
<path d="M76.9888 54H61.9754V90H76.9888V54Z" fill="#FFF5C9"/>
<path d="M63.9766 62.7266H26.9435V89.9993H63.9766V62.7266Z" fill="#FFF5C9"/>
<path d="M27.0151 74.5H18.0071V89.9996H27.0151V74.5Z" fill="#FFF5C9"/>
<path d="M18.0073 71.4541H10.0002V89.9996H18.0073V71.4541Z" fill="#FFF5C9"/>
<path d="M47.9341 42.4307H51.6703V44.2988C51.6703 45.3305 50.8339 46.1669 49.8022 46.1669C48.7705 46.1669 47.9341 45.3305 47.9341 44.2988V42.4307Z" fill="#FFD587"/>
<path d="M41.792 50.9163C40.682 47.6715 43.0935 44.2979 46.5229 44.2979H55.5934L45.5992 62.0448L41.792 50.9163Z" fill="#FFD587"/>
<path d="M58.4838 49.5004C59.3377 47.0045 57.4062 44.4338 54.7713 44.5591L45.5 45L49.3096 53.4722L51.2814 61.3594L54.1923 62.0448L58.4838 49.5004Z" fill="#FFB12E"/>
<path d="M57.2744 44.2979L44.5 45L50.7361 55.9735L57.2744 44.2979Z" fill="#FFD587"/>
<path d="M36 65.161C36 63.0928 37.7313 61.4459 39.7968 61.5492L49.8025 62.0495L59.8081 61.5492C61.8737 61.4459 63.605 63.0928 63.605 65.161C63.605 66.8729 62.2172 68.2606 60.5053 68.2606H39.0997C37.3878 68.2606 36 66.8729 36 65.161Z" fill="#FFB12E"/>
<path d="M40.738 68.2604C40.2945 68.2604 40.1534 67.6625 40.5501 67.4641L44.8729 65.3027V68.2604H40.738Z" fill="#FFD587"/>
<path d="M61.3662 56.7486C59.9826 52.293 58.6763 47.1006 58.6763 47.1006L54.4731 49.9027L57.8468 57.4936C58.0496 57.9499 57.8576 58.485 57.4109 58.7084L51.6709 61.5784L52.6049 62.9795L58.334 61.9378C60.6738 61.5124 62.0714 59.0197 61.3662 56.7486Z" fill="#FFB12E"/>
<path d="M56.7318 49.2436C56.4724 49.3707 56.2343 49.537 56.0258 49.7368L46.8977 58.4846C46.0084 59.3369 46.1729 60.8015 47.2291 61.4353L49.8021 62.9791L60.0669 53.142C60.6336 52.5989 60.8004 51.7594 60.4843 51.0409L59.9522 49.8315C59.5245 48.8596 58.3738 48.439 57.4203 48.9062L56.7318 49.2436Z" fill="#E23A2B"/>
<path d="M54.1043 43.8311C53.1674 43.8311 52.2925 44.2993 51.7728 45.0789L43.9721 56.7799C43.5452 57.4202 43.5547 58.2569 43.9961 58.8874L46.5333 62.5121L59.0782 50.534C60.002 49.652 60.2124 48.2568 59.5899 47.1416L58.811 45.7462C58.151 44.5638 56.9028 43.8311 55.5486 43.8311H54.1043Z" fill="#FD5243"/>
<path d="M38.8039 56.7825C40.3177 52.4511 41.863 47.5 41.863 47.5L45.5992 49.9026L42.2475 57.4441C42.036 57.9199 42.2544 58.4768 42.7331 58.682L48.4014 61.1112L47.4673 62.9793L41.7383 61.9377C39.3985 61.5123 38.0193 59.0274 38.8039 56.7825Z" fill="#FFD587"/>
<path d="M47.4678 62.9785L48.4018 61.1104L49.75 61.6239C50.1409 61.7728 50.5763 61.7511 50.9504 61.5641L51.4994 61.2896C51.7178 61.1803 51.9798 61.2083 52.1703 61.3612C52.4854 61.6143 52.4811 62.0954 52.1615 62.3428L51.5579 62.81C51.0331 63.2162 50.3662 63.3925 49.7092 63.2987L47.4678 62.9785Z" fill="#FFD587"/>
<path d="M49.8059 25.3896C57.2626 25.3899 59.0062 29.7838 58.6273 33.6953C58.5199 34.8046 58.0643 35.8438 57.582 36.8485C55.8134 40.5322 55.7364 42.2681 56.033 43.5781C56.1354 44.0305 55.6376 44.3306 55.3182 43.9943L49.8059 38.1919L44.2937 43.9942C43.9742 44.3305 43.418 44.0117 43.4794 43.5519C43.6601 42.1988 43.4125 40.3846 41.7516 36.4541C41.4396 35.7158 41.1525 34.959 41.0388 34.1656C40.4567 30.1017 42.0391 25.3894 49.8059 25.3896Z" fill="#FFB12E"/>
<path d="M55.3446 37.0736C55.3446 40.0308 53.6844 43.7282 49.8025 43.7282C45.9205 43.7282 44.2603 40.0308 44.2603 37.0736C44.2603 34.1163 43.9253 30.4189 49.8025 30.4189C55.6797 30.4189 55.3446 34.1163 55.3446 37.0736Z" fill="#FFD587"/>
<ellipse cx="49.9593" cy="33.7026" rx="0.711234" ry="1.06685" fill="#FFB12E"/>
<ellipse cx="49.8059" cy="25.3894" rx="2.84494" ry="1.77809" fill="#FFB12E"/>
<ellipse cx="49.8058" cy="23.9692" rx="1.42247" ry="1.06685" fill="#FFB12E"/>
<path d="M49.6057 17.6963C49.6326 17.4636 49.9706 17.4636 49.9974 17.6963L50.6554 23.3942H48.9478L49.6057 17.6963Z" fill="#FFB12E"/>
<rect x="40.1914" y="70.7803" width="20.5214" height="15.7469" fill="#FF6E62"/>
<rect x="39" y="85.3369" width="22.7368" height="5.05263" rx="1.61684" fill="#FD5243"/>
<rect x="39.3374" y="68" width="22.2316" height="5.05263" rx="1.61684" fill="#FFD587"/>
<path d="M39.3374 69.6168C39.3374 68.7239 40.0613 68 40.9542 68H46.4111V73.0526H40.9542C40.0613 73.0526 39.3374 72.3287 39.3374 71.4358V69.6168Z" fill="#FFC252"/>
<rect x="40.3472" y="73.0527" width="6.06315" height="14.1474" fill="#FD5243"/>
</svg>
