<svg width="100" height="100" viewBox="0 0 100 100" fill="none" xmlns="http://www.w3.org/2000/svg">
<rect x="22.5669" y="43.0322" width="55.5679" height="15.9678" fill="#64B5F6"/>
<rect x="32.9336" y="37.0273" width="34.835" height="6.00604" fill="#BBDEFB"/>
<rect x="35.2563" y="39.0293" width="2.32233" height="2.00201" rx="0.648652" fill="#BBDEFB"/>
<rect x="42.2236" y="39.0293" width="2.32233" height="2.00201" rx="0.648652" fill="#BBDEFB"/>
<rect x="49.1904" y="39.0293" width="2.32233" height="2.00201" rx="0.648652" fill="#BBDEFB"/>
<rect x="56.1582" y="39.0293" width="2.32233" height="2.00201" rx="0.648652" fill="#BBDEFB"/>
<rect x="63.124" y="39.0293" width="2.32233" height="2.00201" rx="0.648652" fill="#BBDEFB"/>
<rect x="29" y="59" width="42" height="31" fill="white"/>
<path d="M37 65.8129C37 64.2389 38.276 62.9629 39.85 62.9629C41.424 62.9629 42.7 64.2389 42.7 65.8129V69.2856C42.7 69.991 42.1281 70.5629 41.4227 70.5629H38.2773C37.5719 70.5629 37 69.991 37 69.2856V65.8129Z" fill="#42A5F5"/>
<path d="M37 78.1625C37 76.5885 38.276 75.3125 39.85 75.3125C41.424 75.3125 42.7 76.5885 42.7 78.1625V81.6352C42.7 82.3406 42.1281 82.9125 41.4227 82.9125H38.2773C37.5719 82.9125 37 82.3406 37 81.6352V78.1625Z" fill="#42A5F5"/>
<path d="M47.4497 65.8129C47.4497 64.2389 48.7257 62.9629 50.2997 62.9629C51.8737 62.9629 53.1497 64.2389 53.1497 65.8129V69.2856C53.1497 69.991 52.5778 70.5629 51.8724 70.5629H48.727C48.0216 70.5629 47.4497 69.991 47.4497 69.2856V65.8129Z" fill="#42A5F5"/>
<path d="M47.4497 78.1625C47.4497 76.5885 48.7257 75.3125 50.2997 75.3125C51.8737 75.3125 53.1497 76.5885 53.1497 78.1625V81.6352C53.1497 82.3406 52.5778 82.9125 51.8724 82.9125H48.727C48.0216 82.9125 47.4497 82.3406 47.4497 81.6352V78.1625Z" fill="#90CAF9"/>
<path d="M57.8994 65.8129C57.8994 64.2389 59.1754 62.9629 60.7494 62.9629C62.3234 62.9629 63.5994 64.2389 63.5994 65.8129V69.2856C63.5994 69.991 63.0275 70.5629 62.3221 70.5629H59.1767C58.4713 70.5629 57.8994 69.991 57.8994 69.2856V65.8129Z" fill="#42A5F5"/>
<path d="M57.8994 78.1625C57.8994 76.5885 59.1754 75.3125 60.7494 75.3125C62.3234 75.3125 63.5994 76.5885 63.5994 78.1625V81.6352C63.5994 82.3406 63.0275 82.9125 62.3221 82.9125H59.1767C58.4713 82.9125 57.8994 82.3406 57.8994 81.6352V78.1625Z" fill="#42A5F5"/>
<path d="M20.0811 22.9727H29.8108V90H20.0811V22.9727Z" fill="white"/>
<path d="M70.8921 22.9727H80.6219V90H70.8921V22.9727Z" fill="white"/>
<path d="M71 61.5C71 59.8585 70.4698 58.233 69.4395 56.7165C68.4093 55.1999 66.8993 53.8219 64.9957 52.6612C63.0921 51.5004 60.8322 50.5797 58.345 49.9515C55.8578 49.3233 53.1921 49 50.5 49C47.8079 49 45.1422 49.3233 42.655 49.9515C40.1678 50.5797 37.9079 51.5004 36.0043 52.6612C34.1007 53.8219 32.5907 55.1999 31.5605 56.7165C30.5302 58.233 30 59.8585 30 61.5L50.5 61.5H71Z" fill="white"/>
<circle cx="50.2002" cy="56" r="2" fill="#42A5F5"/>
<path d="M67.7686 37.5274C67.7686 35.7528 67.3181 33.9955 66.4428 32.356C65.5675 30.7165 64.2845 29.2267 62.6671 27.9719C61.0498 26.717 59.1297 25.7216 57.0165 25.0425C54.9033 24.3634 52.6384 24.0138 50.3511 24.0138C48.0638 24.0138 45.7989 24.3634 43.6857 25.0425C41.5725 25.7216 39.6524 26.717 38.0351 27.9719C36.4177 29.2267 35.1347 30.7165 34.2594 32.356C33.3841 33.9955 32.9336 35.7528 32.9336 37.5274L50.3511 37.5274H67.7686Z" fill="#64B5F6"/>
<path d="M50.4346 24.0156C52.7218 24.0157 54.9865 24.3649 57.0996 25.0439C59.2128 25.7231 61.1326 26.7188 62.75 27.9736C64.3673 29.2285 65.6511 30.7179 66.5264 32.3574C67.4015 33.9968 67.8515 35.7539 67.8516 37.5283H63.207C63.207 35.7538 62.8162 33.9968 62.0576 32.3574C61.2991 30.7181 60.1876 29.2284 58.7861 27.9736C57.3844 26.7188 55.72 25.7231 53.8887 25.0439C52.3902 24.4883 50.8036 24.1533 49.1904 24.0498C49.6038 24.0268 50.019 24.0156 50.4346 24.0156Z" fill="#2196F3"/>
<path d="M20.9519 17.9854C21.4296 17.3676 22.1666 17.0059 22.9476 17.0059H26.664C27.445 17.0059 28.182 17.3676 28.6597 17.9854C29.1724 18.6482 29.4505 19.4625 29.4505 20.3004V23.0119H20.1611V20.3004C20.1611 19.4625 20.4392 18.6482 20.9519 17.9854Z" fill="#42A5F5"/>
<path d="M72.0441 17.9854C72.5219 17.3676 73.2589 17.0059 74.0399 17.0059H77.7563C78.5373 17.0059 79.2743 17.3676 79.752 17.9854C80.2646 18.6482 80.5428 19.4625 80.5428 20.3004V23.0119H71.2534V20.3004C71.2534 19.4625 71.5315 18.6482 72.0441 17.9854Z" fill="#42A5F5"/>
<path d="M24.2251 10.5806C24.2251 10.2599 24.485 10 24.8057 10C25.1263 10 25.3863 10.2599 25.3863 10.5806V17.007H24.2251V10.5806Z" fill="#42A5F5"/>
<path d="M75.3174 10.5806C75.3174 10.2599 75.5773 10 75.898 10C76.2186 10 76.4786 10.2599 76.4786 10.5806V17.007H75.3174V10.5806Z" fill="#42A5F5"/>
<path d="M23.6445 13.1631C23.6445 12.5218 24.1644 12.002 24.8057 12.002C25.447 12.002 25.9669 12.5218 25.9669 13.1631V14.8448C25.9669 15.4861 25.447 16.006 24.8057 16.006C24.1644 16.006 23.6445 15.4861 23.6445 14.8448V13.1631Z" fill="#42A5F5"/>
<path d="M74.7358 13.1631C74.7358 12.5218 75.2557 12.002 75.897 12.002C76.5383 12.002 77.0582 12.5218 77.0582 13.1631V14.8448C77.0582 15.4861 76.5383 16.006 75.897 16.006C75.2557 16.006 74.7358 15.4861 74.7358 14.8448V13.1631Z" fill="#42A5F5"/>
<rect x="19" y="32.7031" width="11.892" height="4.32435" rx="1.08109" fill="#90CAF9"/>
<rect x="69.8105" y="32.7031" width="11.892" height="4.32435" rx="1.08109" fill="#90CAF9"/>
<path d="M23.6445 30.0996C23.6445 29.5026 24.1286 29.0186 24.7256 29.0186H24.8858C25.4828 29.0186 25.9669 29.5026 25.9669 30.0996V30.9405C25.9669 31.5376 25.4828 32.0216 24.8858 32.0216H24.7256C24.1286 32.0216 23.6445 31.5376 23.6445 30.9405V30.0996Z" fill="#2196F3"/>
<path d="M74.4556 30.0996C74.4556 29.5026 74.9396 29.0186 75.5367 29.0186H75.6968C76.2939 29.0186 76.7779 29.5026 76.7779 30.0996V30.9405C76.7779 31.5376 76.2939 32.0216 75.6968 32.0216H75.5367C74.9396 32.0216 74.4556 31.5376 74.4556 30.9405V30.0996Z" fill="#2196F3"/>
</svg>
