<svg width="100" height="100" viewBox="0 0 100 100" fill="none" xmlns="http://www.w3.org/2000/svg">
<rect x="21" y="23.0662" width="4.60524" height="31.9343" fill="#885842"/>
<rect x="21" y="32.1909" width="4.60524" height="2.28103" fill="#A37750"/>
<rect x="21" y="36.7515" width="4.60524" height="2.28103" fill="#A37750"/>
<rect x="21" y="41.3135" width="4.60524" height="2.28103" fill="#A37750"/>
<rect x="21" y="45.8765" width="4.60524" height="2.28103" fill="#A37750"/>
<rect x="21" y="50.4385" width="4.60524" height="2.28103" fill="#A37750"/>
<rect x="21" y="27.6289" width="4.60524" height="2.28103" fill="#A37750"/>
<path d="M60 44C60 42.2928 59.6508 40.6023 58.9724 39.0251C58.2939 37.4479 57.2995 36.0148 56.0459 34.8076C54.7924 33.6005 53.3041 32.6429 51.6662 31.9896C50.0283 31.3363 48.2728 31 46.5 31C44.7272 31 42.9717 31.3363 41.3338 31.9896C39.6959 32.6429 38.2076 33.6005 36.9541 34.8076C35.7005 36.0148 34.7061 37.4479 34.0276 39.0251C33.3492 40.6023 33 42.2928 33 44L46.5 44H60Z" fill="#FFD587"/>
<path d="M46.5 31C48.2727 31 50.0282 31.336 51.666 31.9893C53.3039 32.6426 54.7923 33.6005 56.0459 34.8076C57.2995 36.0148 58.2942 37.4482 58.9727 39.0254C59.651 40.6025 60 42.2929 60 44H56.7744C56.7744 42.2929 56.4643 40.6025 55.8613 39.0254C55.2583 37.4482 54.3741 36.0148 53.2598 34.8076C52.1455 33.6005 50.8221 32.6426 49.3662 31.9893C48.1612 31.4486 46.8846 31.1257 45.5869 31.0303C45.8904 31.0105 46.1949 31 46.5 31Z" fill="#FFB12E"/>
<path d="M27 48C27 45.7909 28.7909 44 31 44H47V81H27V48Z" fill="#FFD587"/>
<path d="M47 44H61C63.2091 44 65 45.7909 65 48V90H47V44Z" fill="#FFB12E"/>
<path d="M52 53.4892C52 52.6667 52.6667 52 53.4892 52C54.3116 52 54.9783 52.6667 54.9783 53.4892V55.5238C54.9783 56.3463 54.3116 57.013 53.4892 57.013C52.6667 57.013 52 56.3463 52 55.5238V53.4892Z" fill="#A06E4C"/>
<path d="M57.9585 53.4892C57.9585 52.6667 58.6252 52 59.4477 52C60.2701 52 60.9368 52.6667 60.9368 53.4892V57.013H57.9585V53.4892Z" fill="#A06E4C"/>
<path d="M64.77 60H73.77C75.9792 60 77.77 61.7909 77.77 64V90H64.77V60Z" fill="#FFB12E"/>
<path d="M15 59.8151C15 57.0155 17.2695 54.7461 20.069 54.7461H31.3333V62.3005H33.2279C33.4702 62.3005 33.6667 62.4969 33.6667 62.7393V64.8186H35.5612C35.8036 64.8186 36 65.0151 36 65.2574V67.3368H37.8946C38.1369 67.3368 38.3333 67.5332 38.3333 67.7755V69.8549H40.2279C40.4702 69.8549 40.6667 70.0514 40.6667 70.2937V72.373H42.5612C42.8036 72.373 43 72.5695 43 72.8118V74.8912H44.8946C45.1369 74.8912 45.3333 75.0876 45.3333 75.33V77.4093H47.2279C47.4702 77.4093 47.6667 77.6058 47.6667 77.8481V79.9275H49.5612C49.8036 79.9275 50 80.1239 50 80.3662V82.4456H51.8946C52.1369 82.4456 52.3333 82.642 52.3333 82.8844V84.9637H54.2279C54.4702 84.9637 54.6667 85.1602 54.6667 85.4025V87.4819H57V90H15V59.8151Z" fill="#FFB12E"/>
<path d="M57.9585 56.0117H60.9368V56.8724C60.9368 57.5045 60.4244 58.0169 59.7923 58.0169H59.103C58.4709 58.0169 57.9585 57.5045 57.9585 56.8724V56.0117Z" fill="#F6CF5A"/>
<path d="M33.6035 44.5762C33.6035 43.9781 34.0884 43.4932 34.6866 43.4932H37.2177C37.8158 43.4932 38.3007 43.9781 38.3007 44.5762V45.2563C38.3007 45.8545 37.8158 46.3394 37.2177 46.3394H34.6865C34.0884 46.3394 33.6035 45.8545 33.6035 45.2563V44.5762Z" fill="#6AC770"/>
<path d="M39.2432 44.4419C39.2432 43.9179 39.6679 43.4932 40.1919 43.4932H42.0522C42.5762 43.4932 43.0009 43.9179 43.0009 44.4419C43.0009 44.9659 42.5762 45.3906 42.0522 45.3906H40.1919C39.6679 45.3906 39.2432 44.9659 39.2432 44.4419Z" fill="#F6CF5A"/>
<path d="M14 58.7461C14 56.537 15.7909 54.7461 18 54.7461H20.1111V62.3005H22.119C22.3601 62.3005 22.5556 62.496 22.5556 62.7371V64.8186H24.5634C24.8046 64.8186 25 65.0141 25 65.2552V67.3368H27.0079C27.249 67.3368 27.4444 67.5322 27.4444 67.7733V69.8549H29.4523C29.6934 69.8549 29.8889 70.0504 29.8889 70.2915V72.373H31.8968C32.1379 72.373 32.3333 72.5685 32.3333 72.8096V74.8912H34.3412C34.5823 74.8912 34.7778 75.0866 34.7778 75.3277V77.4093H36.7857C37.0268 77.4093 37.2222 77.6048 37.2222 77.8459V79.9275H39.2301C39.4712 79.9275 39.6667 80.1229 39.6667 80.364V82.4456H41.6746C41.9157 82.4456 42.1111 82.641 42.1111 82.8821V84.9637H44.119C44.3601 84.9637 44.5556 85.1592 44.5556 85.4003V87.4819H47V90H14V58.7461Z" fill="#FFD587"/>
<path d="M59 77C59 74.7909 60.7909 73 63 73H65C67.2091 73 69 74.7909 69 77V90H59V77Z" fill="#A06E4C"/>
<rect x="76.7998" y="62.6284" width="3.9101" height="27.3709" fill="#A37750"/>
<rect x="76.7998" y="70.4492" width="3.9101" height="1.95506" fill="#825541"/>
<rect x="76.7998" y="74.3584" width="3.9101" height="1.95506" fill="#825541"/>
<rect x="76.7998" y="78.2688" width="3.9101" height="1.95506" fill="#825541"/>
<rect x="76.7998" y="82.1792" width="3.9101" height="1.95506" fill="#825541"/>
<rect x="76.7998" y="86.0894" width="3.9101" height="1.95506" fill="#825541"/>
<rect x="76.7998" y="66.5398" width="3.9101" height="1.95506" fill="#825541"/>
<path d="M23.2867 23.7736C20.0055 22.133 19.7222 18.9935 22.4369 14.355C22.8208 13.699 23.7526 13.699 24.1365 14.355C26.8512 18.9935 26.5679 22.133 23.2867 23.7736Z" fill="#68CB70"/>
<path d="M15.6981 30.6917C16.8579 25.7356 20.3655 24.2397 23.2096 23.8745C23.3199 27.2501 22.0519 28.1523 19.0613 30.4313C18.4992 30.8596 17.9921 31.3102 17.5455 31.7482C16.8309 32.4491 15.4553 31.7294 15.6981 30.6917Z" fill="#2DAC6C"/>
<path d="M30.566 30.6917C29.4062 25.7356 25.8987 24.2397 23.0546 23.8745C22.9442 27.2501 24.2123 28.1523 27.2029 30.4313C27.765 30.8596 28.2721 31.3102 28.7186 31.7482C29.4332 32.4491 30.8089 31.7294 30.566 30.6917Z" fill="#2DAC6C"/>
<path d="M14.6332 16.7048C21.5063 15.7446 23.4233 21.1125 24.8277 24.8575C21.7496 25.8263 20.2105 24.2872 17.1324 21.209C16.0495 20.1261 15.016 19.2057 14.2024 18.5176C13.5274 17.9467 13.7575 16.8272 14.6332 16.7048Z" fill="#2DAC6C"/>
<path d="M31.944 16.7048C25.0708 15.7446 23.1538 21.1125 21.7494 24.8575C24.8276 25.8263 26.3666 24.2872 29.4448 21.209C30.5277 20.1261 31.5611 19.2057 32.3747 18.5176C33.0498 17.9467 32.8196 16.8272 31.944 16.7048Z" fill="#2DAC6C"/>
<path d="M11.5225 24.3464C14.0974 21.4193 17.5805 20.7322 20.6015 21.1867C23.1103 21.564 23.3584 24.3086 21.2379 25.3588C20.1143 25.9153 19.0077 26.2952 17.8365 26.3555C15.6269 26.4694 13.4599 26.055 12.117 25.7183C11.4096 25.541 11.0976 24.8295 11.5225 24.3464Z" fill="#68CB70"/>
<path d="M35.1093 24.3464C32.5344 21.4193 29.0513 20.7322 26.0303 21.1867C23.5215 21.564 23.2734 24.3086 25.3939 25.3588C26.5176 25.9153 27.6242 26.2952 28.7954 26.3555C31.0049 26.4694 33.1719 26.055 34.5148 25.7183C35.2223 25.541 35.5342 24.8295 35.1093 24.3464Z" fill="#68CB70"/>
<path d="M78.8752 62.4906C75.9847 61.0453 75.7351 58.2796 78.1266 54.1934C78.4648 53.6155 79.2856 53.6155 79.6238 54.1934C82.0153 58.2796 81.7657 61.0453 78.8752 62.4906Z" fill="#7BD482"/>
<path d="M72.1909 68.586C73.2126 64.22 76.3025 62.9022 78.808 62.5805C78.9052 65.5542 77.7881 66.349 75.1536 68.3566C74.6584 68.7339 74.2117 69.1308 73.8183 69.5167C73.1888 70.1342 71.9769 69.5001 72.1909 68.586Z" fill="#02B766"/>
<path d="M85.2889 68.586C84.2671 64.22 81.1772 62.9022 78.6717 62.5805C78.5746 65.5542 79.6916 66.349 82.3261 68.3566C82.8213 68.7339 83.2681 69.1308 83.6614 69.5167C84.2909 70.1342 85.5028 69.5001 85.2889 68.586Z" fill="#02B766"/>
<path d="M71.2526 56.2639C77.3074 55.418 78.9961 60.1467 80.2333 63.4459C77.5217 64.2993 76.1658 62.9435 73.4542 60.2318C72.5002 59.2778 71.5898 58.467 70.8731 57.8608C70.2784 57.3579 70.4812 56.3716 71.2526 56.2639Z" fill="#02B766"/>
<path d="M86.5023 56.2639C80.4475 55.418 78.7588 60.1467 77.5216 63.4459C80.2332 64.2993 81.589 62.9435 84.3007 60.2318C85.2547 59.2778 86.1651 58.467 86.8818 57.8608C87.4764 57.3579 87.2737 56.3716 86.5023 56.2639Z" fill="#02B766"/>
<path d="M68.5121 62.9945C70.7805 60.4159 73.8488 59.8107 76.5102 60.211C78.7202 60.5434 78.9388 62.9612 77.0708 63.8864C76.0809 64.3766 75.1061 64.7112 74.0743 64.7644C72.1278 64.8648 70.2189 64.4997 69.0358 64.2031C68.4126 64.0468 68.1378 63.42 68.5121 62.9945Z" fill="#7BD482"/>
<path d="M89.2906 62.9945C87.0223 60.4159 83.9539 59.8107 81.2926 60.211C79.0825 60.5434 78.864 62.9612 80.732 63.8864C81.7218 64.3766 82.6967 64.7112 83.7284 64.7644C85.6749 64.8648 87.5839 64.4997 88.7669 64.2031C89.3901 64.0468 89.6649 63.42 89.2906 62.9945Z" fill="#7BD482"/>
</svg>
