<svg width="101" height="100" viewBox="0 0 101 100" fill="none" xmlns="http://www.w3.org/2000/svg">
<path d="M26.4787 46.1728C26.3806 45.9767 26.5232 45.7458 26.7426 45.7458L29.9531 45.7458L29.9531 54.5968L26.7426 54.5968C26.5232 54.5968 26.3806 54.366 26.4787 54.1698L27.0028 53.1216L27.0028 47.221L26.4787 46.1728Z" fill="#68CB70"/>
<path d="M26.4787 28.427C26.3806 28.2308 26.5232 28 26.7426 28L29.9531 28L29.9531 36.8509L26.7426 36.8509C26.5232 36.8509 26.3806 36.6201 26.4787 36.424L27.0028 35.3758L27.0028 29.4752L26.4787 28.427Z" fill="#68CB70"/>
<path d="M26.4787 63.8755C26.3806 63.6793 26.5232 63.4485 26.7426 63.4485L29.9531 63.4485L29.9531 72.2994L26.7426 72.2994C26.5232 72.2994 26.3806 72.0686 26.4787 71.8725L27.0028 70.8243L27.0028 64.9236L26.4787 63.8755Z" fill="#68CB70"/>
<path d="M26.4787 81.5761C26.3806 81.38 26.5232 81.1492 26.7426 81.1492L29.9531 81.1492L29.9531 90.0001L27.0028 90.0001L27.0028 88.525L27.0028 82.6243L26.4787 81.5761Z" fill="#68CB70"/>
<path d="M29.953 45.7458L33.1635 45.7458C33.3828 45.7458 33.5255 45.9767 33.4274 46.1728L32.9033 47.221L32.9033 53.1216L33.4274 54.1698C33.5255 54.366 33.3828 54.5968 33.1635 54.5968L29.953 54.5968L29.953 45.7458Z" fill="#2DAC6C"/>
<path d="M29.953 28L33.1635 28C33.3828 28 33.5255 28.2308 33.4274 28.427L32.9033 29.4752L32.9033 35.3758L33.4274 36.424C33.5255 36.6201 33.3828 36.8509 33.1635 36.8509L29.953 36.8509L29.953 28Z" fill="#2DAC6C"/>
<path d="M29.953 63.4485L33.1635 63.4485C33.3828 63.4485 33.5255 63.6793 33.4274 63.8755L32.9033 64.9236L32.9033 70.8243L33.4274 71.8725C33.5255 72.0686 33.3828 72.2994 33.1635 72.2994L29.953 72.2994L29.953 63.4485Z" fill="#2DAC6C"/>
<path d="M29.953 81.1492L33.1635 81.1492C33.3828 81.1492 33.5255 81.38 33.4274 81.5761L32.9033 82.6243L32.9033 88.525L32.9033 90.0001L29.953 90.0001L29.953 81.1492Z" fill="#2DAC6C"/>
<path d="M29.953 36.895L33.1635 36.895C33.3828 36.895 33.5255 37.1258 33.4274 37.322L32.9033 38.3702L32.9033 44.2708L33.4274 45.319C33.5255 45.5152 33.3828 45.746 33.1635 45.746L29.953 45.746L29.953 36.895Z" fill="#68CB70"/>
<path d="M29.953 54.5967L33.1635 54.5967C33.3828 54.5967 33.5255 54.8275 33.4274 55.0237L32.9033 56.0718L32.9033 61.9725L33.4274 63.0206C33.5255 63.2168 33.3828 63.4476 33.1635 63.4476L29.953 63.4476L29.953 54.5967Z" fill="#68CB70"/>
<path d="M29.953 72.2983L33.1635 72.2983C33.3828 72.2983 33.5255 72.5291 33.4274 72.7253L32.9033 73.7735L32.9033 79.6741L33.4274 80.7223C33.5255 80.9185 33.3828 81.1493 33.1635 81.1493L29.953 81.1493L29.953 72.2983Z" fill="#68CB70"/>
<path d="M26.4787 37.322C26.3806 37.1258 26.5232 36.895 26.7426 36.895L29.9531 36.895L29.9531 45.746L26.7426 45.746C26.5232 45.746 26.3806 45.5152 26.4787 45.319L27.0028 44.2708L27.0028 38.3702L26.4787 37.322Z" fill="#AEE280"/>
<path d="M26.4787 55.0237C26.3806 54.8275 26.5232 54.5967 26.7426 54.5967L29.9531 54.5967L29.9531 63.4476L26.7426 63.4476C26.5232 63.4476 26.3806 63.2168 26.4787 63.0206L27.0028 61.9725L27.0028 56.0718L26.4787 55.0237Z" fill="#AEE280"/>
<path d="M26.4787 72.7253C26.3806 72.5291 26.5232 72.2983 26.7426 72.2983L29.9531 72.2983L29.9531 81.1493L26.7426 81.1493C26.5232 81.1493 26.3806 80.9185 26.4787 80.7223L27.0028 79.6741L27.0028 73.7735L26.4787 72.7253Z" fill="#AEE280"/>
<path d="M34.4399 68.2906C33.1261 69.6044 33.8559 72.0861 33.8559 72.0861C33.8559 72.0861 36.3376 72.816 37.6514 71.5021C38.9652 70.1883 38.6733 67.2687 38.6733 67.2687C38.6733 67.2687 35.7537 66.9768 34.4399 68.2906Z" fill="#68CB70"/>
<path d="M34.4399 75.6847C33.1261 74.3709 33.856 71.8893 33.856 71.8893C33.856 71.8893 36.3376 71.1594 37.6514 72.4732C38.9652 73.787 38.6733 76.7066 38.6733 76.7066C38.6733 76.7066 35.7537 76.9986 34.4399 75.6847Z" fill="#68CB70"/>
<path d="M17.1169 28.3039C17.0185 28.1072 17.1616 27.8757 17.3815 27.8757H20.6007V36.7506H17.3815C17.1616 36.7506 17.0185 36.5192 17.1169 36.3225L17.6424 35.2715V29.3549L17.1169 28.3039Z" fill="#68CB70"/>
<path d="M17.1174 46.0534C17.019 45.8567 17.1621 45.6252 17.382 45.6252H20.6012V54.5001H17.382C17.1621 54.5001 17.019 54.2687 17.1174 54.072L17.6429 53.021V47.1044L17.1174 46.0534Z" fill="#68CB70"/>
<path d="M17.1174 63.8039C17.019 63.6072 17.1621 63.3757 17.382 63.3757H20.6012V72.2506H17.382C17.1621 72.2506 17.019 72.0192 17.1174 71.8225L17.6429 70.7715V64.8549L17.1174 63.8039Z" fill="#68CB70"/>
<path d="M17.1174 81.5522C17.019 81.3555 17.1621 81.124 17.382 81.124H20.6012V89.9989H17.6429V88.5198V82.6032L17.1174 81.5522Z" fill="#68CB70"/>
<path d="M20.601 27.8757H23.8202C24.0401 27.8757 24.1831 28.1072 24.0848 28.3039L23.5592 29.3549V35.2715L24.0848 36.3225C24.1831 36.5192 24.0401 36.7506 23.8202 36.7506H20.601V27.8757Z" fill="#2DAC6C"/>
<path d="M20.601 45.6252H23.8202C24.0401 45.6252 24.1831 45.8567 24.0848 46.0534L23.5592 47.1044V53.021L24.0848 54.072C24.1831 54.2687 24.0401 54.5001 23.8202 54.5001H20.601V45.6252Z" fill="#2DAC6C"/>
<path d="M20.601 63.3748H23.8202C24.0401 63.3748 24.1831 63.6062 24.0848 63.8029L23.5592 64.8539V70.7705L24.0848 71.8215C24.1831 72.0182 24.0401 72.2496 23.8202 72.2496H20.601V63.3748Z" fill="#2DAC6C"/>
<path d="M20.6014 81.1252H23.8206C24.0406 81.1252 24.1836 81.3567 24.0852 81.5534L23.5597 82.6044V88.521V90.0001H20.6014V81.1252Z" fill="#2DAC6C"/>
<path d="M20.601 19H23.8202C24.0401 19 24.1831 19.2314 24.0848 19.4281L23.5592 20.4791V26.3957L24.0848 27.4467C24.1831 27.6434 24.0401 27.8749 23.8202 27.8749H20.601V19Z" fill="#68CB70"/>
<path d="M20.601 36.7505H23.8202C24.0401 36.7505 24.1831 36.9819 24.0848 37.1786L23.5592 38.2296V44.1462L24.0848 45.1972C24.1831 45.3939 24.0401 45.6254 23.8202 45.6254H20.601V36.7505Z" fill="#68CB70"/>
<path d="M20.601 54.501H23.8202C24.0401 54.501 24.1831 54.7324 24.0848 54.9291L23.5592 55.9801V61.8967L24.0848 62.9477C24.1831 63.1444 24.0401 63.3758 23.8202 63.3758H20.601V54.501Z" fill="#68CB70"/>
<path d="M20.601 72.2495H23.8202C24.0401 72.2495 24.1831 72.4809 24.0848 72.6776L23.5592 73.7287V79.6452L24.0848 80.6963C24.1831 80.893 24.0401 81.1244 23.8202 81.1244H20.601V72.2495Z" fill="#68CB70"/>
<path d="M17.1169 19.4281C17.0185 19.2314 17.1616 19 17.3815 19H20.6007V27.8749H17.3815C17.1616 27.8749 17.0185 27.6434 17.1169 27.4467L17.6424 26.3957V20.4791L17.1169 19.4281Z" fill="#AEE280"/>
<path d="M17.1169 37.1786C17.0185 36.9819 17.1616 36.7505 17.3815 36.7505H20.6007V45.6254H17.3815C17.1616 45.6254 17.0185 45.3939 17.1169 45.1972L17.6424 44.1462V38.2296L17.1169 37.1786Z" fill="#AEE280"/>
<path d="M17.1174 54.9291C17.019 54.7324 17.1621 54.501 17.382 54.501H20.6012V63.3758H17.382C17.1621 63.3758 17.019 63.1444 17.1174 62.9477L17.6429 61.8967V55.9801L17.1174 54.9291Z" fill="#AEE280"/>
<path d="M17.1174 72.6776C17.019 72.4809 17.1621 72.2495 17.382 72.2495H20.6012V81.1244H17.382C17.1621 81.1244 17.019 80.893 17.1174 80.6963L17.6429 79.6452V73.7287L17.1174 72.6776Z" fill="#AEE280"/>
<path d="M16.1019 68.2304C17.4193 69.5478 16.6874 72.0362 16.6874 72.0362C16.6874 72.0362 14.1991 72.768 12.8817 71.4507C11.5643 70.1333 11.8571 67.2058 11.8571 67.2058C11.8571 67.2058 14.7846 66.9131 16.1019 68.2304Z" fill="#68CB70"/>
<path d="M16.1019 75.6436C17.4193 74.3262 16.6874 71.8379 16.6874 71.8379C16.6874 71.8379 14.1991 71.106 12.8817 72.4234C11.5643 73.7407 11.8571 76.6682 11.8571 76.6682C11.8571 76.6682 14.7846 76.961 16.1019 75.6436Z" fill="#68CB70"/>
<path d="M16.1014 32.7329C17.4188 34.0502 16.6869 36.5386 16.6869 36.5386C16.6869 36.5386 14.1986 37.2705 12.8812 35.9531C11.5638 34.6357 11.8566 31.7082 11.8566 31.7082C11.8566 31.7082 14.7841 31.4155 16.1014 32.7329Z" fill="#68CB70"/>
<path d="M16.1014 40.1458C17.4188 38.8284 16.6869 36.3401 16.6869 36.3401C16.6869 36.3401 14.1986 35.6082 12.8812 36.9256C11.5638 38.2429 11.8566 41.1704 11.8566 41.1704C11.8566 41.1704 14.7841 41.4632 16.1014 40.1458Z" fill="#68CB70"/>
<path d="M75.4277 46.2594C75.3298 46.0636 75.4722 45.8333 75.6911 45.8333L78.8953 45.8333L78.8953 54.6667L75.6911 54.6667C75.4722 54.6667 75.3298 54.4363 75.4277 54.2406L75.9508 53.1945L75.9508 47.3055L75.4277 46.2594Z" fill="#68CB70"/>
<path d="M75.4272 63.9271C75.3293 63.7313 75.4717 63.501 75.6906 63.501L78.8948 63.501L78.8948 72.3344L75.6906 72.3344C75.4717 72.3344 75.3293 72.1041 75.4272 71.9083L75.9503 70.8622L75.9503 64.9732L75.4272 63.9271Z" fill="#68CB70"/>
<path d="M75.4272 81.5926C75.3293 81.3969 75.4717 81.1665 75.6906 81.1665L78.8948 81.1665L78.8948 90L75.9503 90L75.9503 88.5277L75.9503 82.6387L75.4272 81.5926Z" fill="#68CB70"/>
<path d="M78.8946 45.8333L82.0988 45.8333C82.3177 45.8333 82.46 46.0636 82.3621 46.2594L81.8391 47.3055L81.8391 53.1945L82.3621 54.2406C82.46 54.4363 82.3177 54.6667 82.0988 54.6667L78.8946 54.6667L78.8946 45.8333Z" fill="#2DAC6C"/>
<path d="M78.8946 63.501L82.0988 63.501C82.3177 63.501 82.46 63.7313 82.3621 63.9271L81.8391 64.9732L81.8391 70.8622L82.3621 71.9083C82.46 72.1041 82.3177 72.3344 82.0988 72.3344L78.8946 72.3344L78.8946 63.501Z" fill="#2DAC6C"/>
<path d="M78.8941 81.1665L82.0983 81.1665C82.3172 81.1665 82.4595 81.3969 82.3616 81.5926L81.8386 82.6387L81.8386 88.5277L81.8386 90L78.8941 90L78.8941 81.1665Z" fill="#2DAC6C"/>
<path d="M78.8946 37.001L82.0988 37.001C82.3177 37.001 82.46 37.2313 82.3621 37.4271L81.8391 38.4732L81.8391 44.3622L82.3621 45.4083C82.46 45.6041 82.3177 45.8344 82.0988 45.8344L78.8946 45.8344L78.8946 37.001Z" fill="#68CB70"/>
<path d="M78.8941 54.6665L82.0983 54.6665C82.3172 54.6665 82.4595 54.8969 82.3616 55.0926L81.8386 56.1387L81.8386 62.0277L82.3616 63.0738C82.4595 63.2696 82.3172 63.5 82.0983 63.5L78.8941 63.5L78.8941 54.6665Z" fill="#68CB70"/>
<path d="M78.8946 72.3342L82.0988 72.3342C82.3177 72.3342 82.46 72.5646 82.3621 72.7604L81.8391 73.8065L81.8391 79.6954L82.3621 80.7415C82.46 80.9373 82.3177 81.1677 82.0988 81.1677L78.8946 81.1677L78.8946 72.3342Z" fill="#68CB70"/>
<path d="M75.4272 37.4261C75.3293 37.2304 75.4717 37 75.6906 37L78.8948 37L78.8948 45.8334L75.6906 45.8334C75.4717 45.8334 75.3293 45.6031 75.4272 45.4073L75.9503 44.3612L75.9503 38.4722L75.4272 37.4261Z" fill="#AEE280"/>
<path d="M75.4272 55.0926C75.3293 54.8969 75.4717 54.6665 75.6906 54.6665L78.8948 54.6665L78.8948 63.5L75.6906 63.5C75.4717 63.5 75.3293 63.2696 75.4272 63.0738L75.9503 62.0277L75.9503 56.1387L75.4272 55.0926Z" fill="#AEE280"/>
<path d="M75.4272 72.7594C75.3293 72.5636 75.4717 72.3333 75.6906 72.3333L78.8948 72.3333L78.8948 81.1667L75.6906 81.1667C75.4717 81.1667 75.3293 80.9363 75.4272 80.7406L75.9503 79.6945L75.9503 73.8055L75.4272 72.7594Z" fill="#AEE280"/>
<path d="M83.3729 68.3318C82.0617 69.643 82.7902 72.1198 82.7902 72.1198C82.7902 72.1198 85.2669 72.8482 86.5781 71.537C87.8893 70.2258 87.598 67.3119 87.598 67.3119C87.598 67.3119 84.6841 67.0206 83.3729 68.3318Z" fill="#68CB70"/>
<path d="M83.3729 75.7112C82.0617 74.4 82.7902 71.9232 82.7902 71.9232C82.7902 71.9232 85.2669 71.1948 86.5781 72.506C87.8893 73.8172 87.598 76.731 87.598 76.731C87.598 76.731 84.6841 77.0224 83.3729 75.7112Z" fill="#68CB70"/>
<path d="M43.7179 61.7063H64.0125L66.3949 90.1187H53.8652H41.3355L43.7179 61.7063Z" fill="white"/>
<path d="M35.481 84.0535C35.481 79.4619 40.3131 76.4756 44.4199 78.529L51.6896 82.1639C53.1122 82.8752 54.0108 84.3292 54.0108 85.9197C54.0108 88.2387 52.1308 90.1187 49.8117 90.1187H40.4223C37.6933 90.1187 35.481 87.9064 35.481 85.1775V84.0535Z" fill="#3A404A"/>
<path d="M74.0113 84.0535C74.0113 79.4619 69.1793 76.4756 65.0724 78.529L57.8027 82.1639C56.3801 82.8752 55.4815 84.3292 55.4815 85.9197C55.4815 88.2387 57.3615 90.1187 59.6806 90.1187H69.07C71.799 90.1187 74.0113 87.9064 74.0113 85.1775V84.0535Z" fill="#3A404A"/>
<path d="M63.2782 64.7764C65.9267 68.3077 65.9267 77.136 61.5125 80.6673" stroke="#3A404A" stroke-width="10.594" stroke-linecap="round"/>
<path d="M45.6634 64.7764C43.0149 68.3077 43.0149 77.136 47.429 80.6673" stroke="#3A404A" stroke-width="10.594" stroke-linecap="round"/>
<path d="M47.388 64.7764C50.7759 68.1862 58.8291 68.1862 62.3961 64.7764" stroke="#3A404A" stroke-width="7.06265" stroke-linecap="round"/>
<path d="M46.4793 51.9276C44.655 53.8887 41.4009 53.8272 39.2111 51.7902C37.0213 49.7531 36.3578 46.9067 38.5493 44.5509C40.7408 42.1951 43.6277 42.6513 45.8175 44.6884C48.0073 46.7254 48.3036 49.9665 46.4793 51.9276Z" fill="#3A404A"/>
<path d="M63.1151 51.9409C64.9461 53.9093 68.2057 53.8537 70.3955 51.8167C72.5853 49.7796 73.2447 46.9288 71.045 44.5641C68.8454 42.1995 65.9544 42.6513 63.7646 44.6884C61.5748 46.7254 61.284 49.9724 63.1151 51.9409Z" fill="#3A404A"/>
<path d="M69.76 56.7238C69.76 63.6423 65.3612 67.4614 54.804 67.4614C44.2469 67.4614 39.8481 63.6423 39.8481 56.7238C39.8481 49.8052 44.5574 43.3018 54.804 43.3018C65.0507 43.3018 69.76 49.8052 69.76 56.7238Z" fill="white"/>
<path d="M64.483 53.659C65.1632 55.6659 65.0149 57.5647 62.9942 58.3499C60.9736 59.1352 59.7224 57.7802 59.0422 55.7734C58.362 53.7665 58.8399 51.7396 60.5309 51.0825C62.222 50.4253 63.8027 51.6521 64.483 53.659Z" fill="#3A404A"/>
<path d="M45.5031 53.6607C44.8229 55.6676 44.9677 57.565 46.9783 58.3464C48.9889 59.1277 50.2366 57.7714 50.9168 55.7646C51.597 53.7577 51.1242 51.7328 49.4416 51.0789C47.7589 50.425 46.1833 51.6539 45.5031 53.6607Z" fill="#3A404A"/>
<path d="M56.5295 57.1065C56.5295 57.7419 55.6376 58.257 54.8036 58.257C53.9696 58.257 53.0781 57.7419 53.0781 57.1065C53.0781 56.4711 53.2934 55.9561 54.8036 55.9561C56.3138 55.9561 56.5295 56.4711 56.5295 57.1065Z" fill="#3A404A"/>
</svg>
