<svg width="101" height="100" viewBox="0 0 101 100" fill="none" xmlns="http://www.w3.org/2000/svg">
<path d="M10.1929 71.2981H23.2658V89.9994H10.1929V71.2981Z" fill="#D3DFFF"/>
<path d="M23.204 54H38.2174V90H23.204V54Z" fill="#D3DFFF"/>
<path d="M36.2163 62.7266H73.2494V89.9993H36.2163V62.7266Z" fill="#D3DFFF"/>
<path d="M73.1777 74.5002H82.1858V89.9998H73.1777V74.5002Z" fill="#D3DFFF"/>
<path d="M82.1855 71.4543H90.1927V89.9998H82.1855V71.4543Z" fill="#D3DFFF"/>
<path d="M55.1956 73.6541H44.222V63.3318H55.1956V73.6541ZM46.5735 73.6531H52.8441L51.2767 65.9119H48.1409L46.5735 73.6531Z" fill="#1A5BFF"/>
<path d="M63.8181 89.9988H59.8474C59.8808 89.7155 59.8982 89.4282 59.8982 89.1375C59.8982 84.3869 55.3364 80.5361 49.7087 80.5359C44.0809 80.5359 39.5183 84.3868 39.5183 89.1375C39.5183 89.4282 39.5357 89.7155 39.5691 89.9988H35.5993V77.0964H63.8181V89.9988Z" fill="#1A5BFF"/>
<path d="M51.2758 23.7637C51.2776 23.7771 54.0013 43.5787 58.1068 56.4512C62.3652 69.8028 73.1943 89.9429 73.224 89.998H63.8177C62.227 82.6824 57.5469 77.6387 49.7084 77.6387C41.8699 77.6387 37.1898 82.6824 35.599 89.998H26.1927C26.2257 89.9364 37.1181 69.5324 41.3099 56.4512C45.5081 43.3501 48.141 23.7637 48.141 23.7637H51.2758ZM46.5736 63.332L44.222 73.6543H55.1957L52.8441 63.332H46.5736Z" fill="#4E80FF"/>
<rect x="49.317" y="10" width="0.783856" height="12.0426" rx="0.391928" fill="#C2D3FF"/>
<path d="M48.1411 21.89C48.1411 21.0242 48.843 20.3223 49.7088 20.3223C50.5746 20.3223 51.2765 21.0242 51.2765 21.89V23.763H48.1411V21.89Z" fill="#C2D3FF"/>
<rect x="47.3572" y="22.043" width="4.70313" height="0.860189" rx="0.430095" fill="#4E80FF"/>
<path d="M49.7084 63.332H46.5736L44.222 73.6543H49.7084V77.6387C41.8699 77.6387 37.1898 82.6824 35.599 89.998H26.1927C26.2257 89.9364 37.1181 69.5324 41.3099 56.4512C45.5081 43.3501 48.141 23.7637 48.141 23.7637H49.7084V63.332Z" fill="#94B3FF"/>
<rect x="32.4631" y="73.6538" width="34.4896" height="2.58057" rx="1.29028" fill="#C2D3FF"/>
<rect x="39.5184" y="56.45" width="20.3802" height="2.58057" rx="1.29028" fill="#C2D3FF"/>
</svg>
