<svg width="100" height="101" viewBox="0 0 100 101" fill="none" xmlns="http://www.w3.org/2000/svg">
<path d="M47.0002 58.4976H69.0002V90.4976H47.0002V58.4976Z" fill="#90CAF9"/>
<path d="M29.0002 50.4976H47.0002V87.4964C47.0002 89.1539 45.6565 90.4976 43.999 90.4976H29.0002V50.4976Z" fill="#64B5F6"/>
<path d="M69.0002 50.4987C69.0002 48.8412 70.3438 47.4976 72.0013 47.4976H86.999C88.6565 47.4976 90.0002 48.8412 90.0002 50.4987V90.4976H69.0002V50.4987Z" fill="#BBDEFB"/>
<path d="M10.0471 37.4842C10.0471 35.8347 11.3842 34.4976 13.0337 34.4976H26.3493C27.9988 34.4976 29.3359 35.8347 29.3359 37.4842V90.4976H10.0471V37.4842Z" fill="#BBDEFB"/>
<g style="mix-blend-mode:soft-light">
<path d="M18.8321 90.4943L41.341 74.1572V90.4943H18.8321Z" fill="black"/>
</g>
<rect x="72.7521" y="51.6714" width="2.50099" height="2.50099" rx="0.625238" fill="#64B5F6"/>
<rect x="13.7809" y="38.2319" width="2.48889" height="2.48889" rx="0.622213" fill="#64B5F6"/>
<rect x="78.3786" y="51.6714" width="2.50099" height="2.50099" rx="0.625238" fill="#64B5F6"/>
<rect x="18.758" y="38.2319" width="2.48889" height="2.48889" rx="0.622213" fill="#64B5F6"/>
<rect x="84.0051" y="51.6714" width="2.50099" height="2.50099" rx="0.625238" fill="#64B5F6"/>
<rect x="23.736" y="38.2319" width="2.48889" height="2.48889" rx="0.622213" fill="#64B5F6"/>
<rect x="72.7521" y="57.2983" width="2.50099" height="2.50099" rx="0.625238" fill="#64B5F6"/>
<rect x="13.7809" y="43.8325" width="2.48889" height="2.48889" rx="0.622213" fill="#64B5F6"/>
<rect x="78.3786" y="57.2983" width="2.50099" height="2.50099" rx="0.625238" fill="#64B5F6"/>
<rect x="18.758" y="43.8325" width="2.48889" height="2.48889" rx="0.622213" fill="#64B5F6"/>
<rect x="84.0051" y="57.2983" width="2.50099" height="2.50099" rx="0.625238" fill="#64B5F6"/>
<rect x="23.736" y="43.8325" width="2.48889" height="2.48889" rx="0.622213" fill="#64B5F6"/>
<rect x="72.7521" y="68.5522" width="2.50099" height="2.50099" rx="0.625238" fill="#E3F2FD"/>
<rect x="13.7809" y="55.0305" width="2.48889" height="2.48889" rx="0.622213" fill="#E3F2FD"/>
<rect x="78.3786" y="68.5522" width="2.50099" height="2.50099" rx="0.625238" fill="#64B5F6"/>
<rect x="18.7581" y="55.0305" width="2.48889" height="2.48889" rx="0.622213" fill="#64B5F6"/>
<rect x="84.0051" y="68.5522" width="2.50099" height="2.50099" rx="0.625238" fill="#64B5F6"/>
<rect x="23.7359" y="55.0305" width="2.48889" height="2.48889" rx="0.622213" fill="#64B5F6"/>
<rect x="72.7521" y="62.9253" width="2.50099" height="2.50099" rx="0.625238" fill="#64B5F6"/>
<rect x="13.7809" y="49.4341" width="2.48889" height="2.48889" rx="0.622213" fill="#64B5F6"/>
<rect x="78.3786" y="62.9253" width="2.50099" height="2.50099" rx="0.625238" fill="#64B5F6"/>
<rect x="18.758" y="49.4341" width="2.48889" height="2.48889" rx="0.622213" fill="#64B5F6"/>
<rect x="84.0051" y="62.9253" width="2.50099" height="2.50099" rx="0.625238" fill="#E3F2FD"/>
<rect x="23.736" y="49.4341" width="2.48889" height="2.48889" rx="0.622213" fill="#E3F2FD"/>
<rect x="40.0002" y="70.498" width="20" height="16" fill="#FF6E61"/>
<rect x="38.6955" y="85.4456" width="22.7368" height="5.05263" rx="2" fill="#FD5243"/>
<rect x="49.9549" y="75.0154" width="2.77886" height="1.71012" rx="0.85506" transform="rotate(90 49.9549 75.0154)" fill="#FD5243"/>
<rect x="54.2307" y="75.0154" width="2.77886" height="1.71012" rx="0.85506" transform="rotate(90 54.2307 75.0154)" fill="#FD5243"/>
<rect x="58.5065" y="75.0154" width="2.77886" height="1.71012" rx="0.85506" transform="rotate(90 58.5065 75.0154)" fill="#FD5243"/>
<rect x="39.0328" y="68.1084" width="22.2316" height="5.05263" rx="2" fill="#F6CF5A"/>
<path d="M39.0328 70.1084C39.0328 69.0038 39.9283 68.1084 41.0328 68.1084H46.1065V73.161H41.0328C39.9283 73.161 39.0328 72.2656 39.0328 71.161V70.1084Z" fill="#FBC02D"/>
<rect x="40.0425" y="73.1611" width="6.06315" height="14.1474" fill="#FD5243"/>
<path d="M42.8413 18.6453L47.3977 22.2939C47.4462 22.3328 47.4502 22.4053 47.4063 22.4493L46.0501 23.8068C46.0061 23.8508 45.9337 23.8468 45.8949 23.7982L42.2498 19.2374C41.936 18.8448 42.4491 18.3312 42.8413 18.6453Z" fill="#42A5F5"/>
<path d="M40.995 22.5114L46.7651 23.391C46.8266 23.4004 46.8663 23.4611 46.8502 23.5212L46.3538 25.3757C46.3377 25.4358 46.2729 25.4685 46.215 25.4459L40.7786 23.3198C40.3107 23.1368 40.4984 22.4356 40.995 22.5114Z" fill="#42A5F5"/>
<path d="M41.0646 19.7748L42.8881 33.2114L38.6616 35.3611L38.3551 19.8795L41.0646 19.7748Z" fill="#90CAF9"/>
<rect width="4.33846" height="3.64328" rx="1.82164" transform="matrix(0.999254 -0.0386129 0.0547957 0.998498 36.6294 18.1226)" fill="#90CAF9"/>
<path d="M49.4607 16.0566L48.8165 21.8598C48.8097 21.9216 48.8581 21.9756 48.9203 21.9756H50.8381C50.9003 21.9756 50.9487 21.9216 50.9418 21.8598L50.2977 16.0566C50.2422 15.5572 49.5162 15.5572 49.4607 16.0566Z" fill="#42A5F5"/>
<path d="M53.112 16.7859L51.0023 21.5992C50.977 21.657 51.0084 21.7208 51.0694 21.7353L52.9177 22.1768C52.9786 22.1913 53.0416 22.1501 53.0521 22.0887L53.925 16.9801C54.0081 16.4939 53.3128 16.3278 53.112 16.7859Z" fill="#42A5F5"/>
<path d="M56.6759 18.6453L52.1195 22.2939C52.071 22.3328 52.067 22.4053 52.1109 22.4493L53.4671 23.8068C53.5111 23.8508 53.5835 23.8468 53.6223 23.7982L57.2674 19.2374C57.5812 18.8448 57.0681 18.3312 56.6759 18.6453Z" fill="#42A5F5"/>
<path d="M59.2816 22.467L54.1694 23.2464C53.6017 23.3329 53.2351 23.8937 53.3836 24.4485C53.5321 25.0032 54.1298 25.3054 54.6646 25.0962L59.4812 23.2126C59.9127 23.0438 59.7396 22.3972 59.2816 22.467Z" fill="#42A5F5"/>
<path d="M46.9278 16.7859L49.0375 21.5992C49.0629 21.657 49.0315 21.7208 48.9705 21.7353L47.1222 22.1768C47.0613 22.1913 46.9983 22.1501 46.9878 22.0887L46.1149 16.9801C46.0318 16.4939 46.727 16.3278 46.9278 16.7859Z" fill="#42A5F5"/>
<path d="M54.715 29.2373C55.1164 29.695 56.8211 31.4578 56.5001 34.3857C56.3074 36.1443 54.5538 37.2907 52.3068 36.5586H47.4923C45.2453 37.2907 43.6144 35.3008 43.4806 34.3857C43.1597 31.4578 44.6827 29.6951 45.0841 29.2373H54.715Z" fill="#1E88E5"/>
<path d="M46.1943 35.0923H52.4592C54.6916 35.0923 56.5013 36.902 56.5013 39.1344V45.9588C56.5013 49.554 53.5868 52.4685 49.9916 52.4685C46.3964 52.4685 43.4819 49.554 43.4819 45.9588V42.6944L46.1943 35.0923Z" fill="#BBDEFB"/>
<path d="M46.1943 35.0923C45.282 34.4835 44.7414 33.7067 44.3468 32.759C43.8807 31.6394 42.494 31.1724 41.5852 31.9753L39.1805 34.0998C38.4725 34.7253 38.069 35.65 38.2167 36.5831C38.4419 38.0061 38.8485 38.724 39.6846 39.9793C40.7695 41.6084 43.4819 42.6944 43.4819 42.6944L46.1943 35.0923Z" fill="#BBDEFB"/>
<path d="M48.1265 32.7393H51.7257V34.6806C51.7257 35.6745 50.92 36.4802 49.9261 36.4802C48.9322 36.4802 48.1265 35.6745 48.1265 34.6806V32.7393Z" fill="#64B5F6"/>
<ellipse cx="49.88" cy="26.2837" rx="5.37755" ry="5.38279" fill="#BBDEFB"/>
<path d="M54.3316 28.5761C54.3316 31.575 53.3672 34.0061 49.9918 34.0061C46.6163 34.0061 45.6519 31.575 45.6519 28.5761C45.6519 25.5771 47.3286 23.146 49.9918 23.146C52.6549 23.146 54.3316 25.5771 54.3316 28.5761Z" fill="#90CAF9"/>
<path d="M44.6922 29.6728C47.7036 30.1035 49.3405 26.4618 49.8783 25.2058C50.9536 28.4355 52.9569 29.6728 55.1079 29.6728C55.6456 24.8283 53.1046 22.5144 49.8783 22.5144C44.5008 22.5144 44.5129 27.6992 44.6922 29.6728Z" fill="#1E88E5"/>
<path d="M43.4681 52.4709H56.6611L59.3264 68.1095H40.8001L43.4681 52.4709Z" fill="#1E88E5"/>
<path d="M57.1867 37.7853C56.8734 36.3066 55.1073 35.6826 53.9346 36.6361L45.0052 43.8963C43.4539 45.1576 42.5089 47.0164 42.4038 49.013L42.0636 55.4773L57.6892 42.9482C57.9992 42.6996 58.1428 42.2975 58.0605 41.9088L57.1867 37.7853Z" fill="#90CAF9"/>
<path d="M57.5942 43.1694L41.7782 54.9116C41.1492 55.3786 40.7253 56.0709 40.5956 56.8435L40.03 60.211C39.6393 62.5374 41.9383 64.3991 44.1326 63.5331L57.2059 58.3734C58.4934 57.8653 59.2733 56.5495 59.1009 55.176L57.5942 43.1694Z" fill="#2196F3"/>
<rect width="6.51061" height="8.68692" rx="2.02105" transform="matrix(0.927804 0.373069 -0.372444 0.928055 57.4502 37.2629)" fill="#BBDEFB"/>
<path d="M37.6313 17.0774L40.8861 17.0856L40.1756 21.7415C40.105 22.2038 39.7067 22.5452 39.2391 22.544C38.7715 22.5428 38.3756 22.1995 38.3084 21.7368L37.6313 17.0774Z" fill="#2196F3"/>
<path d="M36.0104 15.2534L42.5201 15.2699L42.5179 15.8959C42.5137 17.0586 41.5678 17.9987 40.4051 17.9958L38.1059 17.99C36.9432 17.987 36.004 17.0421 36.0082 15.8794L36.0104 15.2534Z" fill="#2196F3"/>
<path d="M36.012 15.3927C36.0141 14.8114 36.4871 14.3413 37.0684 14.3428L41.4729 14.3539C42.0542 14.3554 42.5238 14.8278 42.5217 15.4092L42.52 15.9044L36.0103 15.8879L36.012 15.3927Z" fill="#90CAF9"/>
<path d="M39.9221 17.5393L40.0679 17.5337C40.8492 17.5035 41.5172 18.1119 41.5601 18.8925C41.5748 19.1604 41.5385 19.4278 41.4533 19.6805L41.1153 20.6831L39.5014 19.0406C39.4275 18.9654 39.3673 18.8781 39.3234 18.7826L39.2555 18.6346C39.0241 18.1306 39.371 17.5606 39.9221 17.5393Z" fill="#90CAF9"/>
<rect width="2.16923" height="2.73246" rx="1.08461" transform="matrix(0.999254 -0.0386129 0.0547957 0.998498 36.6793 19.032)" fill="#90CAF9"/>
<rect width="3.35576" height="3.82736" rx="1.67788" transform="matrix(0.928555 0.371193 -0.37057 0.928804 60.6611 40.8235)" fill="#64B5F6"/>
<path d="M38.5481 10.498L42.4531 10.5078L39.0302 14.6158L38.5481 10.498Z" fill="#90CAF9"/>
</svg>
