<svg width="100" height="100" viewBox="0 0 100 100" fill="none" xmlns="http://www.w3.org/2000/svg">
<path d="M81 33H85L87 90H79L81 33Z" fill="#42A5F5"/>
<rect x="81" y="19" width="4" height="4" fill="#90CAF9"/>
<path d="M81 19C81 18.4477 81.4477 18 82 18H84C84.5523 18 85 18.4477 85 19H81Z" fill="#64B5F6"/>
<path d="M82.5 10.5C82.5 10.2239 82.7239 10 83 10C83.2761 10 83.5 10.2239 83.5 10.5V18H82.5V10.5Z" fill="#BBDEFB"/>
<path d="M66.6284 74.0372L39.1833 67.9023L21.5792 74.0372L15.7864 87.0963H21.5792H66.6284V74.0372Z" fill="#DADFE7"/>
<path d="M19.2527 83.0676L23.1522 73.1014C23.1522 73.1014 22.7188 70.935 17.5194 69.2024C14.7082 68.2657 12.6571 68.3418 11.3659 68.6095C10.419 68.8057 10.1687 69.8545 10.7165 70.6513L19.2527 83.0676Z" fill="white"/>
<path d="M56.9482 84L49.1491 69.6361C49.1491 69.6361 51.3155 66.1699 56.9482 64.8701C60.7182 64.0001 64.4199 65.5518 66.3683 66.6088C67.1823 67.0503 67.3809 68.0791 66.8734 68.8537L56.9482 84Z" fill="white"/>
<path d="M66.4802 83.9346L61.7141 72.5358C61.7141 72.5358 63.7715 70.9071 67.3468 70.5031C69.2531 70.2877 71.3339 71.0409 72.7134 71.6907C73.5961 72.1064 73.825 73.2004 73.274 74.0056L66.4802 83.9346Z" fill="white"/>
<path d="M27.0519 83.9343L33.9839 73.5358C33.9839 73.5358 31.9465 66.5822 27.0517 63.5702C23.5631 61.4235 20.407 61.271 18.5096 61.4661C17.4955 61.5703 17.027 62.6326 17.4611 63.555L27.0519 83.9343Z" fill="white"/>
<path d="M39.1842 84.3676L49.5826 69.6361C49.5826 69.6361 48.2146 61.6846 43.0195 56.307C37.6756 50.7754 29.5873 50.7667 25.7512 51.1343C24.6375 51.241 24.0453 52.4078 24.5243 53.4189L39.1842 84.3676Z" fill="white"/>
<path d="M71.1118 85.2659C70.555 84.4336 69.6197 83.9341 68.6184 83.9341H32.6294L13.12 83.9343L10.1531 90.0001H74.2792L71.1118 85.2659Z" fill="#3A404A"/>
<path d="M45.2226 81.3352C44.6661 80.501 43.7297 80 42.7269 80H16.9095C15.7446 80 14.685 80.6743 14.1917 81.7296L13.1304 84H47.0002L45.2226 81.3352Z" fill="#B4BBC7"/>
<path d="M76.3185 26.1852C76.148 24.4798 77.4872 23 79.2011 23H86.7989C88.5128 23 89.852 24.4798 89.6815 26.1852L88.2609 40.3913C88.1128 41.8722 86.8666 43 85.3783 43H80.6217C79.1334 43 77.8872 41.8722 77.7391 40.3913L76.3185 26.1852Z" fill="#64B5F6"/>
<rect width="6" height="2" rx="0.625238" transform="matrix(1 0 0 -1 80 29)" fill="#2196F3"/>
<rect width="6" height="2" rx="0.625238" transform="matrix(1 0 0 -1 80 34)" fill="#FBFCFD"/>
<rect width="6" height="2" rx="0.625238" transform="matrix(1 0 0 -1 80 39)" fill="#FBFCFD"/>
<rect width="6" height="2" rx="0.625238" transform="matrix(1 0 0 -1 80 29)" fill="#FBFCFD"/>
</svg>
