<svg width="101" height="100" viewBox="0 0 101 100" fill="none" xmlns="http://www.w3.org/2000/svg">
<path d="M31.9599 65.3889C33.0835 64.0899 35.0663 63.9976 36.3057 65.1866L62.1719 90H10.6719L31.9599 65.3889Z" fill="#AEE280"/>
<path d="M62.2138 61.1105C63.4709 59.9591 65.4337 60.0853 66.533 61.3883L90.6719 90H30.6719L62.2138 61.1105Z" fill="#2DAC6C"/>
<path d="M62.1719 61L30.6719 90H77.6719L68.1719 82.4348L69.1719 74.4493L61.1719 70.6667L62.1719 61Z" fill="#68CB70"/>
<path d="M82.2767 26.4399H68.6257V29.8004L87.4003 29.2639C87.8613 29.2508 88.2281 28.8733 88.2281 28.4122C88.2281 27.9416 87.8466 27.5601 87.376 27.5601H86.6947C85.8615 27.5601 85.0398 27.3661 84.2946 26.9935L84.0021 26.8473C83.4664 26.5794 82.8756 26.4399 82.2767 26.4399Z" fill="#BBDEFB"/>
<path d="M18.6232 26.4399H32.2742V29.8004L13.4995 29.2639C13.0386 29.2508 12.6718 28.8733 12.6718 28.4122C12.6718 27.9416 13.0533 27.5601 13.5239 27.5601H14.2052C15.0383 27.5601 15.8601 27.3661 16.6053 26.9935L16.8977 26.8473C17.4335 26.5794 18.0242 26.4399 18.6232 26.4399Z" fill="#BBDEFB"/>
<rect x="43.7835" y="45.5557" width="12.7778" height="28.8889" fill="#42A5F5"/>
<path d="M50.3933 10C54.1502 10 56.5154 12.701 56.5154 16.0322V25.6826H44.2713V16.0322C44.2713 12.701 46.6365 10.0001 50.3933 10Z" fill="#42A5F5"/>
<path d="M80.0706 25.6716H57.8997V33.5126H73.5366C75.4473 33.5126 77.2484 32.6205 78.4064 31.1007L81.0445 27.6381C81.6586 26.8322 81.0838 25.6716 80.0706 25.6716Z" fill="#90CAF9"/>
<path d="M21.8276 25.6716H43.9984V33.5126H28.3616C26.4509 33.5126 24.6497 32.6205 23.4917 31.1007L20.8536 27.6381C20.2395 26.8322 20.8143 25.6716 21.8276 25.6716Z" fill="#90CAF9"/>
<path d="M44.2721 38.1626L33.3803 26.1243C33.0954 25.8094 33.3188 25.3059 33.7435 25.3059H44.2721V38.1626Z" fill="#42A5F5"/>
<path d="M56.5149 38.1626L67.4067 26.1243C67.6916 25.8094 67.4682 25.3059 67.0435 25.3059H56.5149V38.1626Z" fill="#42A5F5"/>
<path d="M41.7675 25.6826H58.5696V50.666C58.5696 53.4104 55.6696 55.1856 53.2254 53.9374L43.77 49.1082C42.541 48.4805 41.7675 47.2169 41.7675 45.8368V25.6826Z" fill="#90CAF9"/>
<path d="M54.6789 18.5702C54.6789 21.9514 54.2027 24.6925 50.3933 24.6925C46.5839 24.6925 46.1077 21.9514 46.1077 18.5702C46.1077 15.189 47.3878 12.448 50.3933 12.448C53.3988 12.448 54.6789 15.189 54.6789 18.5702Z" fill="#E3F2FD"/>
<path d="M48.9327 19.0276L45.4958 20.1016V24.6933H55.2913V20.1016L51.8544 19.0276C50.9032 18.7303 49.8839 18.7303 48.9327 19.0276Z" fill="#42A5F5"/>
<path d="M49.7969 21.6174L50.1345 21.2798C50.278 21.1363 50.5106 21.1363 50.654 21.2798L50.9916 21.6174C51.223 21.8488 51.0591 22.2445 50.7319 22.2445H50.0566C49.7294 22.2445 49.5655 21.8488 49.7969 21.6174Z" fill="#E3F2FD"/>
<rect x="40.5983" y="24.6941" width="4.89778" height="19.5911" rx="1.22445" fill="#2196F3"/>
<rect x="55.2912" y="24.6941" width="4.89778" height="23.2645" rx="1.22445" fill="#2196F3"/>
<rect x="41.6718" y="73" width="17" height="14" fill="#FFD350"/>
<rect x="40.3772" y="85.7119" width="19.2946" height="4.28769" rx="1.69721" fill="#FFC204"/>
<rect x="40.6634" y="71" width="18.8658" height="4.28769" rx="1.69721" fill="#FFDF81"/>
<rect x="41.5204" y="74.2881" width="5.14523" height="12.0055" fill="#FFC204"/>
<path d="M40.6634 72.6972C40.6634 71.7599 41.4233 71 42.3606 71H46.6662V75.2877H42.3607C41.4233 75.2877 40.6634 74.5278 40.6634 73.5905V72.6972Z" fill="#FFD160"/>
</svg>
