<svg width="100" height="101" viewBox="0 0 100 101" fill="none" xmlns="http://www.w3.org/2000/svg">
<rect x="22.5669" y="43.3656" width="55.5679" height="15.9678" fill="#64B5F6"/>
<rect x="32.9336" y="37.3607" width="34.835" height="6.00604" fill="#BBDEFB"/>
<rect x="35.2561" y="39.3623" width="2.32233" height="2.00201" rx="0.648652" fill="#BBDEFB"/>
<rect x="42.2236" y="39.3623" width="2.32233" height="2.00201" rx="0.648652" fill="#BBDEFB"/>
<rect x="49.1907" y="39.3623" width="2.32233" height="2.00201" rx="0.648652" fill="#BBDEFB"/>
<rect x="56.158" y="39.3623" width="2.32233" height="2.00201" rx="0.648652" fill="#BBDEFB"/>
<rect x="63.124" y="39.3623" width="2.32233" height="2.00201" rx="0.648652" fill="#BBDEFB"/>
<rect x="29" y="59.3334" width="42" height="31" fill="white"/>
<path d="M37 66.1463C37 64.5723 38.276 63.2963 39.85 63.2963C41.424 63.2963 42.7 64.5723 42.7 66.1463V69.619C42.7 70.3244 42.1281 70.8963 41.4227 70.8963H38.2773C37.5719 70.8963 37 70.3244 37 69.619V66.1463Z" fill="#42A5F5"/>
<path d="M37 78.4959C37 76.9219 38.276 75.6459 39.85 75.6459C41.424 75.6459 42.7 76.9219 42.7 78.4959V81.9686C42.7 82.674 42.1281 83.2459 41.4227 83.2459H38.2773C37.5719 83.2459 37 82.674 37 81.9686V78.4959Z" fill="#42A5F5"/>
<path d="M47.4497 66.1463C47.4497 64.5723 48.7257 63.2963 50.2997 63.2963C51.8737 63.2963 53.1497 64.5723 53.1497 66.1463V69.619C53.1497 70.3244 52.5778 70.8963 51.8724 70.8963H48.727C48.0216 70.8963 47.4497 70.3244 47.4497 69.619V66.1463Z" fill="#42A5F5"/>
<path d="M47.4497 78.4959C47.4497 76.9219 48.7257 75.6459 50.2997 75.6459C51.8737 75.6459 53.1497 76.9219 53.1497 78.4959V81.9686C53.1497 82.674 52.5778 83.2459 51.8724 83.2459H48.727C48.0216 83.2459 47.4497 82.674 47.4497 81.9686V78.4959Z" fill="#90CAF9"/>
<path d="M57.8994 66.1463C57.8994 64.5723 59.1754 63.2963 60.7494 63.2963C62.3234 63.2963 63.5994 64.5723 63.5994 66.1463V69.619C63.5994 70.3244 63.0275 70.8963 62.3221 70.8963H59.1767C58.4713 70.8963 57.8994 70.3244 57.8994 69.619V66.1463Z" fill="#42A5F5"/>
<path d="M57.8994 78.4959C57.8994 76.9219 59.1754 75.6459 60.7494 75.6459C62.3234 75.6459 63.5994 76.9219 63.5994 78.4959V81.9686C63.5994 82.674 63.0275 83.2459 62.3221 83.2459H59.1767C58.4713 83.2459 57.8994 82.674 57.8994 81.9686V78.4959Z" fill="#42A5F5"/>
<path d="M20.0811 23.306H29.8108V90.3334H20.0811V23.306Z" fill="white"/>
<path d="M70.8921 23.306H80.6219V90.3334H70.8921V23.306Z" fill="white"/>
<path d="M71 61.8334C71 60.1919 70.4698 58.5664 69.4395 57.0498C68.4093 55.5333 66.8993 54.1553 64.9957 52.9945C63.0921 51.8338 60.8322 50.9131 58.345 50.2849C55.8578 49.6567 53.1921 49.3334 50.5 49.3334C47.8079 49.3334 45.1422 49.6567 42.655 50.2849C40.1678 50.9131 37.9079 51.8338 36.0043 52.9945C34.1007 54.1553 32.5907 55.5333 31.5605 57.0498C30.5302 58.5664 30 60.1919 30 61.8334L50.5 61.8334H71Z" fill="white"/>
<circle cx="50.2002" cy="56.3334" r="2" fill="#42A5F5"/>
<path d="M67.7686 37.8612C67.7686 36.0865 67.3181 34.3293 66.4428 32.6897C65.5675 31.0502 64.2845 29.5605 62.6671 28.3056C61.0498 27.0508 59.1297 26.0554 57.0165 25.3762C54.9033 24.6971 52.6384 24.3476 50.3511 24.3476C48.0638 24.3476 45.7989 24.6971 43.6857 25.3762C41.5725 26.0554 39.6524 27.0508 38.0351 28.3056C36.4177 29.5605 35.1347 31.0502 34.2594 32.6897C33.3841 34.3293 32.9336 36.0865 32.9336 37.8612L50.3511 37.8612H67.7686Z" fill="#64B5F6"/>
<path d="M50.4348 24.3494C52.722 24.3494 54.9868 24.6986 57.0999 25.3777C59.213 26.0568 61.1329 27.0525 62.7502 28.3074C64.3676 29.5622 65.6513 31.0516 66.5266 32.6912C67.4018 34.3305 67.8517 36.0877 67.8518 37.8621H63.2073C63.2072 36.0876 62.8164 34.3306 62.0579 32.6912C61.2993 31.0518 60.1879 29.5621 58.7864 28.3074C57.3847 27.0526 55.7203 26.0568 53.8889 25.3777C52.3904 24.822 50.8038 24.487 49.1907 24.3835C49.604 24.3606 50.0192 24.3494 50.4348 24.3494Z" fill="#2196F3"/>
<path d="M20.9519 18.3184C21.4296 17.7006 22.1666 17.3389 22.9476 17.3389H26.664C27.445 17.3389 28.182 17.7006 28.6597 18.3184C29.1724 18.9812 29.4505 19.7955 29.4505 20.6335V23.3449H20.1611V20.6335C20.1611 19.7955 20.4392 18.9812 20.9519 18.3184Z" fill="#42A5F5"/>
<path d="M72.0441 18.3184C72.5219 17.7006 73.2589 17.3389 74.0399 17.3389H77.7563C78.5373 17.3389 79.2743 17.7006 79.752 18.3184C80.2646 18.9812 80.5428 19.7955 80.5428 20.6335V23.3449H71.2534V20.6335C71.2534 19.7955 71.5315 18.9812 72.0441 18.3184Z" fill="#42A5F5"/>
<path d="M24.2251 10.914C24.2251 10.5933 24.485 10.3334 24.8057 10.3334C25.1263 10.3334 25.3863 10.5933 25.3863 10.914V17.3404H24.2251V10.914Z" fill="#42A5F5"/>
<path d="M75.3174 10.914C75.3174 10.5933 75.5773 10.3334 75.898 10.3334C76.2186 10.3334 76.4786 10.5933 76.4786 10.914V17.3404H75.3174V10.914Z" fill="#42A5F5"/>
<path d="M23.6448 13.4961C23.6448 12.8548 24.1646 12.335 24.8059 12.335C25.4472 12.335 25.9671 12.8548 25.9671 13.4961V15.1778C25.9671 15.8191 25.4472 16.339 24.8059 16.339C24.1646 16.339 23.6448 15.8191 23.6448 15.1778V13.4961Z" fill="#42A5F5"/>
<path d="M74.7358 13.4961C74.7358 12.8548 75.2557 12.335 75.897 12.335C76.5383 12.335 77.0582 12.8548 77.0582 13.4961V15.1778C77.0582 15.8191 76.5383 16.339 75.897 16.339C75.2557 16.339 74.7358 15.8191 74.7358 15.1778V13.4961Z" fill="#42A5F5"/>
<rect x="19.0002" y="33.0361" width="11.892" height="4.32435" rx="1.08109" fill="#90CAF9"/>
<rect x="69.8105" y="33.0361" width="11.892" height="4.32435" rx="1.08109" fill="#90CAF9"/>
<path d="M23.6448 30.4335C23.6448 29.8364 24.1288 29.3524 24.7259 29.3524H24.886C25.4831 29.3524 25.9671 29.8364 25.9671 30.4335V31.2744C25.9671 31.8714 25.4831 32.3554 24.886 32.3554H24.7259C24.1288 32.3554 23.6448 31.8714 23.6448 31.2743V30.4335Z" fill="#2196F3"/>
<path d="M74.4556 30.4335C74.4556 29.8364 74.9396 29.3524 75.5367 29.3524H75.6968C76.2939 29.3524 76.7779 29.8364 76.7779 30.4335V31.2744C76.7779 31.8714 76.2939 32.3554 75.6968 32.3554H75.5367C74.9396 32.3554 74.4556 31.8714 74.4556 31.2743V30.4335Z" fill="#2196F3"/>
</svg>
