<svg width="42" height="42" viewBox="0 0 42 42" fill="none" xmlns="http://www.w3.org/2000/svg">
<path d="M30.8974 5.2554C32.6637 6.27606 33.2693 8.53577 32.2498 10.3028L28.7463 16.373L36.3105 29.1205C36.6335 29.6648 36.638 30.3412 36.3219 30.8893L35.642 32.0675C35.0395 33.112 33.5864 33.2481 32.8004 32.3334L24.8681 23.0951L19.6275 32.1779L21.8961 35.4287C22.2849 35.9858 22.3165 36.7175 21.9772 37.3058L21.6961 37.7942C21.1326 38.7705 19.8068 38.966 18.9847 38.1944L14.3849 33.8773L14.384 33.879L8.33703 32.0472C7.25848 31.7202 6.76559 30.4729 7.32856 29.4963L7.60965 29.008C7.94908 28.4197 8.59836 28.081 9.27481 28.1394L13.23 28.4816L18.4666 19.4056L6.5082 17.1491C5.32347 16.9255 4.71395 15.5974 5.31649 14.5528L5.99642 13.3745C6.31261 12.8264 6.89979 12.4919 7.53234 12.4997L22.3459 12.6818L25.8522 6.6065C26.8719 4.83947 29.1308 4.23486 30.8974 5.2554Z" fill="#DADFE7"/>
</svg>
