<svg width="121" height="126" viewBox="0 0 121 126" fill="none" xmlns="http://www.w3.org/2000/svg">
<path d="M66.4975 14.167L100.685 90H52.9727L66.4975 14.167Z" fill="#FFD587"/>
<path d="M66.497 14.167L52.9722 89.9999H32.6851L66.497 14.167Z" fill="#FFB12E"/>
<path d="M40.9235 45L61.3868 90H32.8281L40.9235 45Z" fill="#FFD587"/>
<path d="M40.9235 45L32.8281 89.9999H20.6851L40.9235 45Z" fill="#FFB12E"/>
<path d="M32.0468 103.371C34.703 103.371 36.6171 105.793 36.6366 109.602C36.6171 113.449 34.703 115.852 32.0468 115.852C29.371 115.852 27.4374 113.449 27.4569 109.602C27.4374 105.793 29.371 103.371 32.0468 103.371ZM32.0468 105.324C30.5624 105.324 29.5468 106.906 29.5468 109.602C29.5468 112.316 30.5624 113.898 32.0468 113.898C33.5507 113.898 34.5468 112.316 34.5468 109.602C34.5468 106.906 33.5507 105.324 32.0468 105.324ZM41.1288 102.082V108.859H43.8437V110.695H41.1288V119.738H38.9608V102.082H41.1288ZM60.3186 115.793V117.609H44.1858V115.793H60.3186ZM58.9124 103.723V105.461H56.3343V111.086H58.8538V112.805H45.5726V111.086H48.053V105.461H45.514V103.723H58.9124ZM50.221 111.086H54.1858V105.461H50.221V111.086ZM75.778 102.082V119.758H73.6296V102.082H75.778ZM70.3483 103.625V110.246H64.2741V113.801C67.0573 113.781 69.4597 113.645 72.2038 113.176L72.3991 114.953C69.3913 115.48 66.7546 115.578 63.5905 115.578H62.0476V108.527H68.1413V105.383H62.028V103.625H70.3483ZM87.1358 103.82C87.1358 109.152 85.671 113.723 79.1671 116.965L77.9757 115.324C81.0323 113.811 82.8487 112.053 83.8741 109.953L78.3858 110.48L78.1124 108.605L84.5382 108.195C84.7628 107.375 84.8995 106.506 84.9679 105.578H79.0304V103.82H87.1358ZM91.7843 102.082V108.996H94.4015V110.773H91.7843V119.699H89.6163V102.082H91.7843Z" fill="#6C727E"/>
</svg>
