<svg width="121" height="126" viewBox="0 0 121 126" fill="none" xmlns="http://www.w3.org/2000/svg">
<path d="M36.4787 46.1728C36.3806 45.9767 36.5232 45.7458 36.7426 45.7458L39.9531 45.7458L39.9531 54.5968L36.7426 54.5968C36.5232 54.5968 36.3806 54.366 36.4787 54.1698L37.0028 53.1216L37.0028 47.221L36.4787 46.1728Z" fill="#68CB70"/>
<path d="M36.4787 28.427C36.3806 28.2308 36.5232 28 36.7426 28L39.9531 28L39.9531 36.8509L36.7426 36.8509C36.5232 36.8509 36.3806 36.6201 36.4787 36.424L37.0028 35.3758L37.0028 29.4752L36.4787 28.427Z" fill="#68CB70"/>
<path d="M36.4787 63.8755C36.3806 63.6793 36.5232 63.4485 36.7426 63.4485L39.9531 63.4485L39.9531 72.2994L36.7426 72.2994C36.5232 72.2994 36.3806 72.0686 36.4787 71.8725L37.0028 70.8243L37.0028 64.9236L36.4787 63.8755Z" fill="#68CB70"/>
<path d="M36.4787 81.5761C36.3806 81.38 36.5232 81.1492 36.7426 81.1492L39.9531 81.1492L39.9531 90.0001L37.0028 90.0001L37.0028 88.525L37.0028 82.6243L36.4787 81.5761Z" fill="#68CB70"/>
<path d="M39.953 45.7458L43.1635 45.7458C43.3828 45.7458 43.5255 45.9767 43.4274 46.1728L42.9033 47.221L42.9033 53.1216L43.4274 54.1698C43.5255 54.366 43.3828 54.5968 43.1635 54.5968L39.953 54.5968L39.953 45.7458Z" fill="#2DAC6C"/>
<path d="M39.953 28L43.1635 28C43.3828 28 43.5255 28.2308 43.4274 28.427L42.9033 29.4752L42.9033 35.3758L43.4274 36.424C43.5255 36.6201 43.3828 36.8509 43.1635 36.8509L39.953 36.8509L39.953 28Z" fill="#2DAC6C"/>
<path d="M39.953 63.4485L43.1635 63.4485C43.3828 63.4485 43.5255 63.6793 43.4274 63.8755L42.9033 64.9236L42.9033 70.8243L43.4274 71.8725C43.5255 72.0686 43.3828 72.2994 43.1635 72.2994L39.953 72.2994L39.953 63.4485Z" fill="#2DAC6C"/>
<path d="M39.953 81.1492L43.1635 81.1492C43.3828 81.1492 43.5255 81.38 43.4274 81.5761L42.9033 82.6243L42.9033 88.525L42.9033 90.0001L39.953 90.0001L39.953 81.1492Z" fill="#2DAC6C"/>
<path d="M39.953 36.895L43.1635 36.895C43.3828 36.895 43.5255 37.1258 43.4274 37.322L42.9033 38.3702L42.9033 44.2708L43.4274 45.319C43.5255 45.5152 43.3828 45.746 43.1635 45.746L39.953 45.746L39.953 36.895Z" fill="#68CB70"/>
<path d="M39.953 54.5967L43.1635 54.5967C43.3828 54.5967 43.5255 54.8275 43.4274 55.0237L42.9033 56.0718L42.9033 61.9725L43.4274 63.0206C43.5255 63.2168 43.3828 63.4476 43.1635 63.4476L39.953 63.4476L39.953 54.5967Z" fill="#68CB70"/>
<path d="M39.953 72.2983L43.1635 72.2983C43.3828 72.2983 43.5255 72.5291 43.4274 72.7253L42.9033 73.7735L42.9033 79.6741L43.4274 80.7223C43.5255 80.9185 43.3828 81.1493 43.1635 81.1493L39.953 81.1493L39.953 72.2983Z" fill="#68CB70"/>
<path d="M36.4787 37.322C36.3806 37.1258 36.5232 36.895 36.7426 36.895L39.9531 36.895L39.9531 45.746L36.7426 45.746C36.5232 45.746 36.3806 45.5152 36.4787 45.319L37.0028 44.2708L37.0028 38.3702L36.4787 37.322Z" fill="#AEE280"/>
<path d="M36.4787 55.0237C36.3806 54.8275 36.5232 54.5967 36.7426 54.5967L39.9531 54.5967L39.9531 63.4476L36.7426 63.4476C36.5232 63.4476 36.3806 63.2168 36.4787 63.0206L37.0028 61.9725L37.0028 56.0718L36.4787 55.0237Z" fill="#AEE280"/>
<path d="M36.4787 72.7253C36.3806 72.5291 36.5232 72.2983 36.7426 72.2983L39.9531 72.2983L39.9531 81.1493L36.7426 81.1493C36.5232 81.1493 36.3806 80.9185 36.4787 80.7223L37.0028 79.6741L37.0028 73.7735L36.4787 72.7253Z" fill="#AEE280"/>
<path d="M44.4399 68.2906C43.1261 69.6044 43.8559 72.0861 43.8559 72.0861C43.8559 72.0861 46.3376 72.816 47.6514 71.5021C48.9652 70.1883 48.6733 67.2687 48.6733 67.2687C48.6733 67.2687 45.7537 66.9768 44.4399 68.2906Z" fill="#68CB70"/>
<path d="M44.4399 75.6847C43.1261 74.3709 43.856 71.8893 43.856 71.8893C43.856 71.8893 46.3376 71.1594 47.6514 72.4732C48.9652 73.787 48.6733 76.7066 48.6733 76.7066C48.6733 76.7066 45.7537 76.9986 44.4399 75.6847Z" fill="#68CB70"/>
<path d="M27.1169 28.3039C27.0185 28.1072 27.1616 27.8757 27.3815 27.8757H30.6007V36.7506H27.3815C27.1616 36.7506 27.0185 36.5192 27.1169 36.3225L27.6424 35.2715V29.3549L27.1169 28.3039Z" fill="#68CB70"/>
<path d="M27.1174 46.0534C27.019 45.8567 27.1621 45.6252 27.382 45.6252H30.6012V54.5001H27.382C27.1621 54.5001 27.019 54.2687 27.1174 54.072L27.6429 53.021V47.1044L27.1174 46.0534Z" fill="#68CB70"/>
<path d="M27.1174 63.8039C27.019 63.6072 27.1621 63.3757 27.382 63.3757H30.6012V72.2506H27.382C27.1621 72.2506 27.019 72.0192 27.1174 71.8225L27.6429 70.7715V64.8549L27.1174 63.8039Z" fill="#68CB70"/>
<path d="M27.1174 81.5522C27.019 81.3555 27.1621 81.124 27.382 81.124H30.6012V89.9989H27.6429V88.5198V82.6032L27.1174 81.5522Z" fill="#68CB70"/>
<path d="M30.601 27.8757H33.8202C34.0401 27.8757 34.1831 28.1072 34.0848 28.3039L33.5592 29.3549V35.2715L34.0848 36.3225C34.1831 36.5192 34.0401 36.7506 33.8202 36.7506H30.601V27.8757Z" fill="#2DAC6C"/>
<path d="M30.601 45.6252H33.8202C34.0401 45.6252 34.1831 45.8567 34.0848 46.0534L33.5592 47.1044V53.021L34.0848 54.072C34.1831 54.2687 34.0401 54.5001 33.8202 54.5001H30.601V45.6252Z" fill="#2DAC6C"/>
<path d="M30.601 63.3748H33.8202C34.0401 63.3748 34.1831 63.6062 34.0848 63.8029L33.5592 64.8539V70.7705L34.0848 71.8215C34.1831 72.0182 34.0401 72.2496 33.8202 72.2496H30.601V63.3748Z" fill="#2DAC6C"/>
<path d="M30.6014 81.1252H33.8206C34.0406 81.1252 34.1836 81.3567 34.0852 81.5534L33.5597 82.6044V88.521V90.0001H30.6014V81.1252Z" fill="#2DAC6C"/>
<path d="M30.601 19H33.8202C34.0401 19 34.1831 19.2314 34.0848 19.4281L33.5592 20.4791V26.3957L34.0848 27.4467C34.1831 27.6434 34.0401 27.8749 33.8202 27.8749H30.601V19Z" fill="#68CB70"/>
<path d="M30.601 36.7505H33.8202C34.0401 36.7505 34.1831 36.9819 34.0848 37.1786L33.5592 38.2296V44.1462L34.0848 45.1972C34.1831 45.3939 34.0401 45.6254 33.8202 45.6254H30.601V36.7505Z" fill="#68CB70"/>
<path d="M30.601 54.501H33.8202C34.0401 54.501 34.1831 54.7324 34.0848 54.9291L33.5592 55.9801V61.8967L34.0848 62.9477C34.1831 63.1444 34.0401 63.3758 33.8202 63.3758H30.601V54.501Z" fill="#68CB70"/>
<path d="M30.601 72.2495H33.8202C34.0401 72.2495 34.1831 72.4809 34.0848 72.6776L33.5592 73.7287V79.6452L34.0848 80.6963C34.1831 80.893 34.0401 81.1244 33.8202 81.1244H30.601V72.2495Z" fill="#68CB70"/>
<path d="M27.1169 19.4281C27.0185 19.2314 27.1616 19 27.3815 19H30.6007V27.8749H27.3815C27.1616 27.8749 27.0185 27.6434 27.1169 27.4467L27.6424 26.3957V20.4791L27.1169 19.4281Z" fill="#AEE280"/>
<path d="M27.1169 37.1786C27.0185 36.9819 27.1616 36.7505 27.3815 36.7505H30.6007V45.6254H27.3815C27.1616 45.6254 27.0185 45.3939 27.1169 45.1972L27.6424 44.1462V38.2296L27.1169 37.1786Z" fill="#AEE280"/>
<path d="M27.1174 54.9291C27.019 54.7324 27.1621 54.501 27.382 54.501H30.6012V63.3758H27.382C27.1621 63.3758 27.019 63.1444 27.1174 62.9477L27.6429 61.8967V55.9801L27.1174 54.9291Z" fill="#AEE280"/>
<path d="M27.1174 72.6776C27.019 72.4809 27.1621 72.2495 27.382 72.2495H30.6012V81.1244H27.382C27.1621 81.1244 27.019 80.893 27.1174 80.6963L27.6429 79.6452V73.7287L27.1174 72.6776Z" fill="#AEE280"/>
<path d="M26.1019 68.2304C27.4193 69.5478 26.6874 72.0362 26.6874 72.0362C26.6874 72.0362 24.1991 72.768 22.8817 71.4507C21.5643 70.1333 21.8571 67.2058 21.8571 67.2058C21.8571 67.2058 24.7846 66.9131 26.1019 68.2304Z" fill="#68CB70"/>
<path d="M26.1019 75.6436C27.4193 74.3262 26.6874 71.8379 26.6874 71.8379C26.6874 71.8379 24.1991 71.106 22.8817 72.4234C21.5643 73.7407 21.8571 76.6682 21.8571 76.6682C21.8571 76.6682 24.7846 76.961 26.1019 75.6436Z" fill="#68CB70"/>
<path d="M26.1014 32.7329C27.4188 34.0502 26.6869 36.5386 26.6869 36.5386C26.6869 36.5386 24.1986 37.2705 22.8812 35.9531C21.5638 34.6357 21.8566 31.7082 21.8566 31.7082C21.8566 31.7082 24.7841 31.4155 26.1014 32.7329Z" fill="#68CB70"/>
<path d="M26.1014 40.1458C27.4188 38.8284 26.6869 36.3401 26.6869 36.3401C26.6869 36.3401 24.1986 35.6082 22.8812 36.9256C21.5638 38.2429 21.8566 41.1704 21.8566 41.1704C21.8566 41.1704 24.7841 41.4632 26.1014 40.1458Z" fill="#68CB70"/>
<path d="M85.4277 46.2594C85.3298 46.0636 85.4722 45.8333 85.6911 45.8333L88.8953 45.8333L88.8953 54.6667L85.6911 54.6667C85.4722 54.6667 85.3298 54.4363 85.4277 54.2406L85.9508 53.1945L85.9508 47.3055L85.4277 46.2594Z" fill="#68CB70"/>
<path d="M85.4272 63.9271C85.3293 63.7313 85.4717 63.501 85.6906 63.501L88.8948 63.501L88.8948 72.3344L85.6906 72.3344C85.4717 72.3344 85.3293 72.1041 85.4272 71.9083L85.9503 70.8622L85.9503 64.9732L85.4272 63.9271Z" fill="#68CB70"/>
<path d="M85.4272 81.5926C85.3293 81.3969 85.4717 81.1665 85.6906 81.1665L88.8948 81.1665L88.8948 90L85.9503 90L85.9503 88.5277L85.9503 82.6387L85.4272 81.5926Z" fill="#68CB70"/>
<path d="M88.8946 45.8333L92.0988 45.8333C92.3177 45.8333 92.46 46.0636 92.3621 46.2594L91.8391 47.3055L91.8391 53.1945L92.3621 54.2406C92.46 54.4363 92.3177 54.6667 92.0988 54.6667L88.8946 54.6667L88.8946 45.8333Z" fill="#2DAC6C"/>
<path d="M88.8946 63.501L92.0988 63.501C92.3177 63.501 92.46 63.7313 92.3621 63.9271L91.8391 64.9732L91.8391 70.8622L92.3621 71.9083C92.46 72.1041 92.3177 72.3344 92.0988 72.3344L88.8946 72.3344L88.8946 63.501Z" fill="#2DAC6C"/>
<path d="M88.8941 81.1665L92.0983 81.1665C92.3172 81.1665 92.4595 81.3969 92.3616 81.5926L91.8386 82.6387L91.8386 88.5277L91.8386 90L88.8941 90L88.8941 81.1665Z" fill="#2DAC6C"/>
<path d="M88.8946 37.001L92.0988 37.001C92.3177 37.001 92.46 37.2313 92.3621 37.4271L91.8391 38.4732L91.8391 44.3622L92.3621 45.4083C92.46 45.6041 92.3177 45.8344 92.0988 45.8344L88.8946 45.8344L88.8946 37.001Z" fill="#68CB70"/>
<path d="M88.8941 54.6665L92.0983 54.6665C92.3172 54.6665 92.4595 54.8969 92.3616 55.0926L91.8386 56.1387L91.8386 62.0277L92.3616 63.0738C92.4595 63.2696 92.3172 63.5 92.0983 63.5L88.8941 63.5L88.8941 54.6665Z" fill="#68CB70"/>
<path d="M88.8946 72.3342L92.0988 72.3342C92.3177 72.3342 92.46 72.5646 92.3621 72.7604L91.8391 73.8065L91.8391 79.6954L92.3621 80.7415C92.46 80.9373 92.3177 81.1677 92.0988 81.1677L88.8946 81.1677L88.8946 72.3342Z" fill="#68CB70"/>
<path d="M85.4272 37.4261C85.3293 37.2304 85.4717 37 85.6906 37L88.8948 37L88.8948 45.8334L85.6906 45.8334C85.4717 45.8334 85.3293 45.6031 85.4272 45.4073L85.9503 44.3612L85.9503 38.4722L85.4272 37.4261Z" fill="#AEE280"/>
<path d="M85.4272 55.0926C85.3293 54.8969 85.4717 54.6665 85.6906 54.6665L88.8948 54.6665L88.8948 63.5L85.6906 63.5C85.4717 63.5 85.3293 63.2696 85.4272 63.0738L85.9503 62.0277L85.9503 56.1387L85.4272 55.0926Z" fill="#AEE280"/>
<path d="M85.4272 72.7594C85.3293 72.5636 85.4717 72.3333 85.6906 72.3333L88.8948 72.3333L88.8948 81.1667L85.6906 81.1667C85.4717 81.1667 85.3293 80.9363 85.4272 80.7406L85.9503 79.6945L85.9503 73.8055L85.4272 72.7594Z" fill="#AEE280"/>
<path d="M93.3729 68.3318C92.0617 69.643 92.7902 72.1198 92.7902 72.1198C92.7902 72.1198 95.2669 72.8482 96.5781 71.537C97.8893 70.2258 97.598 67.3119 97.598 67.3119C97.598 67.3119 94.6841 67.0206 93.3729 68.3318Z" fill="#68CB70"/>
<path d="M93.3729 75.7112C92.0617 74.4 92.7902 71.9232 92.7902 71.9232C92.7902 71.9232 95.2669 71.1948 96.5781 72.506C97.8893 73.8172 97.598 76.731 97.598 76.731C97.598 76.731 94.6841 77.0224 93.3729 75.7112Z" fill="#68CB70"/>
<path d="M53.7179 61.7063H74.0125L76.3949 90.1187H63.8652H51.3355L53.7179 61.7063Z" fill="white"/>
<path d="M45.481 84.0535C45.481 79.4619 50.3131 76.4756 54.4199 78.529L61.6896 82.1639C63.1122 82.8752 64.0108 84.3292 64.0108 85.9197C64.0108 88.2387 62.1308 90.1187 59.8117 90.1187H50.4223C47.6933 90.1187 45.481 87.9064 45.481 85.1775V84.0535Z" fill="#3A404A"/>
<path d="M84.0113 84.0535C84.0113 79.4619 79.1793 76.4756 75.0724 78.529L67.8027 82.1639C66.3801 82.8752 65.4815 84.3292 65.4815 85.9197C65.4815 88.2387 67.3615 90.1187 69.6806 90.1187H79.07C81.799 90.1187 84.0113 87.9064 84.0113 85.1775V84.0535Z" fill="#3A404A"/>
<path d="M73.2782 64.7764C75.9267 68.3077 75.9267 77.136 71.5125 80.6673" stroke="#3A404A" stroke-width="10.594" stroke-linecap="round"/>
<path d="M55.6634 64.7764C53.0149 68.3077 53.0149 77.136 57.429 80.6673" stroke="#3A404A" stroke-width="10.594" stroke-linecap="round"/>
<path d="M57.388 64.7764C60.7759 68.1862 68.8291 68.1862 72.3961 64.7764" stroke="#3A404A" stroke-width="7.06265" stroke-linecap="round"/>
<path d="M56.4793 51.9276C54.655 53.8887 51.4009 53.8272 49.2111 51.7902C47.0213 49.7531 46.3578 46.9067 48.5493 44.5509C50.7408 42.1951 53.6277 42.6513 55.8175 44.6884C58.0073 46.7254 58.3036 49.9665 56.4793 51.9276Z" fill="#3A404A"/>
<path d="M73.1151 51.9409C74.9461 53.9093 78.2057 53.8537 80.3955 51.8167C82.5853 49.7796 83.2447 46.9288 81.045 44.5641C78.8454 42.1995 75.9544 42.6513 73.7646 44.6884C71.5748 46.7254 71.284 49.9724 73.1151 51.9409Z" fill="#3A404A"/>
<path d="M79.76 56.7238C79.76 63.6423 75.3612 67.4614 64.804 67.4614C54.2469 67.4614 49.8481 63.6423 49.8481 56.7238C49.8481 49.8052 54.5574 43.3018 64.804 43.3018C75.0507 43.3018 79.76 49.8052 79.76 56.7238Z" fill="white"/>
<path d="M74.483 53.659C75.1632 55.6659 75.0149 57.5647 72.9942 58.3499C70.9736 59.1352 69.7224 57.7802 69.0422 55.7734C68.362 53.7665 68.8399 51.7396 70.5309 51.0825C72.222 50.4253 73.8027 51.6521 74.483 53.659Z" fill="#3A404A"/>
<path d="M55.5031 53.6607C54.8229 55.6676 54.9677 57.565 56.9783 58.3464C58.9889 59.1277 60.2366 57.7714 60.9168 55.7646C61.597 53.7577 61.1242 51.7328 59.4416 51.0789C57.7589 50.425 56.1833 51.6539 55.5031 53.6607Z" fill="#3A404A"/>
<path d="M66.5295 57.1065C66.5295 57.7419 65.6376 58.257 64.8036 58.257C63.9696 58.257 63.0781 57.7419 63.0781 57.1065C63.0781 56.4711 63.2934 55.9561 64.8036 55.9561C66.3138 55.9561 66.5295 56.4711 66.5295 57.1065Z" fill="#3A404A"/>
<path d="M40.0504 103.371C42.7066 103.371 44.6207 105.793 44.6402 109.602C44.6207 113.449 42.7066 115.852 40.0504 115.852C37.3746 115.852 35.441 113.449 35.4605 109.602C35.441 105.793 37.3746 103.371 40.0504 103.371ZM40.0504 105.324C38.566 105.324 37.5504 106.906 37.5504 109.602C37.5504 112.316 38.566 113.898 40.0504 113.898C41.5543 113.898 42.5504 112.316 42.5504 109.602C42.5504 106.906 41.5543 105.324 40.0504 105.324ZM49.1324 102.082V108.859H51.8473V110.695H49.1324V119.738H46.9645V102.082H49.1324ZM58.8691 106.32C58.8496 109.562 60.5488 112.805 63.4199 114.035L62.1309 115.773C60.0996 114.836 58.6055 112.961 57.7949 110.656C56.9844 113.146 55.4707 115.178 53.3223 116.184L51.9941 114.367C54.9434 113.098 56.6621 109.719 56.6621 106.32V103.508H58.8691V106.32ZM66.877 102.082V119.758H64.6895V102.082H66.877ZM73.8207 103.371C76.477 103.371 78.391 105.793 78.4106 109.602C78.391 113.449 76.477 115.852 73.8207 115.852C71.1449 115.852 69.2113 113.449 69.2309 109.602C69.2113 105.793 71.1449 103.371 73.8207 103.371ZM73.8207 105.324C72.3363 105.324 71.3207 106.906 71.3207 109.602C71.3207 112.316 72.3363 113.898 73.8207 113.898C75.3246 113.898 76.3207 112.316 76.3207 109.602C76.3207 106.906 75.3246 105.324 73.8207 105.324ZM82.9027 102.082V108.859H85.6176V110.695H82.9027V119.738H80.7348V102.082H82.9027Z" fill="#6C727E"/>
</svg>
