<svg width="121" height="126" viewBox="0 0 121 126" fill="none" xmlns="http://www.w3.org/2000/svg">
<path d="M20.1929 71.2981H33.2658V89.9994H20.1929V71.2981Z" fill="#D3DFFF"/>
<path d="M33.204 54H48.2174V90H33.204V54Z" fill="#D3DFFF"/>
<path d="M46.2163 62.7266H83.2494V89.9993H46.2163V62.7266Z" fill="#D3DFFF"/>
<path d="M83.1777 74.5002H92.1858V89.9998H83.1777V74.5002Z" fill="#D3DFFF"/>
<path d="M92.1855 71.4543H100.193V89.9998H92.1855V71.4543Z" fill="#D3DFFF"/>
<path d="M65.1956 73.6541H54.222V63.3318H65.1956V73.6541ZM56.5735 73.6531H62.8441L61.2767 65.9119H58.1409L56.5735 73.6531Z" fill="#1A5BFF"/>
<path d="M73.8181 89.9988H69.8474C69.8808 89.7155 69.8982 89.4282 69.8982 89.1375C69.8982 84.3869 65.3364 80.5361 59.7087 80.5359C54.0809 80.5359 49.5183 84.3868 49.5183 89.1375C49.5183 89.4282 49.5357 89.7155 49.5691 89.9988H45.5993V77.0964H73.8181V89.9988Z" fill="#1A5BFF"/>
<path d="M61.2758 23.7637C61.2776 23.7771 64.0013 43.5787 68.1068 56.4512C72.3652 69.8028 83.1943 89.9429 83.224 89.998H73.8177C72.227 82.6824 67.5469 77.6387 59.7084 77.6387C51.8699 77.6387 47.1898 82.6824 45.599 89.998H36.1927C36.2257 89.9364 47.1181 69.5324 51.3099 56.4512C55.5081 43.3501 58.141 23.7637 58.141 23.7637H61.2758ZM56.5736 63.332L54.222 73.6543H65.1957L62.8441 63.332H56.5736Z" fill="#4E80FF"/>
<rect x="59.317" y="10" width="0.783856" height="12.0426" rx="0.391928" fill="#C2D3FF"/>
<path d="M58.1411 21.89C58.1411 21.0242 58.843 20.3223 59.7088 20.3223C60.5746 20.3223 61.2765 21.0242 61.2765 21.89V23.763H58.1411V21.89Z" fill="#C2D3FF"/>
<rect x="57.3572" y="22.043" width="4.70313" height="0.860189" rx="0.430095" fill="#4E80FF"/>
<path d="M59.7084 63.332H56.5736L54.222 73.6543H59.7084V77.6387C51.8699 77.6387 47.1898 82.6824 45.599 89.998H36.1927C36.2257 89.9364 47.1181 69.5324 51.3099 56.4512C55.5081 43.3501 58.141 23.7637 58.141 23.7637H59.7084V63.332Z" fill="#94B3FF"/>
<rect x="42.4631" y="73.6538" width="34.4896" height="2.58057" rx="1.29028" fill="#C2D3FF"/>
<rect x="49.5184" y="56.45" width="20.3802" height="2.58057" rx="1.29028" fill="#C2D3FF"/>
<path d="M59.8069 111.984V113.742H55.8812V119.738H53.6741V113.742H49.7679V119.738H47.5413V113.742H43.6741V111.984H59.8069ZM51.7015 102.707C55.4515 102.727 58.0687 104.25 58.0687 106.652C58.0687 109.016 55.4515 110.52 51.7015 110.52C47.9319 110.52 45.3538 109.016 45.3733 106.652C45.3538 104.25 47.9319 102.727 51.7015 102.707ZM51.7015 104.465C49.2015 104.465 47.5804 105.266 47.5999 106.652C47.5804 108 49.2015 108.801 51.7015 108.801C54.2015 108.801 55.8226 108 55.8226 106.652C55.8226 105.266 54.2015 104.465 51.7015 104.465ZM75.364 102.102V111.828H73.196V107.355H70.1882V105.578H73.196V102.102H75.364ZM65.7741 112.59V114.367H73.2155V112.59H75.364V119.523H63.6062V112.59H65.7741ZM65.7741 117.766H73.2155V116.066H65.7741V117.766ZM69.2116 102.785V107.883H63.4499V109.719C66.194 109.699 68.2155 109.611 70.5593 109.23L70.7155 110.988C68.1179 111.398 65.8718 111.477 62.6882 111.457H61.3015V106.262H67.0827V104.523H61.2624V102.785H69.2116Z" fill="#6C727E"/>
</svg>
