<svg width="120" height="127" viewBox="0 0 120 127" fill="none" xmlns="http://www.w3.org/2000/svg">
<path d="M57.0002 58.4976H79.0002V90.4976H57.0002V58.4976Z" fill="#90CAF9"/>
<path d="M39.0002 50.4976H57.0002V87.4964C57.0002 89.1539 55.6565 90.4976 53.999 90.4976H39.0002V50.4976Z" fill="#64B5F6"/>
<path d="M79.0002 50.4987C79.0002 48.8412 80.3438 47.4976 82.0013 47.4976H96.999C98.6565 47.4976 100 48.8412 100 50.4987V90.4976H79.0002V50.4987Z" fill="#BBDEFB"/>
<path d="M20.0471 37.4842C20.0471 35.8347 21.3842 34.4976 23.0337 34.4976H36.3493C37.9988 34.4976 39.3359 35.8347 39.3359 37.4842V90.4976H20.0471V37.4842Z" fill="#BBDEFB"/>
<g style="mix-blend-mode:soft-light">
<path d="M28.8321 90.4943L51.341 74.1572V90.4943H28.8321Z" fill="black"/>
</g>
<rect x="82.7521" y="51.6714" width="2.50099" height="2.50099" rx="0.625238" fill="#64B5F6"/>
<rect x="23.7809" y="38.2319" width="2.48889" height="2.48889" rx="0.622213" fill="#64B5F6"/>
<rect x="88.3786" y="51.6714" width="2.50099" height="2.50099" rx="0.625238" fill="#64B5F6"/>
<rect x="28.758" y="38.2319" width="2.48889" height="2.48889" rx="0.622213" fill="#64B5F6"/>
<rect x="94.0051" y="51.6714" width="2.50099" height="2.50099" rx="0.625238" fill="#64B5F6"/>
<rect x="33.736" y="38.2319" width="2.48889" height="2.48889" rx="0.622213" fill="#64B5F6"/>
<rect x="82.7521" y="57.2983" width="2.50099" height="2.50099" rx="0.625238" fill="#64B5F6"/>
<rect x="23.7809" y="43.8325" width="2.48889" height="2.48889" rx="0.622213" fill="#64B5F6"/>
<rect x="88.3786" y="57.2983" width="2.50099" height="2.50099" rx="0.625238" fill="#64B5F6"/>
<rect x="28.758" y="43.8325" width="2.48889" height="2.48889" rx="0.622213" fill="#64B5F6"/>
<rect x="94.0051" y="57.2983" width="2.50099" height="2.50099" rx="0.625238" fill="#64B5F6"/>
<rect x="33.736" y="43.8325" width="2.48889" height="2.48889" rx="0.622213" fill="#64B5F6"/>
<rect x="82.7521" y="68.5522" width="2.50099" height="2.50099" rx="0.625238" fill="#E3F2FD"/>
<rect x="23.7809" y="55.0305" width="2.48889" height="2.48889" rx="0.622213" fill="#E3F2FD"/>
<rect x="88.3786" y="68.5522" width="2.50099" height="2.50099" rx="0.625238" fill="#64B5F6"/>
<rect x="28.7581" y="55.0305" width="2.48889" height="2.48889" rx="0.622213" fill="#64B5F6"/>
<rect x="94.0051" y="68.5522" width="2.50099" height="2.50099" rx="0.625238" fill="#64B5F6"/>
<rect x="33.7359" y="55.0305" width="2.48889" height="2.48889" rx="0.622213" fill="#64B5F6"/>
<rect x="82.7521" y="62.9253" width="2.50099" height="2.50099" rx="0.625238" fill="#64B5F6"/>
<rect x="23.7809" y="49.4341" width="2.48889" height="2.48889" rx="0.622213" fill="#64B5F6"/>
<rect x="88.3786" y="62.9253" width="2.50099" height="2.50099" rx="0.625238" fill="#64B5F6"/>
<rect x="28.758" y="49.4341" width="2.48889" height="2.48889" rx="0.622213" fill="#64B5F6"/>
<rect x="94.0051" y="62.9253" width="2.50099" height="2.50099" rx="0.625238" fill="#E3F2FD"/>
<rect x="33.736" y="49.4341" width="2.48889" height="2.48889" rx="0.622213" fill="#E3F2FD"/>
<rect x="50.0002" y="70.498" width="20" height="16" fill="#FF6E61"/>
<rect x="48.6955" y="85.4456" width="22.7368" height="5.05263" rx="2" fill="#FD5243"/>
<rect x="59.9549" y="75.0154" width="2.77886" height="1.71012" rx="0.85506" transform="rotate(90 59.9549 75.0154)" fill="#FD5243"/>
<rect x="64.2307" y="75.0154" width="2.77886" height="1.71012" rx="0.85506" transform="rotate(90 64.2307 75.0154)" fill="#FD5243"/>
<rect x="68.5065" y="75.0154" width="2.77886" height="1.71012" rx="0.85506" transform="rotate(90 68.5065 75.0154)" fill="#FD5243"/>
<rect x="49.0328" y="68.1084" width="22.2316" height="5.05263" rx="2" fill="#F6CF5A"/>
<path d="M49.0328 70.1084C49.0328 69.0038 49.9283 68.1084 51.0328 68.1084H56.1065V73.161H51.0328C49.9283 73.161 49.0328 72.2656 49.0328 71.161V70.1084Z" fill="#FBC02D"/>
<rect x="50.0425" y="73.1611" width="6.06315" height="14.1474" fill="#FD5243"/>
<path d="M52.8413 18.6453L57.3977 22.2939C57.4462 22.3328 57.4502 22.4053 57.4063 22.4493L56.0501 23.8068C56.0061 23.8508 55.9337 23.8468 55.8949 23.7982L52.2498 19.2374C51.936 18.8448 52.4491 18.3312 52.8413 18.6453Z" fill="#42A5F5"/>
<path d="M50.995 22.5114L56.7651 23.391C56.8266 23.4004 56.8663 23.4611 56.8502 23.5212L56.3538 25.3757C56.3377 25.4358 56.2729 25.4685 56.215 25.4459L50.7786 23.3198C50.3107 23.1368 50.4984 22.4356 50.995 22.5114Z" fill="#42A5F5"/>
<path d="M51.0646 19.7748L52.8881 33.2114L48.6616 35.3611L48.3551 19.8795L51.0646 19.7748Z" fill="#90CAF9"/>
<rect width="4.33846" height="3.64328" rx="1.82164" transform="matrix(0.999254 -0.0386129 0.0547957 0.998498 46.6294 18.1226)" fill="#90CAF9"/>
<path d="M59.4607 16.0566L58.8165 21.8598C58.8097 21.9216 58.8581 21.9756 58.9203 21.9756H60.8381C60.9003 21.9756 60.9487 21.9216 60.9418 21.8598L60.2977 16.0566C60.2422 15.5572 59.5162 15.5572 59.4607 16.0566Z" fill="#42A5F5"/>
<path d="M63.112 16.7859L61.0023 21.5992C60.977 21.657 61.0084 21.7208 61.0694 21.7353L62.9177 22.1768C62.9786 22.1913 63.0416 22.1501 63.0521 22.0887L63.925 16.9801C64.0081 16.4939 63.3128 16.3278 63.112 16.7859Z" fill="#42A5F5"/>
<path d="M66.6759 18.6453L62.1195 22.2939C62.071 22.3328 62.067 22.4053 62.1109 22.4493L63.4671 23.8068C63.5111 23.8508 63.5835 23.8468 63.6223 23.7982L67.2674 19.2374C67.5812 18.8448 67.0681 18.3312 66.6759 18.6453Z" fill="#42A5F5"/>
<path d="M69.2816 22.467L64.1694 23.2464C63.6017 23.3329 63.2351 23.8937 63.3836 24.4485C63.5321 25.0032 64.1298 25.3054 64.6646 25.0962L69.4812 23.2126C69.9127 23.0438 69.7396 22.3972 69.2816 22.467Z" fill="#42A5F5"/>
<path d="M56.9278 16.7859L59.0375 21.5992C59.0629 21.657 59.0315 21.7208 58.9705 21.7353L57.1222 22.1768C57.0613 22.1913 56.9983 22.1501 56.9878 22.0887L56.1149 16.9801C56.0318 16.4939 56.727 16.3278 56.9278 16.7859Z" fill="#42A5F5"/>
<path d="M64.7149 29.2373C65.1163 29.695 66.8209 31.4578 66.5 34.3857C66.3072 36.1443 64.5537 37.2907 62.3067 36.5586H57.4922C55.2451 37.2907 53.6142 35.3008 53.4805 34.3857C53.1596 31.4578 54.6826 29.6951 55.084 29.2373H64.7149Z" fill="#1E88E5"/>
<path d="M56.1943 35.0923H62.4592C64.6916 35.0923 66.5013 36.902 66.5013 39.1344V45.9588C66.5013 49.554 63.5868 52.4685 59.9916 52.4685C56.3964 52.4685 53.4819 49.554 53.4819 45.9588V42.6944L56.1943 35.0923Z" fill="#BBDEFB"/>
<path d="M56.1943 35.0923C55.282 34.4835 54.7414 33.7067 54.3468 32.759C53.8807 31.6394 52.494 31.1724 51.5852 31.9753L49.1805 34.0998C48.4725 34.7253 48.069 35.65 48.2167 36.5831C48.4419 38.0061 48.8485 38.724 49.6846 39.9793C50.7695 41.6084 53.4819 42.6944 53.4819 42.6944L56.1943 35.0923Z" fill="#BBDEFB"/>
<path d="M58.1265 32.7393H61.7257V34.6806C61.7257 35.6745 60.92 36.4802 59.9261 36.4802C58.9322 36.4802 58.1265 35.6745 58.1265 34.6806V32.7393Z" fill="#64B5F6"/>
<ellipse cx="59.88" cy="26.2837" rx="5.37755" ry="5.38279" fill="#BBDEFB"/>
<path d="M64.3316 28.5761C64.3316 31.575 63.3672 34.0061 59.9918 34.0061C56.6163 34.0061 55.6519 31.575 55.6519 28.5761C55.6519 25.5771 57.3286 23.146 59.9918 23.146C62.6549 23.146 64.3316 25.5771 64.3316 28.5761Z" fill="#90CAF9"/>
<path d="M54.6922 29.6728C57.7036 30.1035 59.3405 26.4618 59.8783 25.2058C60.9536 28.4355 62.9569 29.6728 65.1079 29.6728C65.6456 24.8283 63.1046 22.5144 59.8783 22.5144C54.5008 22.5144 54.5129 27.6992 54.6922 29.6728Z" fill="#1E88E5"/>
<path d="M53.4681 52.4709H66.6611L69.3264 68.1095H50.8001L53.4681 52.4709Z" fill="#1E88E5"/>
<path d="M67.1867 37.7853C66.8734 36.3066 65.1073 35.6826 63.9346 36.6361L55.0052 43.8963C53.4539 45.1576 52.5089 47.0164 52.4038 49.013L52.0636 55.4773L67.6892 42.9482C67.9992 42.6996 68.1428 42.2975 68.0605 41.9088L67.1867 37.7853Z" fill="#90CAF9"/>
<path d="M67.5942 43.1694L51.7782 54.9116C51.1492 55.3786 50.7253 56.0709 50.5956 56.8435L50.03 60.211C49.6393 62.5374 51.9383 64.3991 54.1326 63.5331L67.2059 58.3734C68.4934 57.8653 69.2733 56.5495 69.1009 55.176L67.5942 43.1694Z" fill="#2196F3"/>
<rect width="6.51061" height="8.68692" rx="2.02105" transform="matrix(0.927804 0.373069 -0.372444 0.928055 67.4502 37.2629)" fill="#BBDEFB"/>
<path d="M47.6313 17.0774L50.8861 17.0856L50.1756 21.7415C50.105 22.2038 49.7067 22.5452 49.2391 22.544C48.7715 22.5428 48.3756 22.1995 48.3084 21.7368L47.6313 17.0774Z" fill="#2196F3"/>
<path d="M46.0104 15.2534L52.5201 15.2699L52.5179 15.8959C52.5137 17.0586 51.5678 17.9987 50.4051 17.9958L48.1059 17.99C46.9432 17.987 46.004 17.0421 46.0082 15.8794L46.0104 15.2534Z" fill="#2196F3"/>
<path d="M46.012 15.3927C46.0141 14.8114 46.4871 14.3413 47.0684 14.3428L51.4729 14.3539C52.0542 14.3554 52.5238 14.8278 52.5217 15.4092L52.52 15.9044L46.0103 15.8879L46.012 15.3927Z" fill="#90CAF9"/>
<path d="M49.9221 17.5393L50.0679 17.5337C50.8492 17.5035 51.5172 18.1119 51.5601 18.8925C51.5748 19.1604 51.5385 19.4278 51.4533 19.6805L51.1153 20.6831L49.5014 19.0406C49.4275 18.9654 49.3673 18.8781 49.3234 18.7826L49.2555 18.6346C49.0241 18.1306 49.371 17.5606 49.9221 17.5393Z" fill="#90CAF9"/>
<rect width="2.16923" height="2.73246" rx="1.08461" transform="matrix(0.999254 -0.0386129 0.0547957 0.998498 46.6793 19.032)" fill="#90CAF9"/>
<rect width="3.35576" height="3.82736" rx="1.67788" transform="matrix(0.928555 0.371193 -0.37057 0.928804 70.6611 40.8235)" fill="#64B5F6"/>
<path d="M48.5481 10.498L52.4531 10.5078L49.0302 14.6158L48.5481 10.498Z" fill="#90CAF9"/>
<path d="M34.1797 111.076V112.795H27.1875V114.494H32.207V120.236H30.0391V116.252H19.8633V114.494H25.0391V112.795H18.0859V111.076H34.1797ZM22.3242 103.01V104.768H29.9414V103.01H32.0898V109.768H20.1758V103.01H22.3242ZM22.3242 108.029H29.9414V106.389H22.3242V108.029ZM39.7172 103.869C42.3734 103.869 44.2875 106.291 44.307 110.1C44.2875 113.947 42.3734 116.35 39.7172 116.35C37.0414 116.35 35.1078 113.947 35.1273 110.1C35.1078 106.291 37.0414 103.869 39.7172 103.869ZM39.7172 105.822C38.2328 105.822 37.2172 107.404 37.2172 110.1C37.2172 112.814 38.2328 114.396 39.7172 114.396C41.2211 114.396 42.2172 112.814 42.2172 110.1C42.2172 107.404 41.2211 105.822 39.7172 105.822ZM48.7992 102.58V109.357H51.5141V111.193H48.7992V120.236H46.6313V102.58H48.7992ZM59.3367 104.494V109.084H61.3875V102.893H63.4578V119.377H61.3875V110.842H59.3367V115.686H52.4031V104.494H59.3367ZM54.4344 106.213V113.967H57.3055V106.213H54.4344ZM67.0906 102.58V120.236H65.0008V102.58H67.0906ZM83.4484 102.58V120.256H81.3V102.58H83.4484ZM78.0187 104.123V110.744H71.9445V114.299C74.7277 114.279 77.1301 114.143 79.8742 113.674L80.0695 115.451C77.0617 115.979 74.425 116.076 71.2609 116.076H69.718V109.025H75.8117V105.881H69.6984V104.123H78.0187ZM94.8063 104.318C94.8063 109.65 93.3414 114.221 86.8375 117.463L85.6461 115.822C88.7027 114.309 90.5191 112.551 91.5445 110.451L86.0563 110.979L85.7828 109.104L92.2086 108.693C92.4332 107.873 92.5699 107.004 92.6383 106.076H86.7008V104.318H94.8063ZM99.4547 102.58V109.494H102.072V111.271H99.4547V120.197H97.2867V102.58H99.4547Z" fill="#6C727E"/>
</svg>
