<svg width="120" height="126" viewBox="0 0 120 126" fill="none" xmlns="http://www.w3.org/2000/svg">
<path d="M91 33H95L97 90H89L91 33Z" fill="#42A5F5"/>
<rect x="91" y="19" width="4" height="4" fill="#90CAF9"/>
<path d="M91 19C91 18.4477 91.4477 18 92 18H94C94.5523 18 95 18.4477 95 19H91Z" fill="#64B5F6"/>
<path d="M92.5 10.5C92.5 10.2239 92.7239 10 93 10C93.2761 10 93.5 10.2239 93.5 10.5V18H92.5V10.5Z" fill="#BBDEFB"/>
<path d="M76.6284 74.0372L49.1833 67.9023L31.5792 74.0372L25.7864 87.0963H31.5792H76.6284V74.0372Z" fill="#DADFE7"/>
<path d="M29.2527 83.0676L33.1522 73.1014C33.1522 73.1014 32.7188 70.935 27.5194 69.2024C24.7082 68.2657 22.6571 68.3418 21.3659 68.6095C20.419 68.8057 20.1687 69.8545 20.7165 70.6513L29.2527 83.0676Z" fill="white"/>
<path d="M66.9482 84L59.1491 69.6361C59.1491 69.6361 61.3155 66.1699 66.9482 64.8701C70.7182 64.0001 74.4199 65.5518 76.3683 66.6088C77.1823 67.0503 77.3809 68.0791 76.8734 68.8537L66.9482 84Z" fill="white"/>
<path d="M76.4802 83.9346L71.7141 72.5358C71.7141 72.5358 73.7715 70.9071 77.3468 70.5031C79.2531 70.2877 81.3339 71.0409 82.7134 71.6907C83.5961 72.1064 83.825 73.2004 83.274 74.0056L76.4802 83.9346Z" fill="white"/>
<path d="M37.0519 83.9343L43.9839 73.5358C43.9839 73.5358 41.9465 66.5822 37.0517 63.5702C33.5631 61.4235 30.407 61.271 28.5096 61.4661C27.4955 61.5703 27.027 62.6326 27.4611 63.555L37.0519 83.9343Z" fill="white"/>
<path d="M49.1842 84.3676L59.5826 69.6361C59.5826 69.6361 58.2146 61.6846 53.0195 56.307C47.6756 50.7754 39.5873 50.7667 35.7512 51.1343C34.6375 51.241 34.0453 52.4078 34.5243 53.4189L49.1842 84.3676Z" fill="white"/>
<path d="M81.1118 85.2659C80.555 84.4336 79.6197 83.9341 78.6184 83.9341H42.6294L23.12 83.9343L20.1531 90.0001H84.2792L81.1118 85.2659Z" fill="#3A404A"/>
<path d="M55.2226 81.3352C54.6661 80.501 53.7297 80 52.7269 80H26.9095C25.7446 80 24.685 80.6743 24.1917 81.7296L23.1304 84H57.0002L55.2226 81.3352Z" fill="#B4BBC7"/>
<path d="M86.3185 26.1852C86.148 24.4798 87.4872 23 89.2011 23H96.7989C98.5128 23 99.852 24.4798 99.6815 26.1852L98.2609 40.3913C98.1128 41.8722 96.8666 43 95.3783 43H90.6217C89.1334 43 87.8872 41.8722 87.7391 40.3913L86.3185 26.1852Z" fill="#64B5F6"/>
<rect width="6" height="2" rx="0.625238" transform="matrix(1 0 0 -1 90 29)" fill="#2196F3"/>
<rect width="6" height="2" rx="0.625238" transform="matrix(1 0 0 -1 90 34)" fill="#FBFCFD"/>
<rect width="6" height="2" rx="0.625238" transform="matrix(1 0 0 -1 90 39)" fill="#FBFCFD"/>
<rect width="6" height="2" rx="0.625238" transform="matrix(1 0 0 -1 90 29)" fill="#FBFCFD"/>
<path d="M26.2004 103.078C29.9895 103.078 32.7824 104.973 32.7824 107.844C32.7824 110.49 30.507 112.258 27.2746 112.57V115.812H34.3059V117.59H18.173V115.812H25.1262V112.57C21.9133 112.258 19.6379 110.49 19.6574 107.844C19.6379 104.973 22.4309 103.078 26.2004 103.078ZM26.2004 104.836C23.6223 104.816 21.7668 105.988 21.7863 107.844C21.7668 109.758 23.6223 110.891 26.2004 110.891C28.8176 110.891 30.6535 109.758 30.6535 107.844C30.6535 105.988 28.8176 104.816 26.2004 104.836ZM40.566 106.711C40.566 109.562 41.5621 112.531 43.9449 114.035L42.7535 115.695C41.1617 114.738 40.1266 113.088 39.5504 111.145C38.9059 113.283 37.773 115.09 36.1129 116.105L34.7652 114.484C37.3238 112.922 38.4762 109.816 38.4762 106.809V103.645H40.566V106.711ZM50.2926 102.082V119.738H48.2027V102.082H50.2926ZM46.6207 102.395V118.879H44.5699V109.953H42.0504V108.156H44.5699V102.395H46.6207ZM56.6895 103.371C59.3457 103.371 61.2598 105.793 61.2793 109.602C61.2598 113.449 59.3457 115.852 56.6895 115.852C54.0137 115.852 52.0801 113.449 52.0996 109.602C52.0801 105.793 54.0137 103.371 56.6895 103.371ZM56.6895 105.324C55.2051 105.324 54.1895 106.906 54.1895 109.602C54.1895 112.316 55.2051 113.898 56.6895 113.898C58.1934 113.898 59.1895 112.316 59.1895 109.602C59.1895 106.906 58.1934 105.324 56.6895 105.324ZM65.7715 102.082V108.859H68.4863V110.695H65.7715V119.738H63.6035V102.082H65.7715ZM83.5551 102.082V119.738H81.4066V102.082H83.5551ZM71.9926 103.801V113.449C74.473 113.41 77.1098 113.186 79.8246 112.648L80.098 114.465C76.9926 115.109 74.102 115.305 71.3676 115.305H69.8441V103.801H71.9926ZM90.4598 103.371C93.116 103.371 95.0301 105.793 95.0496 109.602C95.0301 113.449 93.116 115.852 90.4598 115.852C87.784 115.852 85.8504 113.449 85.8699 109.602C85.8504 105.793 87.784 103.371 90.4598 103.371ZM90.4598 105.324C88.9754 105.324 87.9598 106.906 87.9598 109.602C87.9598 112.316 88.9754 113.898 90.4598 113.898C91.9637 113.898 92.9598 112.316 92.9598 109.602C92.9598 106.906 91.9637 105.324 90.4598 105.324ZM99.5418 102.082V108.859H102.257V110.695H99.5418V119.738H97.3738V102.082H99.5418Z" fill="#6C727E"/>
</svg>
