<svg width="121" height="126" viewBox="0 0 121 126" fill="none" xmlns="http://www.w3.org/2000/svg">
<path d="M41.9599 65.3889C43.0835 64.0899 45.0663 63.9976 46.3057 65.1866L72.1719 90H20.6719L41.9599 65.3889Z" fill="#AEE280"/>
<path d="M72.2138 61.1105C73.4709 59.9591 75.4337 60.0853 76.533 61.3883L100.672 90H40.6719L72.2138 61.1105Z" fill="#2DAC6C"/>
<path d="M72.1719 61L40.6719 90H87.6719L78.1719 82.4348L79.1719 74.4493L71.1719 70.6667L72.1719 61Z" fill="#68CB70"/>
<path d="M92.2767 26.4399H78.6257V29.8004L97.4003 29.2639C97.8613 29.2508 98.2281 28.8733 98.2281 28.4122C98.2281 27.9416 97.8466 27.5601 97.376 27.5601H96.6947C95.8615 27.5601 95.0398 27.3661 94.2946 26.9935L94.0021 26.8473C93.4664 26.5794 92.8756 26.4399 92.2767 26.4399Z" fill="#BBDEFB"/>
<path d="M28.6232 26.4399H42.2742V29.8004L23.4995 29.2639C23.0386 29.2508 22.6718 28.8733 22.6718 28.4122C22.6718 27.9416 23.0533 27.5601 23.5239 27.5601H24.2052C25.0383 27.5601 25.8601 27.3661 26.6053 26.9935L26.8977 26.8473C27.4335 26.5794 28.0242 26.4399 28.6232 26.4399Z" fill="#BBDEFB"/>
<rect x="53.7835" y="45.5557" width="12.7778" height="28.8889" fill="#42A5F5"/>
<path d="M60.3933 10C64.1502 10 66.5154 12.701 66.5154 16.0322V25.6826H54.2713V16.0322C54.2713 12.701 56.6365 10.0001 60.3933 10Z" fill="#42A5F5"/>
<path d="M90.0706 25.6716H67.8997V33.5126H83.5366C85.4473 33.5126 87.2484 32.6205 88.4064 31.1007L91.0445 27.6381C91.6586 26.8322 91.0838 25.6716 90.0706 25.6716Z" fill="#90CAF9"/>
<path d="M31.8276 25.6716H53.9984V33.5126H38.3616C36.4509 33.5126 34.6497 32.6205 33.4917 31.1007L30.8536 27.6381C30.2395 26.8322 30.8143 25.6716 31.8276 25.6716Z" fill="#90CAF9"/>
<path d="M54.2721 38.1626L43.3803 26.1243C43.0954 25.8094 43.3188 25.3059 43.7435 25.3059H54.2721V38.1626Z" fill="#42A5F5"/>
<path d="M66.5149 38.1626L77.4067 26.1243C77.6916 25.8094 77.4682 25.3059 77.0435 25.3059H66.5149V38.1626Z" fill="#42A5F5"/>
<path d="M51.7675 25.6826H68.5696V50.666C68.5696 53.4104 65.6696 55.1856 63.2254 53.9374L53.77 49.1082C52.541 48.4805 51.7675 47.2169 51.7675 45.8368V25.6826Z" fill="#90CAF9"/>
<path d="M64.6789 18.5702C64.6789 21.9514 64.2027 24.6925 60.3933 24.6925C56.5839 24.6925 56.1077 21.9514 56.1077 18.5702C56.1077 15.189 57.3878 12.448 60.3933 12.448C63.3988 12.448 64.6789 15.189 64.6789 18.5702Z" fill="#E3F2FD"/>
<path d="M58.9327 19.0276L55.4958 20.1016V24.6933H65.2913V20.1016L61.8544 19.0276C60.9032 18.7303 59.8839 18.7303 58.9327 19.0276Z" fill="#42A5F5"/>
<path d="M59.7969 21.6174L60.1345 21.2798C60.278 21.1363 60.5106 21.1363 60.654 21.2798L60.9916 21.6174C61.223 21.8488 61.0591 22.2445 60.7319 22.2445H60.0566C59.7294 22.2445 59.5655 21.8488 59.7969 21.6174Z" fill="#E3F2FD"/>
<rect x="50.5983" y="24.6941" width="4.89778" height="19.5911" rx="1.22445" fill="#2196F3"/>
<rect x="65.2912" y="24.6941" width="4.89778" height="23.2645" rx="1.22445" fill="#2196F3"/>
<rect x="51.6718" y="73" width="17" height="14" fill="#FFD350"/>
<rect x="50.3772" y="85.7119" width="19.2946" height="4.28769" rx="1.69721" fill="#FFC204"/>
<rect x="50.6634" y="71" width="18.8658" height="4.28769" rx="1.69721" fill="#FFDF81"/>
<rect x="51.5204" y="74.2881" width="5.14523" height="12.0055" fill="#FFC204"/>
<path d="M50.6634 72.6972C50.6634 71.7599 51.4233 71 52.3606 71H56.6662V75.2877H52.3607C51.4233 75.2877 50.6634 74.5278 50.6634 73.5905V72.6972Z" fill="#FFD160"/>
<path d="M32.7707 102.102V105.93H35.2512V107.727H32.7707V112.043H30.6027V102.102H32.7707ZM32.7707 112.902V119.504H21.3449V112.902H32.7707ZM23.4738 114.602V117.785H30.6418V114.602H23.4738ZM21.7941 102.961V109.172C24.0598 109.152 26.4426 108.947 29.0207 108.449L29.2746 110.227C26.3449 110.812 23.6301 110.969 21.0715 110.969H19.6066V102.961H21.7941ZM40.4762 103.371C43.1324 103.371 45.0465 105.793 45.066 109.602C45.0465 113.449 43.1324 115.852 40.4762 115.852C37.8004 115.852 35.8668 113.449 35.8863 109.602C35.8668 105.793 37.8004 103.371 40.4762 103.371ZM40.4762 105.324C38.9918 105.324 37.9762 106.906 37.9762 109.602C37.9762 112.316 38.9918 113.898 40.4762 113.898C41.9801 113.898 42.9762 112.316 42.9762 109.602C42.9762 106.906 41.9801 105.324 40.4762 105.324ZM49.5582 102.082V108.859H52.273V110.695H49.5582V119.738H47.3902V102.082H49.5582ZM60.0957 103.996V108.586H62.1465V102.395H64.2168V118.879H62.1465V110.344H60.0957V115.188H53.1621V103.996H60.0957ZM55.1934 105.715V113.469H58.0645V105.715H55.1934ZM67.8496 102.082V119.738H65.7598V102.082H67.8496ZM84.2074 102.082V119.758H82.059V102.082H84.2074ZM78.7777 103.625V110.246H72.7035V113.801C75.4867 113.781 77.8891 113.645 80.6332 113.176L80.8285 114.953C77.8207 115.48 75.184 115.578 72.0199 115.578H70.477V108.527H76.5707V105.383H70.4574V103.625H78.7777ZM95.5652 103.82C95.5652 109.152 94.1004 113.723 87.5965 116.965L86.4051 115.324C89.4617 113.811 91.2781 112.053 92.3035 109.953L86.8152 110.48L86.5418 108.605L92.9676 108.195C93.1922 107.375 93.3289 106.506 93.3973 105.578H87.4598V103.82H95.5652ZM100.214 102.082V108.996H102.831V110.773H100.214V119.699H98.0457V102.082H100.214Z" fill="#6C727E"/>
</svg>
