<svg width="150" height="37" viewBox="0 0 150 37" fill="none" xmlns="http://www.w3.org/2000/svg">
<rect x="0.5" width="149" height="29" rx="8" fill="#585F69"/>
<path d="M16.916 19.1367C14.7969 19.1367 13.293 17.9883 13.252 16.3203H15.043C15.0977 17.1133 15.8906 17.6328 16.916 17.6328C18.0098 17.6328 18.7891 17.0312 18.7891 16.1562C18.7891 15.2676 18.0234 14.625 16.7383 14.625H15.8496V13.2578H16.7383C17.791 13.2578 18.5293 12.6699 18.5156 11.8086C18.5293 10.9746 17.9004 10.4141 16.9297 10.4141C16 10.4141 15.1934 10.9336 15.166 11.7676H13.457C13.498 10.0996 15.002 8.96484 16.9434 8.96484C18.9531 8.96484 20.252 10.1953 20.2383 11.7129C20.252 12.8203 19.5137 13.627 18.4336 13.8457V13.9277C19.8281 14.1191 20.6211 15.0078 20.6074 16.252C20.6211 17.9199 19.0625 19.1367 16.916 19.1367ZM33.0488 17.5098V18.7539H21.7559V17.5098H26.6367V14.9531H28.1406V17.5098H33.0488ZM32.0371 9.64844V10.8789H28.1816C28.2842 12.417 29.8906 13.832 32.5566 14.1875L31.9961 15.377C29.8564 15.0762 28.209 14.126 27.3887 12.7656C26.5684 14.126 24.9346 15.0762 22.7949 15.377L22.2207 14.1875C24.9004 13.832 26.5 12.417 26.623 10.8789H22.7539V9.64844H26.6367V8.04883H28.1406V9.64844H32.0371ZM40.1309 8.92383V14.7617H34.2793V8.92383H40.1309ZM35.7695 10.1406V13.5586H38.6406V10.1406H35.7695ZM43.6035 7.85742V11.4805H45.3262V12.752H43.6035V16.8809H42.0859V7.85742H43.6035ZM44.0957 18.7402V19.9707H35.6875V16.0059H37.2051V18.7402H44.0957ZM56.6191 7.85742V20.2168H55.1562V7.85742H56.6191ZM54.0762 8.07617V19.6152H52.627V13.7363H51.4512C51.3076 16.1426 50.2754 17.6328 48.7441 17.6191C47.1309 17.6328 46.0781 15.9238 46.0781 13.2031C46.0781 10.4824 47.1309 8.80078 48.7441 8.80078C50.2412 8.80078 51.2598 10.1953 51.4375 12.5059H52.627V8.07617H54.0762ZM48.7441 10.2363C47.9648 10.2227 47.4727 11.2754 47.4863 13.2031C47.4727 15.1309 47.9648 16.1836 48.7441 16.1699C49.5645 16.1836 50.0566 15.1309 50.0566 13.2031C50.0566 11.2754 49.5645 10.2227 48.7441 10.2363ZM71.5078 7.85742V12.5059H72.8887V13.791H71.5078V20.2168H70.0039V7.85742H71.5078ZM62.7852 8.99219V11.959H63.8242V8.99219H65.082V17.3047H61.5273V8.99219H62.7852ZM62.7852 16.0605H63.8242V13.1621H62.7852V16.0605ZM66.873 8.99219V11.959H67.9121V8.99219H69.1699V17.3047H65.6426V8.99219H66.873ZM66.873 16.0605H67.9121V13.1621H66.873V16.0605ZM84.7559 14.5977V15.8145H73.4629V14.5977H84.7559ZM83.6348 18.7402V19.9707H74.9121V16.5938H76.4434V18.7402H83.6348ZM83.3613 8.18555V11.4805H76.4023V12.5332H83.6074V13.6816H74.8984V10.3867H81.8438V9.375H74.8574V8.18555H83.3613ZM99.1934 7.85742V20.2168H97.6758V7.85742H99.1934ZM88.9531 16.7852C89.9375 16.7783 91.0518 16.7783 92.2207 16.7441V15.6094C90.8262 15.3906 89.9238 14.5361 89.9238 13.3672C89.9238 11.9727 91.1543 11.043 92.959 11.043C94.7773 11.043 96.0352 11.9727 96.0352 13.3672C96.0352 14.5293 95.126 15.377 93.7383 15.5957V16.6895C94.8252 16.6416 95.9189 16.5527 96.9512 16.416L97.0605 17.5508C94.3398 18.0156 91.4004 18.043 89.1719 18.043L88.9531 16.7852ZM96.7324 9.2793V10.4824H89.2129V9.2793H92.2207V7.89844H93.7383V9.2793H96.7324ZM92.959 12.2051C92.0293 12.2188 91.3594 12.6426 91.373 13.3672C91.3594 14.0781 92.0293 14.502 92.959 14.4883C93.9297 14.502 94.5723 14.0781 94.5723 13.3672C94.5723 12.6426 93.9297 12.2188 92.959 12.2051ZM111.361 7.87109V17.2227H109.83V16.1426H107.41V15.0762H109.83V7.87109H111.361ZM111.648 18.7402V19.9707H102.584V16.3203H104.102V18.7402H111.648ZM100.943 13.4219C103.227 13.4082 106.289 13.3809 108.914 13.0527L108.996 14.1465C107.978 14.3174 106.925 14.4336 105.879 14.502V16.8809H104.361V14.584C103.206 14.6318 102.105 14.6387 101.135 14.6387L100.943 13.4219ZM104.977 8.32227C106.781 8.32227 108.039 9.21094 108.053 10.5098C108.039 11.8359 106.781 12.6836 104.977 12.6836C103.145 12.6836 101.887 11.8359 101.887 10.5098C101.887 9.21094 103.145 8.32227 104.977 8.32227ZM104.977 9.44336C103.992 9.44336 103.322 9.83984 103.322 10.5098C103.322 11.1797 103.992 11.5762 104.977 11.5762C105.92 11.5762 106.59 11.1797 106.604 10.5098C106.59 9.83984 105.92 9.44336 104.977 9.44336ZM122.777 7.85742V12.6836H124.609V13.9551H122.777V20.1895H121.26V7.85742H122.777ZM119.51 9.14258C119.51 12.7793 118.006 15.9648 113.891 17.9883L113.029 16.8125C116.037 15.3154 117.664 13.21 117.979 10.4004H113.699V9.14258H119.51ZM135.492 7.85742V14.4883H133.961V7.85742H135.492ZM128.82 15.0625V16.334H133.975V15.0625H135.492V20.0664H127.316V15.0625H128.82ZM128.82 18.8359H133.975V17.5234H128.82V18.8359ZM128.752 8.4043C130.652 8.39062 132.074 9.58008 132.074 11.3027C132.074 12.9844 130.652 14.1738 128.752 14.1738C126.838 14.1738 125.416 12.9844 125.416 11.3027C125.416 9.58008 126.838 8.39062 128.752 8.4043ZM128.752 9.67578C127.672 9.67578 126.893 10.3047 126.906 11.3027C126.893 12.2871 127.672 12.916 128.752 12.9297C129.818 12.916 130.584 12.2871 130.584 11.3027C130.584 10.3047 129.818 9.67578 128.752 9.67578Z" fill="white"/>
<path d="M75 37L80.1962 28H69.8038L75 37Z" fill="#585F69"/>
</svg>
