<svg width="64" height="64" viewBox="0 0 64 64" fill="none" xmlns="http://www.w3.org/2000/svg">
<g clip-path="url(#clip0_1037_9465)">
<path d="M32 0C49.6732 0 64.0008 14.3269 64.001 32C64.001 49.6733 49.6733 64.001 32 64.001C14.3269 64.0008 0 49.6732 0 32C0.000175236 14.327 14.327 0.000175247 32 0ZM32 43.2012C30.2329 43.2014 28.8008 44.6342 28.8008 46.4014C28.8009 48.1684 30.233 49.6013 32 49.6016C33.7672 49.6016 35.2001 48.1686 35.2002 46.4014C35.2002 44.634 33.7673 43.2012 32 43.2012ZM32.001 16.5332C30.5283 16.5332 29.3341 17.7275 29.334 19.2002V35.2002C29.334 36.6729 30.5282 37.8672 32.001 37.8672C33.4737 37.8672 34.668 36.673 34.668 35.2002V19.2002C34.6679 17.7275 33.4737 16.5332 32.001 16.5332Z" fill="#DADFE7"/>
</g>
<defs>
<clipPath id="clip0_1037_9465">
<rect width="64" height="64" fill="white"/>
</clipPath>
</defs>
</svg>
