<svg width="200" height="200" viewBox="0 0 200 200" fill="none" xmlns="http://www.w3.org/2000/svg">
<path d="M50.7789 140.517C45.6035 152.083 57.4459 163.926 69.0123 158.75L143.986 129.609L78.4295 65.4678L50.7789 140.517Z" fill="#42A5F5"/>
<ellipse cx="112.019" cy="96.4638" rx="46.1912" ry="12.3176" transform="rotate(45 112.019 96.4638)" fill="#002344"/>
<path d="M101.459 84.3331C101.459 84.3331 115.607 73.4852 110.42 53.2052" stroke="#BBDEFB" stroke-width="10.3759" stroke-linecap="round"/>
<circle cx="135.414" cy="50.2938" r="10.2938" fill="#FF6E61"/>
<circle cx="55.3191" cy="57.9217" r="11.3191" fill="#2196F3"/>
<circle cx="51.0745" cy="85.7483" r="7.07445" fill="#BBDEFB"/>
<circle cx="140.213" cy="151.305" r="8.48934" fill="#BBDEFB"/>
<path d="M125.224 94.8985C125.224 94.8985 125.308 84.2224 138.798 86.22C151.532 88.1057 155.305 82.4463 155.305 73.0138" stroke="#2196F3" stroke-width="10.3759" stroke-linecap="round"/>
<circle cx="143.132" cy="111.777" r="6.69218" fill="#FF6E61"/>
</svg>
