<svg width="60" height="60" viewBox="0 0 60 60" fill="none" xmlns="http://www.w3.org/2000/svg">
<path fill-rule="evenodd" clip-rule="evenodd" d="M30 60C13.4306 60 0 46.5694 0 30C0 13.4306 13.4306 0 30 0C46.5694 0 60 13.4306 60 30C60 46.5694 46.5694 60 30 60ZM30.525 43.7344C32.4525 45.0675 34.8975 45.8606 37.545 45.8606C38.2038 45.8606 38.8531 45.8125 39.4931 45.7163C39.7125 45.8063 39.9244 45.9169 40.185 46.0669C40.7475 46.3969 41.4975 46.9031 42.435 47.5856C43.2019 48.1462 44.2875 47.6044 44.2875 46.6613V43.9219C44.6813 43.6669 45.0531 43.3906 45.4031 43.0931C47.5219 41.2969 48.75 38.8406 48.75 36.2062C48.75 34.4719 48.225 32.85 47.3025 31.4494C47.0108 32.4437 46.6168 33.405 46.1269 34.3181C46.3231 34.9244 46.4225 35.5537 46.425 36.2062C46.425 38.145 45.51 39.975 43.89 41.3475C43.4719 41.7004 43.0218 42.0137 42.5456 42.2831C42.3689 42.3825 42.2218 42.5271 42.1193 42.702C42.0168 42.877 41.9627 43.076 41.9625 43.2788V44.4487C40.8506 43.7362 40.0875 43.4006 39.5062 43.4006C39.441 43.4029 39.3759 43.4085 39.3112 43.4175C37.6822 43.6897 36.0123 43.5805 34.4325 43.0988C33.1529 43.4305 31.8455 43.6439 30.5269 43.7363L30.525 43.7344ZM16.5263 38.2556C17.1435 38.7801 17.7977 39.2595 18.4837 39.69V44.3625C18.4837 45.5438 19.8431 46.2188 20.8013 45.5175C23.445 43.5862 25.2825 42.495 25.7419 42.3863C26.8044 42.555 27.8844 42.6394 28.9819 42.6394C38.7319 42.6394 46.7156 35.8763 46.7156 27.4144C46.7156 18.9506 38.73 12.1875 28.9819 12.1875C19.2337 12.1875 11.25 18.9506 11.25 27.4125C11.25 31.5562 13.1813 35.4206 16.5263 38.2556ZM25.8056 39.5044C24.8625 39.5044 23.4844 40.17 21.3919 41.5744V38.88C21.39 38.6266 21.3214 38.3781 21.1931 38.1595C21.0647 37.941 20.8811 37.7601 20.6606 37.635C19.8672 37.1837 19.1165 36.6609 18.4181 36.0731C15.6938 33.7687 14.1562 30.6863 14.1562 27.4125C14.1562 20.6437 20.7488 15.06 28.9819 15.06C37.2169 15.06 43.8075 20.6437 43.8075 27.4125C43.8075 34.1812 37.2169 39.7669 28.9819 39.7669C27.9869 39.7669 27.0094 39.6856 26.0494 39.5231C25.9686 39.5116 25.8872 39.5053 25.8056 39.5044ZM21.4237 30.2869C22.7081 30.2869 23.7488 29.2556 23.7488 27.9881C23.7488 26.7188 22.7081 25.6894 21.4237 25.6894C20.1394 25.6894 19.0987 26.7188 19.0987 27.9881C19.0987 29.2575 20.1394 30.2869 21.4237 30.2869ZM28.9819 30.2869C30.2662 30.2869 31.3069 29.2556 31.3069 27.9881C31.3069 26.7188 30.2662 25.6894 28.9819 25.6894C27.6975 25.6894 26.6569 26.7188 26.6569 27.9881C26.6569 29.2575 27.6975 30.2869 28.9819 30.2869ZM36.54 30.2869C37.8244 30.2869 38.865 29.2556 38.865 27.9881C38.865 26.7188 37.8244 25.6894 36.54 25.6894C35.2556 25.6894 34.215 26.7188 34.215 27.9881C34.215 29.2575 35.2556 30.2869 36.54 30.2869Z" fill="#1E88E5"/>
</svg>
