<svg width="32" height="30" viewBox="0 0 32 30" fill="none" xmlns="http://www.w3.org/2000/svg">
<path d="M11.4313 3.37239C16.2802 0.267662 22.2714 0.0648367 26.5612 3.34993C32.2613 7.71519 32.7991 16.5862 27.7623 23.1634C22.7255 29.7405 14.0211 31.5335 8.32093 27.1683C4.12042 23.9515 2.72342 18.288 4.29457 12.8988C4.9283 13.3022 5.54504 13.7365 6.0182 14.306L6.19007 14.5159C5.84883 17.358 6.73537 20.0498 8.8307 21.6546C12.3385 24.3409 17.9044 22.964 21.2623 18.5794C24.6201 14.1946 24.4987 8.46199 20.9909 5.77571C18.7181 4.03538 15.5821 4.00216 12.7418 5.38607C12.251 4.86599 11.8512 4.2524 11.5485 3.60775C11.5107 3.52732 11.4715 3.44893 11.4313 3.37239Z" fill="#3A404A"/>
<path d="M1.75687 9.93569C6.79031 11.5102 7.53158 13.5101 8.66633 17.3237C8.7637 17.6509 9.22563 17.6477 9.31929 17.3194C10.4298 13.4272 11.195 11.4957 16.2424 9.93318C16.6953 9.79298 16.6944 9.10286 16.2403 8.96654C11.2047 7.4548 10.4668 5.77194 9.33051 1.65684C9.23792 1.32154 8.76208 1.32154 8.66949 1.65684C7.53317 5.77193 6.79526 7.4548 1.75967 8.96654C1.30559 9.10286 1.30438 9.79414 1.75687 9.93569Z" fill="#3A404A"/>
</svg>
