<svg width="32" height="30" viewBox="0 0 32 30" fill="none" xmlns="http://www.w3.org/2000/svg">
<path d="M11.4314 3.37244C16.2803 0.267704 22.2715 0.0648795 26.5613 3.34998C32.2615 7.71523 32.7992 16.5863 27.7625 23.1635C22.7256 29.7405 14.0212 31.5335 8.32105 27.1683C4.12054 23.9515 2.72354 18.2881 4.29469 12.8988C4.92842 13.3023 5.54516 13.7366 6.01832 14.306L6.19019 14.516C5.84895 17.358 6.73549 20.0499 8.83082 21.6547C12.3386 24.3409 17.9046 22.9641 21.2625 18.5795C24.6202 14.1947 24.4988 8.46203 20.991 5.77576C18.7182 4.03543 15.5822 4.0022 12.742 5.38611C12.2511 4.86603 11.8513 4.25244 11.5486 3.60779C11.5108 3.52736 11.4716 3.44897 11.4314 3.37244Z" fill="white"/>
<path d="M1.75687 9.93569C6.79031 11.5102 7.53158 13.5101 8.66633 17.3237C8.7637 17.6509 9.22563 17.6477 9.31929 17.3194C10.4298 13.4272 11.195 11.4957 16.2424 9.93318C16.6953 9.79298 16.6944 9.10286 16.2403 8.96654C11.2047 7.4548 10.4668 5.77194 9.33051 1.65684C9.23792 1.32154 8.76208 1.32154 8.66949 1.65684C7.53317 5.77193 6.79526 7.4548 1.75967 8.96654C1.30559 9.10286 1.30438 9.79414 1.75687 9.93569Z" fill="white"/>
</svg>
