<svg width="88" height="88" viewBox="0 0 88 88" fill="none" xmlns="http://www.w3.org/2000/svg">
<rect width="88" height="88" rx="44" fill="#EBEEF3"/>
<path d="M44 47.7061C46.2711 47.7061 48.52 48.1534 50.6182 49.0225C52.7164 49.8916 54.6226 51.1656 56.2285 52.7715C57.8344 54.3774 59.1084 56.2837 59.9775 58.3818C60.2141 58.9529 60.4192 59.5352 60.5928 60.126C61.3618 62.7441 59.0822 64.9998 56.3535 65H31.6475C28.9186 65 26.6383 62.7442 27.4072 60.126C27.5808 59.5352 27.7859 58.9528 28.0225 58.3818C28.8916 56.2836 30.1656 54.3774 31.7715 52.7715C33.3774 51.1656 35.2837 49.8916 37.3818 49.0225C39.48 48.1534 41.729 47.7061 44 47.7061ZM44.001 23C50.1408 23.0001 55.1179 27.9774 55.1182 34.1172C55.1182 40.2572 50.141 45.2352 44.001 45.2354C37.8609 45.2354 32.8828 40.2573 32.8828 34.1172C32.8831 27.9773 37.861 23 44.001 23Z" fill="#B4BBC7"/>
</svg>
