<svg width="64" height="64" viewBox="0 0 64 64" fill="none" xmlns="http://www.w3.org/2000/svg">
<rect width="64" height="64" rx="32" fill="#EBEEF3"/>
<path d="M32.0005 34.6953C33.652 34.6954 35.2872 35.0213 36.813 35.6533C38.3389 36.2854 39.7261 37.211 40.894 38.3789C42.062 39.5468 42.9885 40.934 43.6206 42.46C43.7926 42.8752 43.9417 43.299 44.0679 43.7285C44.6269 45.6326 42.9684 47.2734 40.9839 47.2734H23.0161C21.0316 47.2734 19.3731 45.6326 19.9321 43.7285C20.0583 43.2989 20.2084 42.8752 20.3804 42.46C21.0125 40.934 21.938 39.5468 23.106 38.3789C24.2739 37.211 25.661 36.2854 27.187 35.6533C28.713 35.0212 30.3488 34.6953 32.0005 34.6953ZM32.0005 16.7275C36.466 16.7276 40.0864 20.348 40.0864 24.8135C40.0863 29.2789 36.4659 32.8984 32.0005 32.8984C27.535 32.8984 23.9147 29.2789 23.9146 24.8135C23.9146 20.3479 27.535 16.7275 32.0005 16.7275Z" fill="#B4BBC7"/>
</svg>
