<svg width="88" height="88" viewBox="0 0 88 88" fill="none" xmlns="http://www.w3.org/2000/svg">
<rect width="88" height="88" rx="44" fill="#EBEEF3"/>
<path d="M44 47.7061C46.271 47.7061 48.5199 48.1534 50.6181 49.0225C52.7163 49.8916 54.6226 51.1656 56.2285 52.7715C57.8344 54.3774 59.1084 56.2837 59.9775 58.3818C60.214 58.9529 60.4192 59.5352 60.5927 60.126C61.3618 62.7441 59.0822 64.9998 56.3535 65H31.6474C28.9186 65 26.6382 62.7442 27.4072 60.126C27.5807 59.5352 27.7859 58.9528 28.0224 58.3818C28.8915 56.2836 30.1656 54.3774 31.7715 52.7715C33.3773 51.1656 35.2837 49.8916 37.3818 49.0225C39.48 48.1534 41.7289 47.7061 44 47.7061ZM44.0009 23C50.1408 23.0001 55.1179 27.9774 55.1181 34.1172C55.1181 40.2572 50.141 45.2352 44.0009 45.2354C37.8608 45.2354 32.8828 40.2573 32.8828 34.1172C32.883 27.9773 37.861 23 44.0009 23Z" fill="#B4BBC7"/>
</svg>
